<svg width="48" height="48" viewBox="0 0 48 48" fill="none" xmlns="http://www.w3.org/2000/svg">
<circle cx="24" cy="24" r="24" fill="url(#paint0_linear_70_794)"/>
<path d="M23.0004 30.0734C22.7034 29.5803 23.4366 29.1302 23.7442 29.614L24.3392 30.5765L25.9181 29.2903L24.9425 23.8661L22.2567 26.7843L19.9734 27.042C19.8465 27.0551 19.7284 27.1295 19.6584 27.2345L18.3634 29.1988L19.4353 31.4292C19.4746 31.5123 19.4878 31.6086 19.4703 31.7005L19.1334 33.5467C19.0196 34.1093 18.1757 33.9619 18.2715 33.3892L18.5865 31.683L17.6984 29.8498L14.4268 31.1142C14.3305 31.1536 14.2518 31.2192 14.2036 31.3111L11.8109 35.5981C11.6421 35.8733 11.8678 36.2597 12.1916 36.25H21.7098L23.7398 31.2717L23.0004 30.0734Z" fill="white"/>
<path d="M28.2581 25.7513C28.2325 25.679 28.1852 25.6163 28.1225 25.572L25.8125 23.7611L26.8231 29.3909C26.8538 29.544 26.7925 29.7059 26.67 29.8065L24.5923 31.4996L22.6546 36.25H29.1331C29.2688 36.25 29.3956 36.1888 29.4788 36.0838C29.5619 35.9788 29.5925 35.8431 29.5619 35.7119L28.91 32.9819L30.0256 30.3971C30.0738 30.2878 30.0738 30.1653 30.03 30.0559L28.2581 25.7513ZM19.0588 24.9643C19.2513 25.029 19.464 24.9433 19.5707 24.7674C20.7596 22.711 22.1661 20.7884 23.7659 19.0326L24.2996 19.562C24.619 19.891 25.1471 19.8827 25.4673 19.562L25.7648 19.2645C25.9503 19.0764 26.3835 18.6476 26.5655 18.4639C26.877 18.1511 26.8866 17.6178 26.5611 17.3001L26.0317 16.7664C27.7875 15.1667 29.7101 13.7604 31.7665 12.5716C32.1602 12.3573 31.9633 11.694 31.5083 11.7535C28.2193 12.0338 25.1352 13.4678 22.801 15.8019C20.4668 18.1361 19.0329 21.2202 18.7526 24.5093C18.7351 24.7149 18.862 24.903 19.0588 24.9643ZM35.76 26.5388L32.358 23.3215L27.4711 18.7001C27.3967 18.8401 27.2961 18.9714 27.1823 19.0851C26.9133 19.3284 26.016 20.3171 25.7036 20.472L28.0831 22.9911L33.5379 28.7609C33.831 29.0715 34.2291 29.2421 34.6535 29.2509C36.0544 29.3078 36.7986 27.4799 35.76 26.5388Z" fill="white"/>
<defs>
<linearGradient id="paint0_linear_70_794" x1="24" y1="0" x2="24" y2="48" gradientUnits="userSpaceOnUse">
<stop stop-color="#6989FE"/>
<stop offset="1" stop-color="#3C64F4"/>
</linearGradient>
</defs>
</svg>
