<svg width="48" height="48" viewBox="0 0 48 48" fill="none" xmlns="http://www.w3.org/2000/svg">
<circle cx="24" cy="24" r="24" fill="url(#paint0_linear_70_789)"/>
<g clip-path="url(#clip0_70_789)">
<path d="M22.2815 26.1388H21.0958V24.953C21.0958 24.4999 20.7285 24.1326 20.2755 24.1326C19.8224 24.1326 19.4551 24.4999 19.4551 24.953V26.1388H18.2693C17.8162 26.1388 17.4489 26.5061 17.4489 26.9592V30.9713C17.4489 31.4243 17.8162 31.7916 18.2693 31.7916H19.4551V33.0443C19.4551 33.4974 19.8224 33.8647 20.2755 33.8647C20.7285 33.8647 21.0958 33.4974 21.0958 33.0443V31.7916H22.2815C22.7346 31.7916 23.1019 31.4243 23.1019 30.9713V26.9592C23.1019 26.5061 22.7346 26.1388 22.2815 26.1388ZM29.7306 22.1264H28.5449V20.9406C28.5449 20.4875 28.1776 20.1202 27.7245 20.1202C27.2714 20.1202 26.9041 20.4875 26.9041 20.9406V22.1264H25.7184C25.2653 22.1264 24.898 22.4937 24.898 22.9468V26.9588C24.898 27.4119 25.2653 27.7792 25.7184 27.7792H26.9041V33.0444C26.9041 33.4975 27.2714 33.8648 27.7245 33.8648C28.1776 33.8648 28.5449 33.4975 28.5449 33.0444V27.7792H29.7306C30.1836 27.7792 30.551 27.4119 30.551 26.9588V22.9468C30.551 22.4937 30.1836 22.1264 29.7306 22.1264ZM37.1796 16.1414H35.9939V14.9556C35.9939 14.5025 35.6266 14.1352 35.1735 14.1352C34.7204 14.1352 34.3531 14.5025 34.3531 14.9556V16.1414H33.1674C32.7143 16.1414 32.347 16.5087 32.347 16.9618V22.9467C32.347 23.3998 32.7143 23.7671 33.1674 23.7671H34.3531V27.0256C34.3531 27.4787 34.7204 27.846 35.1735 27.846C35.6266 27.846 35.9939 27.4787 35.9939 27.0256V23.7671H37.1796C37.6327 23.7671 38 23.3998 38 22.9467V16.9618C38 16.5087 37.6327 16.1414 37.1796 16.1414ZM14.8325 20.0535H13.6469V14.9556C13.6469 14.5026 13.2796 14.1352 12.8265 14.1352C12.3734 14.1352 12.0061 14.5026 12.0061 14.9556V20.0535H10.8204C10.3673 20.0535 10 20.4209 10 20.8739V27.0257C10 27.4787 10.3673 27.8461 10.8204 27.8461H12.0061V29.0319C12.0061 29.4849 12.3734 29.8522 12.8265 29.8522C13.2796 29.8522 13.6469 29.4849 13.6469 29.0319V27.8461H14.8326C15.2857 27.8461 15.653 27.4787 15.653 27.0257V20.8739C15.6529 20.4209 15.2857 20.0535 14.8325 20.0535Z" fill="white"/>
</g>
<defs>
<linearGradient id="paint0_linear_70_789" x1="24" y1="0" x2="24" y2="48" gradientUnits="userSpaceOnUse">
<stop stop-color="#6989FE"/>
<stop offset="1" stop-color="#3C64F4"/>
</linearGradient>
<clipPath id="clip0_70_789">
<rect width="28" height="28" fill="white" transform="translate(10 10)"/>
</clipPath>
</defs>
</svg>
