<svg width="214" height="51" viewBox="0 0 214 51" fill="none" xmlns="http://www.w3.org/2000/svg">
<rect width="214" height="51" rx="25.5" fill="url(#paint0_radial_203_5)"/>
<path d="M31.8878 32C31.7678 32 31.6658 31.964 31.5818 31.892C31.4978 31.808 31.4558 31.7 31.4558 31.568V19.85C31.4558 19.718 31.4978 19.61 31.5818 19.526C31.6658 19.442 31.7678 19.4 31.8878 19.4H33.5258C33.6578 19.4 33.7598 19.442 33.8318 19.526C33.9158 19.61 33.9578 19.718 33.9578 19.85V24.494H35.5238L38.4578 19.724C38.5178 19.628 38.5958 19.55 38.6918 19.49C38.7998 19.43 38.9378 19.4 39.1058 19.4H40.8878C41.0078 19.4 41.0978 19.436 41.1578 19.508C41.2298 19.58 41.2658 19.67 41.2658 19.778C41.2658 19.838 41.2418 19.91 41.1938 19.994L37.7918 25.484L41.5178 31.388C41.5538 31.424 41.5718 31.49 41.5718 31.586C41.5718 31.694 41.5298 31.79 41.4458 31.874C41.3738 31.958 41.2778 32 41.1578 32H39.3038C39.1478 32 39.0278 31.964 38.9438 31.892C38.8718 31.82 38.8118 31.754 38.7638 31.694L35.6138 26.744H33.9578V31.568C33.9578 31.688 33.9158 31.79 33.8318 31.874C33.7598 31.958 33.6578 32 33.5258 32H31.8878ZM46.0164 32.18C45.3924 32.18 44.8284 32.06 44.3244 31.82C43.8204 31.568 43.4184 31.238 43.1184 30.83C42.8304 30.41 42.6864 29.942 42.6864 29.426C42.6864 28.586 43.0224 27.92 43.6944 27.428C44.3784 26.924 45.2784 26.588 46.3944 26.42L48.8604 26.06V25.682C48.8604 25.178 48.7344 24.788 48.4824 24.512C48.2304 24.236 47.7984 24.098 47.1864 24.098C46.7544 24.098 46.4004 24.188 46.1244 24.368C45.8604 24.536 45.6624 24.764 45.5304 25.052C45.4344 25.208 45.2964 25.286 45.1164 25.286H43.6944C43.5624 25.286 43.4604 25.25 43.3884 25.178C43.3284 25.106 43.2984 25.01 43.2984 24.89C43.3104 24.698 43.3884 24.464 43.5324 24.188C43.6764 23.912 43.9044 23.648 44.2164 23.396C44.5284 23.132 44.9304 22.91 45.4224 22.73C45.9144 22.55 46.5084 22.46 47.2044 22.46C47.9604 22.46 48.5964 22.556 49.1124 22.748C49.6404 22.928 50.0604 23.174 50.3724 23.486C50.6844 23.798 50.9124 24.164 51.0564 24.584C51.2004 25.004 51.2724 25.448 51.2724 25.916V31.568C51.2724 31.688 51.2304 31.79 51.1464 31.874C51.0624 31.958 50.9604 32 50.8404 32H49.3824C49.2504 32 49.1424 31.958 49.0584 31.874C48.9864 31.79 48.9504 31.688 48.9504 31.568V30.866C48.7944 31.094 48.5844 31.31 48.3204 31.514C48.0564 31.706 47.7324 31.868 47.3484 32C46.9764 32.12 46.5324 32.18 46.0164 32.18ZM46.6284 30.47C47.0484 30.47 47.4264 30.38 47.7624 30.2C48.1104 30.02 48.3804 29.744 48.5724 29.372C48.7764 28.988 48.8784 28.508 48.8784 27.932V27.554L47.0784 27.842C46.3704 27.95 45.8424 28.124 45.4944 28.364C45.1464 28.604 44.9724 28.898 44.9724 29.246C44.9724 29.51 45.0504 29.738 45.2064 29.93C45.3744 30.11 45.5844 30.248 45.8364 30.344C46.0884 30.428 46.3524 30.47 46.6284 30.47ZM54.0136 32C53.8936 32 53.7916 31.958 53.7076 31.874C53.6236 31.79 53.5816 31.688 53.5816 31.568V23.072C53.5816 22.952 53.6236 22.85 53.7076 22.766C53.7916 22.682 53.8936 22.64 54.0136 22.64H55.4896C55.6096 22.64 55.7116 22.682 55.7956 22.766C55.8796 22.85 55.9216 22.952 55.9216 23.072V26.294H57.2176L59.4136 22.928C59.4616 22.844 59.5216 22.778 59.5936 22.73C59.6776 22.67 59.7856 22.64 59.9176 22.64H61.5196C61.6396 22.64 61.7356 22.67 61.8076 22.73C61.8796 22.79 61.9156 22.868 61.9156 22.964C61.9156 23 61.9036 23.042 61.8796 23.09C61.8676 23.126 61.8496 23.162 61.8256 23.198L59.2336 27.14L62.2036 31.442C62.2636 31.514 62.2936 31.592 62.2936 31.676C62.2936 31.772 62.2576 31.85 62.1856 31.91C62.1136 31.97 62.0236 32 61.9156 32H60.0976C59.9776 32 59.8756 31.976 59.7916 31.928C59.7196 31.88 59.6536 31.814 59.5936 31.73L57.2176 28.202H55.9216V31.568C55.9216 31.688 55.8796 31.79 55.7956 31.874C55.7116 31.958 55.6096 32 55.4896 32H54.0136ZM71.758 32.18C71.002 32.18 70.36 32.09 69.832 31.91C69.316 31.73 68.902 31.496 68.59 31.208C68.278 30.92 68.044 30.608 67.888 30.272C67.732 29.936 67.642 29.618 67.618 29.318C67.594 29.21 67.618 29.126 67.69 29.066C67.774 28.994 67.864 28.958 67.96 28.958H69.4C69.544 28.958 69.64 28.988 69.688 29.048C69.748 29.096 69.802 29.168 69.85 29.264C70.03 29.696 70.276 30.002 70.588 30.182C70.9 30.362 71.29 30.452 71.758 30.452C72.37 30.452 72.856 30.272 73.216 29.912C73.576 29.552 73.768 28.976 73.792 28.184V28.094H70.75C70.63 28.094 70.534 28.058 70.462 27.986C70.39 27.902 70.354 27.806 70.354 27.698V26.942C70.354 26.834 70.39 26.744 70.462 26.672C70.534 26.588 70.63 26.546 70.75 26.546H73.792V26.438C73.768 25.682 73.576 25.124 73.216 24.764C72.856 24.392 72.37 24.206 71.758 24.206C71.302 24.206 70.912 24.296 70.588 24.476C70.276 24.644 70.03 24.95 69.85 25.394C69.79 25.502 69.73 25.58 69.67 25.628C69.622 25.676 69.526 25.7 69.382 25.7H67.996C67.9 25.7 67.81 25.67 67.726 25.61C67.654 25.538 67.624 25.448 67.636 25.34C67.672 25.04 67.768 24.722 67.924 24.386C68.08 24.05 68.314 23.738 68.626 23.45C68.938 23.162 69.352 22.928 69.868 22.748C70.384 22.556 71.014 22.46 71.758 22.46C73.15 22.46 74.23 22.82 74.998 23.54C75.778 24.248 76.192 25.25 76.24 26.546C76.264 26.762 76.276 27.02 76.276 27.32C76.276 27.62 76.264 27.878 76.24 28.094C76.192 29.39 75.79 30.398 75.034 31.118C74.278 31.826 73.186 32.18 71.758 32.18ZM81.1936 32C81.0616 32 80.9536 31.958 80.8696 31.874C80.7976 31.79 80.7616 31.688 80.7616 31.568V24.548H77.8276C77.6956 24.548 77.5876 24.506 77.5036 24.422C77.4316 24.338 77.3956 24.236 77.3956 24.116V23.072C77.3956 22.952 77.4316 22.85 77.5036 22.766C77.5876 22.682 77.6956 22.64 77.8276 22.64H85.9996C86.1316 22.64 86.2396 22.682 86.3236 22.766C86.4076 22.85 86.4496 22.952 86.4496 23.072V24.116C86.4496 24.236 86.4076 24.338 86.3236 24.422C86.2396 24.506 86.1316 24.548 85.9996 24.548H83.0836V31.568C83.0836 31.688 83.0416 31.79 82.9576 31.874C82.8736 31.958 82.7716 32 82.6516 32H81.1936ZM92.0165 32.18C91.0565 32.18 90.2465 32.012 89.5865 31.676C88.9385 31.34 88.4405 30.866 88.0925 30.254C87.7565 29.642 87.5645 28.928 87.5165 28.112C87.5045 27.896 87.4985 27.632 87.4985 27.32C87.4985 27.008 87.5045 26.744 87.5165 26.528C87.5645 25.7 87.7625 24.986 88.1105 24.386C88.4705 23.774 88.9745 23.3 89.6225 22.964C90.2825 22.628 91.0805 22.46 92.0165 22.46C92.9525 22.46 93.7445 22.628 94.3925 22.964C95.0525 23.3 95.5565 23.774 95.9045 24.386C96.2645 24.986 96.4685 25.7 96.5165 26.528C96.5285 26.744 96.5345 27.008 96.5345 27.32C96.5345 27.632 96.5285 27.896 96.5165 28.112C96.4685 28.928 96.2705 29.642 95.9225 30.254C95.5865 30.866 95.0885 31.34 94.4285 31.676C93.7805 32.012 92.9765 32.18 92.0165 32.18ZM92.0165 30.398C92.6525 30.398 93.1445 30.2 93.4925 29.804C93.8405 29.396 94.0325 28.802 94.0685 28.022C94.0805 27.842 94.0865 27.608 94.0865 27.32C94.0865 27.032 94.0805 26.798 94.0685 26.618C94.0325 25.85 93.8405 25.262 93.4925 24.854C93.1445 24.446 92.6525 24.242 92.0165 24.242C91.3805 24.242 90.8885 24.446 90.5405 24.854C90.1925 25.262 90.0005 25.85 89.9645 26.618C89.9525 26.798 89.9465 27.032 89.9465 27.32C89.9465 27.608 89.9525 27.842 89.9645 28.022C90.0005 28.802 90.1925 29.396 90.5405 29.804C90.8885 30.2 91.3805 30.398 92.0165 30.398ZM103.092 35.42C102.972 35.42 102.87 35.378 102.786 35.294C102.702 35.21 102.66 35.108 102.66 34.988V23.072C102.66 22.952 102.702 22.85 102.786 22.766C102.87 22.682 102.972 22.64 103.092 22.64H104.514C104.646 22.64 104.748 22.682 104.82 22.766C104.904 22.85 104.946 22.952 104.946 23.072V23.792C105.234 23.408 105.612 23.09 106.08 22.838C106.548 22.586 107.13 22.46 107.826 22.46C108.462 22.46 109.014 22.562 109.482 22.766C109.95 22.97 110.34 23.264 110.652 23.648C110.964 24.02 111.204 24.464 111.372 24.98C111.54 25.496 111.636 26.066 111.66 26.69C111.672 26.894 111.678 27.104 111.678 27.32C111.678 27.536 111.672 27.752 111.66 27.968C111.648 28.568 111.558 29.126 111.39 29.642C111.222 30.146 110.976 30.59 110.652 30.974C110.34 31.346 109.95 31.64 109.482 31.856C109.014 32.072 108.462 32.18 107.826 32.18C107.178 32.18 106.626 32.066 106.17 31.838C105.714 31.598 105.342 31.286 105.054 30.902V34.988C105.054 35.108 105.012 35.21 104.928 35.294C104.856 35.378 104.754 35.42 104.622 35.42H103.092ZM107.16 30.254C107.676 30.254 108.078 30.146 108.366 29.93C108.654 29.702 108.858 29.408 108.978 29.048C109.11 28.688 109.188 28.292 109.212 27.86C109.236 27.5 109.236 27.14 109.212 26.78C109.188 26.348 109.11 25.952 108.978 25.592C108.858 25.232 108.654 24.944 108.366 24.728C108.078 24.5 107.676 24.386 107.16 24.386C106.668 24.386 106.266 24.5 105.954 24.728C105.654 24.956 105.432 25.25 105.288 25.61C105.156 25.958 105.078 26.318 105.054 26.69C105.042 26.906 105.036 27.134 105.036 27.374C105.036 27.614 105.042 27.848 105.054 28.076C105.066 28.436 105.15 28.784 105.306 29.12C105.462 29.444 105.69 29.714 105.99 29.93C106.29 30.146 106.68 30.254 107.16 30.254ZM116.417 32.18C115.793 32.18 115.229 32.06 114.725 31.82C114.221 31.568 113.819 31.238 113.519 30.83C113.231 30.41 113.087 29.942 113.087 29.426C113.087 28.586 113.423 27.92 114.095 27.428C114.779 26.924 115.679 26.588 116.795 26.42L119.261 26.06V25.682C119.261 25.178 119.135 24.788 118.883 24.512C118.631 24.236 118.199 24.098 117.587 24.098C117.155 24.098 116.801 24.188 116.525 24.368C116.261 24.536 116.063 24.764 115.931 25.052C115.835 25.208 115.697 25.286 115.517 25.286H114.095C113.963 25.286 113.861 25.25 113.789 25.178C113.729 25.106 113.699 25.01 113.699 24.89C113.711 24.698 113.789 24.464 113.933 24.188C114.077 23.912 114.305 23.648 114.617 23.396C114.929 23.132 115.331 22.91 115.823 22.73C116.315 22.55 116.909 22.46 117.605 22.46C118.361 22.46 118.997 22.556 119.513 22.748C120.041 22.928 120.461 23.174 120.773 23.486C121.085 23.798 121.313 24.164 121.457 24.584C121.601 25.004 121.673 25.448 121.673 25.916V31.568C121.673 31.688 121.631 31.79 121.547 31.874C121.463 31.958 121.361 32 121.241 32H119.783C119.651 32 119.543 31.958 119.459 31.874C119.387 31.79 119.351 31.688 119.351 31.568V30.866C119.195 31.094 118.985 31.31 118.721 31.514C118.457 31.706 118.133 31.868 117.749 32C117.377 32.12 116.933 32.18 116.417 32.18ZM117.029 30.47C117.449 30.47 117.827 30.38 118.163 30.2C118.511 30.02 118.781 29.744 118.973 29.372C119.177 28.988 119.279 28.508 119.279 27.932V27.554L117.479 27.842C116.771 27.95 116.243 28.124 115.895 28.364C115.547 28.604 115.373 28.898 115.373 29.246C115.373 29.51 115.451 29.738 115.607 29.93C115.775 30.11 115.985 30.248 116.237 30.344C116.489 30.428 116.753 30.47 117.029 30.47ZM128.212 32.18C127.216 32.18 126.388 32.006 125.728 31.658C125.08 31.298 124.594 30.776 124.27 30.092C123.946 29.408 123.76 28.574 123.712 27.59C123.712 27.242 123.712 26.882 123.712 26.51C123.712 26.138 123.712 25.778 123.712 25.43C123.736 24.374 123.838 23.498 124.018 22.802C124.21 22.094 124.492 21.512 124.864 21.056C125.236 20.588 125.716 20.204 126.304 19.904C126.892 19.592 127.588 19.322 128.392 19.094C129.196 18.866 130.126 18.626 131.182 18.374C131.302 18.35 131.41 18.368 131.506 18.428C131.614 18.488 131.674 18.584 131.686 18.716L131.92 19.904C131.944 20.024 131.926 20.132 131.866 20.228C131.806 20.312 131.722 20.366 131.614 20.39C130.702 20.594 129.916 20.78 129.256 20.948C128.596 21.104 128.05 21.284 127.618 21.488C127.186 21.692 126.844 21.962 126.592 22.298C126.352 22.622 126.184 23.048 126.088 23.576C125.992 24.104 125.962 24.782 125.998 25.61L125.584 25.268C125.656 24.896 125.842 24.554 126.142 24.242C126.442 23.93 126.808 23.684 127.24 23.504C127.684 23.312 128.152 23.216 128.644 23.216C129.508 23.216 130.234 23.378 130.822 23.702C131.41 24.026 131.86 24.482 132.172 25.07C132.496 25.646 132.676 26.324 132.712 27.104C132.736 27.536 132.736 27.932 132.712 28.292C132.676 29.06 132.484 29.738 132.136 30.326C131.788 30.914 131.29 31.37 130.642 31.694C129.994 32.018 129.184 32.18 128.212 32.18ZM128.212 30.524C128.86 30.524 129.358 30.326 129.706 29.93C130.054 29.534 130.24 28.958 130.264 28.202C130.276 28.07 130.282 27.914 130.282 27.734C130.282 27.542 130.276 27.362 130.264 27.194C130.24 26.438 130.054 25.862 129.706 25.466C129.37 25.07 128.92 24.872 128.356 24.872C127.708 24.872 127.186 25.07 126.79 25.466C126.406 25.862 126.202 26.438 126.178 27.194C126.166 27.362 126.16 27.542 126.16 27.734C126.16 27.914 126.166 28.07 126.178 28.202C126.202 28.958 126.388 29.534 126.736 29.93C127.084 30.326 127.576 30.524 128.212 30.524ZM138.862 32.18C137.902 32.18 137.092 32.012 136.432 31.676C135.784 31.34 135.286 30.866 134.938 30.254C134.602 29.642 134.41 28.928 134.362 28.112C134.35 27.896 134.344 27.632 134.344 27.32C134.344 27.008 134.35 26.744 134.362 26.528C134.41 25.7 134.608 24.986 134.956 24.386C135.316 23.774 135.82 23.3 136.468 22.964C137.128 22.628 137.926 22.46 138.862 22.46C139.798 22.46 140.59 22.628 141.238 22.964C141.898 23.3 142.402 23.774 142.75 24.386C143.11 24.986 143.314 25.7 143.362 26.528C143.374 26.744 143.38 27.008 143.38 27.32C143.38 27.632 143.374 27.896 143.362 28.112C143.314 28.928 143.116 29.642 142.768 30.254C142.432 30.866 141.934 31.34 141.274 31.676C140.626 32.012 139.822 32.18 138.862 32.18ZM138.862 30.398C139.498 30.398 139.99 30.2 140.338 29.804C140.686 29.396 140.878 28.802 140.914 28.022C140.926 27.842 140.932 27.608 140.932 27.32C140.932 27.032 140.926 26.798 140.914 26.618C140.878 25.85 140.686 25.262 140.338 24.854C139.99 24.446 139.498 24.242 138.862 24.242C138.226 24.242 137.734 24.446 137.386 24.854C137.038 25.262 136.846 25.85 136.81 26.618C136.798 26.798 136.792 27.032 136.792 27.32C136.792 27.608 136.798 27.842 136.81 28.022C136.846 28.802 137.038 29.396 137.386 29.804C137.734 30.2 138.226 30.398 138.862 30.398ZM148.237 32C148.105 32 147.997 31.958 147.913 31.874C147.841 31.79 147.805 31.688 147.805 31.568V24.548H144.871C144.739 24.548 144.631 24.506 144.547 24.422C144.475 24.338 144.439 24.236 144.439 24.116V23.072C144.439 22.952 144.475 22.85 144.547 22.766C144.631 22.682 144.739 22.64 144.871 22.64H153.043C153.175 22.64 153.283 22.682 153.367 22.766C153.451 22.85 153.493 22.952 153.493 23.072V24.116C153.493 24.236 153.451 24.338 153.367 24.422C153.283 24.506 153.175 24.548 153.043 24.548H150.127V31.568C150.127 31.688 150.085 31.79 150.001 31.874C149.917 31.958 149.815 32 149.695 32H148.237ZM157.637 32.18C157.013 32.18 156.449 32.06 155.945 31.82C155.441 31.568 155.039 31.238 154.739 30.83C154.451 30.41 154.307 29.942 154.307 29.426C154.307 28.586 154.643 27.92 155.315 27.428C155.999 26.924 156.899 26.588 158.015 26.42L160.481 26.06V25.682C160.481 25.178 160.355 24.788 160.103 24.512C159.851 24.236 159.419 24.098 158.807 24.098C158.375 24.098 158.021 24.188 157.745 24.368C157.481 24.536 157.283 24.764 157.151 25.052C157.055 25.208 156.917 25.286 156.737 25.286H155.315C155.183 25.286 155.081 25.25 155.009 25.178C154.949 25.106 154.919 25.01 154.919 24.89C154.931 24.698 155.009 24.464 155.153 24.188C155.297 23.912 155.525 23.648 155.837 23.396C156.149 23.132 156.551 22.91 157.043 22.73C157.535 22.55 158.129 22.46 158.825 22.46C159.581 22.46 160.217 22.556 160.733 22.748C161.261 22.928 161.681 23.174 161.993 23.486C162.305 23.798 162.533 24.164 162.677 24.584C162.821 25.004 162.893 25.448 162.893 25.916V31.568C162.893 31.688 162.851 31.79 162.767 31.874C162.683 31.958 162.581 32 162.461 32H161.003C160.871 32 160.763 31.958 160.679 31.874C160.607 31.79 160.571 31.688 160.571 31.568V30.866C160.415 31.094 160.205 31.31 159.941 31.514C159.677 31.706 159.353 31.868 158.969 32C158.597 32.12 158.153 32.18 157.637 32.18ZM158.249 30.47C158.669 30.47 159.047 30.38 159.383 30.2C159.731 30.02 160.001 29.744 160.193 29.372C160.397 28.988 160.499 28.508 160.499 27.932V27.554L158.699 27.842C157.991 27.95 157.463 28.124 157.115 28.364C156.767 28.604 156.593 28.898 156.593 29.246C156.593 29.51 156.671 29.738 156.827 29.93C156.995 30.11 157.205 30.248 157.457 30.344C157.709 30.428 157.973 30.47 158.249 30.47ZM169.235 32.18C167.903 32.18 166.847 31.796 166.067 31.028C165.287 30.26 164.867 29.168 164.807 27.752C164.795 27.632 164.789 27.482 164.789 27.302C164.789 27.11 164.795 26.96 164.807 26.852C164.855 25.952 165.059 25.172 165.419 24.512C165.791 23.852 166.301 23.348 166.949 23C167.597 22.64 168.359 22.46 169.235 22.46C170.207 22.46 171.023 22.664 171.683 23.072C172.343 23.468 172.841 24.026 173.177 24.746C173.513 25.454 173.681 26.276 173.681 27.212V27.59C173.681 27.71 173.639 27.812 173.555 27.896C173.471 27.98 173.363 28.022 173.231 28.022H167.255C167.255 28.022 167.255 28.04 167.255 28.076C167.255 28.112 167.255 28.142 167.255 28.166C167.267 28.586 167.345 28.976 167.489 29.336C167.645 29.684 167.867 29.966 168.155 30.182C168.455 30.398 168.809 30.506 169.217 30.506C169.553 30.506 169.835 30.458 170.063 30.362C170.291 30.254 170.477 30.134 170.621 30.002C170.765 29.87 170.867 29.762 170.927 29.678C171.035 29.534 171.119 29.45 171.179 29.426C171.251 29.39 171.353 29.372 171.485 29.372H173.033C173.153 29.372 173.249 29.408 173.321 29.48C173.405 29.552 173.441 29.642 173.429 29.75C173.417 29.942 173.315 30.176 173.123 30.452C172.943 30.728 172.679 30.998 172.331 31.262C171.983 31.526 171.545 31.748 171.017 31.928C170.501 32.096 169.907 32.18 169.235 32.18ZM167.255 26.51H171.233V26.456C171.233 25.988 171.155 25.58 170.999 25.232C170.843 24.884 170.615 24.608 170.315 24.404C170.015 24.2 169.655 24.098 169.235 24.098C168.815 24.098 168.455 24.2 168.155 24.404C167.855 24.608 167.627 24.884 167.471 25.232C167.327 25.58 167.255 25.988 167.255 26.456V26.51ZM178.453 32C178.321 32 178.213 31.958 178.129 31.874C178.057 31.79 178.021 31.688 178.021 31.568V24.548H175.087C174.955 24.548 174.847 24.506 174.763 24.422C174.691 24.338 174.655 24.236 174.655 24.116V23.072C174.655 22.952 174.691 22.85 174.763 22.766C174.847 22.682 174.955 22.64 175.087 22.64H183.259C183.391 22.64 183.499 22.682 183.583 22.766C183.667 22.85 183.709 22.952 183.709 23.072V24.116C183.709 24.236 183.667 24.338 183.583 24.422C183.499 24.506 183.391 24.548 183.259 24.548H180.343V31.568C180.343 31.688 180.301 31.79 180.217 31.874C180.133 31.958 180.031 32 179.911 32H178.453Z" fill="white"/>
<defs>
<radialGradient id="paint0_radial_203_5" cx="0" cy="0" r="1" gradientUnits="userSpaceOnUse" gradientTransform="translate(107.398 51) rotate(-90) scale(51 187.641)">
<stop offset="4.59912e-10" stop-color="#0084FF"/>
<stop offset="1" stop-color="#5CB0FF"/>
</radialGradient>
</defs>
</svg>
