<svg width="69" height="86" viewBox="0 0 69 86" fill="none" xmlns="http://www.w3.org/2000/svg">
<path d="M28.44 21.6C35.064 21.6 40.176 22.776 43.776 25.128C47.424 27.432 49.248 30.624 49.248 34.704C49.248 37.392 48.408 39.72 46.728 41.688C45.048 43.656 42.744 45.096 39.816 46.008V46.368C43.272 47.184 46.008 48.648 48.024 50.76C50.04 52.872 51.048 55.344 51.048 58.176C51.048 60.96 50.184 63.384 48.456 65.448C46.776 67.512 44.304 69.12 41.04 70.272C37.824 71.424 33.96 72 29.448 72H5.976V21.6H28.44ZM28.152 43.344C30.216 43.344 31.776 42.72 32.832 41.472C33.888 40.224 34.416 38.4 34.416 36C34.416 33.6 33.84 31.776 32.688 30.528C31.584 29.28 29.976 28.656 27.864 28.656H21.384V43.344H28.152ZM27.792 64.944C30.24 64.944 32.112 64.32 33.408 63.072C34.704 61.776 35.352 59.928 35.352 57.528C35.352 55.128 34.704 53.28 33.408 51.984C32.112 50.688 30.216 50.04 27.72 50.04H21.384V64.944H27.792Z" fill="white"/>
<circle cx="64" cy="17" r="5" fill="white"/>
</svg>
