<svg width="25" height="25" viewBox="0 0 25 25" fill="none" xmlns="http://www.w3.org/2000/svg">
<path d="M0 12.7137C0 12.032 0.418006 11.4687 0.96034 11.3795L1.11111 11.3672L20.643 11.3683L13.5867 2.85233C13.1518 2.32763 13.1503 1.4751 13.5833 0.948148C13.9769 0.469096 14.5941 0.424028 15.0298 0.814002L15.1546 0.944047L24.1176 11.7588C24.1749 11.828 24.2247 11.9028 24.267 11.9819C24.2789 12.0057 24.2911 12.03 24.3026 12.0548C24.3132 12.0761 24.3227 12.0982 24.3318 12.1206C24.3443 12.1531 24.3566 12.1867 24.3677 12.2209C24.3767 12.2474 24.3843 12.2731 24.3912 12.299C24.3994 12.3311 24.4073 12.3653 24.4142 12.4001C24.4192 12.4244 24.4233 12.4477 24.4268 12.4712C24.4317 12.506 24.4359 12.5421 24.4389 12.5787C24.4415 12.6065 24.4431 12.6341 24.4439 12.6618C24.4442 12.6785 24.4444 12.6961 24.4444 12.7137L24.4439 12.7658C24.443 12.7923 24.4415 12.8187 24.4394 12.845L24.4444 12.7137C24.4444 12.7986 24.438 12.8818 24.4255 12.9624C24.4226 12.9816 24.4192 13.0014 24.4154 13.0211C24.4075 13.0616 24.3984 13.1006 24.3879 13.1389C24.3827 13.1579 24.3767 13.1782 24.3703 13.1984C24.3573 13.2389 24.3432 13.2775 24.3277 13.3151C24.3205 13.3328 24.3124 13.3514 24.3039 13.3697C24.2901 13.3996 24.2758 13.428 24.2606 13.4557C24.25 13.4753 24.2381 13.4957 24.2258 13.5158L24.2162 13.5313C24.1863 13.5787 24.1538 13.6236 24.119 13.6658L24.1177 13.667L15.1547 24.4836C14.7199 25.0083 14.0164 25.0065 13.5834 24.4796C13.1897 24.0006 13.1551 23.2525 13.4788 22.7262L13.5866 22.5755L20.64 14.0612L1.11111 14.0601C0.497461 14.0601 0 13.4573 0 12.7137Z"/>
</svg>
