<svg width="20" height="20" viewBox="0 0 20 20" fill="none" xmlns="http://www.w3.org/2000/svg">
<path fill-rule="evenodd" clip-rule="evenodd" d="M13.3333 3.33415H6.66663C4.82568 3.33415 3.33329 4.82653 3.33329 6.66748V13.3341C3.33329 15.1751 4.82568 16.6675 6.66663 16.6675H13.3333C15.1742 16.6675 16.6666 15.1751 16.6666 13.3341V6.66748C16.6666 4.82653 15.1742 3.33415 13.3333 3.33415ZM6.66663 1.66748C3.9052 1.66748 1.66663 3.90606 1.66663 6.66748V13.3341C1.66663 16.0956 3.9052 18.3341 6.66663 18.3341H13.3333C16.0947 18.3341 18.3333 16.0956 18.3333 13.3341V6.66748C18.3333 3.90606 16.0947 1.66748 13.3333 1.66748H6.66663Z" fill="#777E91"/>
<path d="M14.1667 6.66764C14.627 6.66764 15 6.29454 15 5.83431C15 5.37408 14.627 5.00098 14.1667 5.00098C13.7065 5.00098 13.3334 5.37408 13.3334 5.83431C13.3334 6.29454 13.7065 6.66764 14.1667 6.66764Z" fill="#777E91"/>
<path fill-rule="evenodd" clip-rule="evenodd" d="M14.1667 10.0011C14.1667 12.3023 12.3012 14.1678 10 14.1678C7.69886 14.1678 5.83337 12.3023 5.83337 10.0011C5.83337 7.69996 7.69886 5.83447 10 5.83447C12.3012 5.83447 14.1667 7.69996 14.1667 10.0011ZM12.5 10.0011C12.5 11.3819 11.3808 12.5011 10 12.5011C8.61929 12.5011 7.50004 11.3819 7.50004 10.0011C7.50004 8.62039 8.61929 7.50114 10 7.50114C11.3808 7.50114 12.5 8.62039 12.5 10.0011Z" fill="#777E91"/>
</svg>
