<svg width="209" height="42" viewBox="0 0 209 42" fill="none" xmlns="http://www.w3.org/2000/svg">
<path d="M187 14.5633V10L209 25.9812H197.027L190.827 21.7296C189.645 20.9181 188.68 19.844 188.014 18.5972C187.349 17.3504 187.001 15.9672 187 14.5633ZM190.891 30.166L197.027 25.9812H209L187 42V37.4279C187 36.0039 187.354 34.6008 188.031 33.337C188.708 32.0731 189.689 30.9856 190.891 30.166Z" fill="white"/>
<path d="M22 14.5633V10L0 25.9811H11.9728L18.1732 21.7296C19.3555 20.9181 20.3199 19.844 20.9857 18.5972C21.6515 17.3504 21.9993 15.9672 22 14.5633ZM18.1088 30.166L11.9728 25.9811H0L22 42V37.4279C21.9998 36.0039 21.6461 34.6008 20.9689 33.337C20.2917 32.0731 19.3108 30.9856 18.1088 30.166Z" fill="white"/>
<path d="M46.92 39.48C44.7067 39.48 42.6533 39.12 40.76 38.4C38.8933 37.68 37.2667 36.6667 35.88 35.36C34.52 34.0533 33.4533 32.52 32.68 30.76C31.9333 29 31.56 27.08 31.56 25C31.56 22.92 31.9333 21 32.68 19.24C33.4533 17.48 34.5333 15.9467 35.92 14.64C37.3067 13.3333 38.9333 12.32 40.8 11.6C42.6667 10.88 44.6933 10.52 46.88 10.52C49.0933 10.52 51.12 10.88 52.96 11.6C54.8267 12.32 56.44 13.3333 57.8 14.64C59.1867 15.9467 60.2667 17.48 61.04 19.24C61.8133 20.9733 62.2 22.8933 62.2 25C62.2 27.08 61.8133 29.0133 61.04 30.8C60.2667 32.56 59.1867 34.0933 57.8 35.4C56.44 36.68 54.8267 37.68 52.96 38.4C51.12 39.12 49.1067 39.48 46.92 39.48ZM46.88 33.96C48.1333 33.96 49.28 33.7467 50.32 33.32C51.3867 32.8933 52.32 32.28 53.12 31.48C53.92 30.68 54.5333 29.7333 54.96 28.64C55.4133 27.5467 55.64 26.3333 55.64 25C55.64 23.6667 55.4133 22.4533 54.96 21.36C54.5333 20.2667 53.92 19.32 53.12 18.52C52.3467 17.72 51.4267 17.1067 50.36 16.68C49.2933 16.2533 48.1333 16.04 46.88 16.04C45.6267 16.04 44.4667 16.2533 43.4 16.68C42.36 17.1067 41.44 17.72 40.64 18.52C39.84 19.32 39.2133 20.2667 38.76 21.36C38.3333 22.4533 38.12 23.6667 38.12 25C38.12 26.3067 38.3333 27.52 38.76 28.64C39.2133 29.7333 39.8267 30.68 40.6 31.48C41.4 32.28 42.3333 32.8933 43.4 33.32C44.4667 33.7467 45.6267 33.96 46.88 33.96ZM67.07 39V11H79.19C81.6967 11 83.8567 11.4133 85.67 12.24C87.4833 13.04 88.8833 14.2 89.87 15.72C90.8567 17.24 91.35 19.0533 91.35 21.16C91.35 23.24 90.8567 25.04 89.87 26.56C88.8833 28.0533 87.4833 29.2 85.67 30C83.8567 30.8 81.6967 31.2 79.19 31.2H70.67L73.55 28.36V39H67.07ZM84.87 39L77.87 28.84H84.79L91.87 39H84.87ZM73.55 29.08L70.67 26.04H78.83C80.83 26.04 82.3233 25.6133 83.31 24.76C84.2967 23.88 84.79 22.68 84.79 21.16C84.79 19.6133 84.2967 18.4133 83.31 17.56C82.3233 16.7067 80.83 16.28 78.83 16.28H70.67L73.55 13.2V29.08ZM109.884 39.48C107.724 39.48 105.711 39.1333 103.844 38.44C102.004 37.72 100.404 36.7067 99.0441 35.4C97.6841 34.0933 96.6174 32.56 95.8441 30.8C95.0974 29.04 94.7241 27.1067 94.7241 25C94.7241 22.8933 95.0974 20.96 95.8441 19.2C96.6174 17.44 97.6841 15.9067 99.0441 14.6C100.431 13.2933 102.044 12.2933 103.884 11.6C105.724 10.88 107.737 10.52 109.924 10.52C112.351 10.52 114.537 10.9467 116.484 11.8C118.457 12.6267 120.111 13.8533 121.444 15.48L117.284 19.32C116.324 18.2267 115.257 17.4133 114.084 16.88C112.911 16.32 111.631 16.04 110.244 16.04C108.937 16.04 107.737 16.2533 106.644 16.68C105.551 17.1067 104.604 17.72 103.804 18.52C103.004 19.32 102.377 20.2667 101.924 21.36C101.497 22.4533 101.284 23.6667 101.284 25C101.284 26.3333 101.497 27.5467 101.924 28.64C102.377 29.7333 103.004 30.68 103.804 31.48C104.604 32.28 105.551 32.8933 106.644 33.32C107.737 33.7467 108.937 33.96 110.244 33.96C111.631 33.96 112.911 33.6933 114.084 33.16C115.257 32.6 116.324 31.76 117.284 30.64L121.444 34.48C120.111 36.1067 118.457 37.3467 116.484 38.2C114.537 39.0533 112.337 39.48 109.884 39.48ZM138.104 39.48C134.13 39.48 131.024 38.3733 128.784 36.16C126.544 33.9467 125.424 30.7867 125.424 26.68V11H131.904V26.44C131.904 29.1067 132.45 31.0267 133.544 32.2C134.637 33.3733 136.17 33.96 138.144 33.96C140.117 33.96 141.65 33.3733 142.744 32.2C143.837 31.0267 144.384 29.1067 144.384 26.44V11H150.784V26.68C150.784 30.7867 149.664 33.9467 147.424 36.16C145.184 38.3733 142.077 39.48 138.104 39.48ZM166.387 39.48C164.147 39.48 162.001 39.1867 159.947 38.6C157.894 37.9867 156.241 37.2 154.987 36.24L157.187 31.36C158.387 32.2133 159.801 32.92 161.427 33.48C163.081 34.0133 164.747 34.28 166.427 34.28C167.707 34.28 168.734 34.16 169.507 33.92C170.307 33.6533 170.894 33.2933 171.267 32.84C171.641 32.3867 171.827 31.8667 171.827 31.28C171.827 30.5333 171.534 29.9467 170.947 29.52C170.361 29.0667 169.587 28.7067 168.627 28.44C167.667 28.1467 166.601 27.88 165.427 27.64C164.281 27.3733 163.121 27.0533 161.947 26.68C160.801 26.3067 159.747 25.8267 158.787 25.24C157.827 24.6533 157.041 23.88 156.427 22.92C155.841 21.96 155.547 20.7333 155.547 19.24C155.547 17.64 155.974 16.1867 156.827 14.88C157.707 13.5467 159.014 12.4933 160.747 11.72C162.507 10.92 164.707 10.52 167.347 10.52C169.107 10.52 170.841 10.7333 172.547 11.16C174.254 11.56 175.761 12.1733 177.067 13L175.067 17.92C173.761 17.1733 172.454 16.6267 171.147 16.28C169.841 15.9067 168.561 15.72 167.307 15.72C166.054 15.72 165.027 15.8667 164.227 16.16C163.427 16.4533 162.854 16.84 162.507 17.32C162.161 17.7733 161.987 18.3067 161.987 18.92C161.987 19.64 162.281 20.2267 162.867 20.68C163.454 21.1067 164.227 21.4533 165.187 21.72C166.147 21.9867 167.201 22.2533 168.347 22.52C169.521 22.7867 170.681 23.0933 171.827 23.44C173.001 23.7867 174.067 24.2533 175.027 24.84C175.987 25.4267 176.761 26.2 177.347 27.16C177.961 28.12 178.267 29.3333 178.267 30.8C178.267 32.3733 177.827 33.8133 176.947 35.12C176.067 36.4267 174.747 37.48 172.987 38.28C171.254 39.08 169.054 39.48 166.387 39.48Z" fill="white"/>
</svg>
