<svg width="112" height="69" viewBox="0 0 112 69" fill="none" xmlns="http://www.w3.org/2000/svg">
<path d="M49.6473 40.2463C49.4329 40.2057 49.2126 40.1477 48.9866 40.078C48.7374 39.9968 48.5114 39.8981 48.3028 39.7763C48.0942 39.6544 47.9261 39.5035 47.8044 39.3294C47.6306 39.1031 47.5147 38.7665 47.4625 38.3254C47.4104 37.8844 47.3756 37.4143 47.3582 36.9036C47.3408 36.3233 47.3292 35.6269 47.3292 34.8202V32.2145C47.3814 32.0752 47.4278 31.9707 47.4741 31.9127C47.5205 31.8489 47.6074 31.8198 47.7523 31.8198C47.874 31.8198 48.0189 31.8837 48.1869 32.0056C48.355 32.1274 48.6621 32.4466 49.1199 32.9515C50.2094 34.147 51.2525 35.3251 52.2608 36.4974C53.2692 37.6638 56.3348 40.8267 57.4532 42.1266C57.5575 42.2485 57.656 42.3413 57.743 42.4052C57.8299 42.469 57.911 42.5154 57.9806 42.5503H63.8973V42.2891C63.4047 42.2543 62.9643 42.1905 62.5702 42.1034C62.1762 42.0164 61.8632 41.9293 61.6372 41.8423C61.5851 41.8248 61.4808 41.7552 61.3243 41.6333C61.1678 41.5115 58.9831 39.4339 58.7745 39.2714C58.5658 39.1031 58.3456 38.9174 58.1138 38.7026C57.8878 38.4937 57.685 38.279 57.5112 38.0701C56.7752 37.246 56.0044 36.3871 55.2105 35.4876C54.4108 34.5939 53.6632 33.7466 52.962 32.9573C52.2608 32.168 51.6524 31.4774 51.1482 30.8913C50.6382 30.3052 50.3137 29.9221 50.1746 29.7422C50.4702 29.4289 50.8005 29.0865 51.1598 28.7266C51.5191 28.3668 51.89 27.9954 52.2666 27.6066C52.6433 27.2178 53.0258 26.8347 53.4083 26.4459C53.7965 26.0571 54.1732 25.6973 54.5383 25.3665C55.4829 24.4902 56.4159 23.7125 57.3257 23.0452C58.2355 22.3778 59.1396 22.0005 60.0378 21.9135V21.6523H52.9852V21.9135C53.443 21.9831 53.8429 22.134 54.1964 22.3604C54.5441 22.5867 54.7237 22.9581 54.7237 23.4688C54.7237 23.7706 54.602 24.1014 54.3702 24.4728C54.1326 24.8384 53.8661 25.204 53.5705 25.5522C53.1475 26.0107 52.6491 26.5446 52.0696 27.1597C51.4901 27.7749 50.9048 28.3726 50.3195 28.953C49.7342 29.5333 49.1721 30.0556 48.6331 30.5199C48.1 30.9842 47.6712 31.3149 47.3582 31.5065V27.4209C47.3582 26.9624 47.3582 26.562 47.3698 26.208C47.3756 25.854 47.393 25.4768 47.4104 25.0763C47.4278 24.3393 47.5205 23.7706 47.6885 23.3643C47.8566 22.9581 48.0594 22.6563 48.3086 22.4532C48.552 22.2501 48.836 22.1224 49.1489 22.0586C49.4618 21.9947 49.7864 21.9483 50.1225 21.9135V21.6523H41.9688V21.9135C42.4266 21.9657 42.8265 22.0644 43.18 22.2037C43.5335 22.3429 43.829 22.5635 44.0724 22.8594C44.2637 23.1032 44.3854 23.5094 44.4259 24.0723C44.4723 24.6353 44.4897 25.2504 44.4897 25.9178V34.1354C44.4897 34.6287 44.4897 35.0813 44.4781 35.505C44.4665 35.9286 44.4665 36.2594 44.4665 36.509C44.4665 36.7875 44.4665 37.0835 44.4549 37.3911C44.4433 37.6987 44.4259 37.9888 44.4027 38.2616C44.3738 38.5343 44.339 38.7781 44.2811 38.987C44.2289 39.1959 44.1594 39.3526 44.0724 39.4629C43.8638 39.7066 43.5567 39.9039 43.151 40.0432C42.7454 40.1825 42.3281 40.287 41.8877 40.3624V40.6235H49.5545C49.5835 40.5017 49.6125 40.374 49.6473 40.2521" fill="url(#paint0_linear_1_396)"/>
<path d="M57.7837 32.6898C56.8565 32.9336 56.022 33.2644 55.286 33.6764C55.2396 33.7054 55.1933 33.7344 55.1411 33.7635C55.541 34.1523 55.935 34.5527 56.3233 34.9589C56.8275 34.4192 57.4012 33.9608 58.0502 33.5835C58.9948 33.038 60.0727 32.7653 61.2839 32.7653C62.1589 32.7653 62.9876 32.922 63.7699 33.2411C64.5523 33.5545 65.2535 33.9898 65.8736 34.5295C66.4936 35.075 67.0384 35.7134 67.4904 36.4504C67.9482 37.1874 68.2901 37.9767 68.5161 38.824L68.829 38.8008V32.8988H68.5393C68.435 33.0554 68.3191 33.2121 68.1974 33.363C68.0757 33.5139 67.954 33.6416 67.8439 33.7576C67.728 33.8737 67.6237 33.9666 67.5309 34.0478C67.4324 34.1291 67.3687 34.1697 67.3339 34.1697C67.2991 34.1697 67.1427 34.071 66.8587 33.8795C66.5805 33.688 66.1749 33.4733 65.6475 33.247C65.1202 33.0206 64.4654 32.8059 63.6714 32.6144C62.8775 32.4229 61.9619 32.3242 60.9072 32.3242C59.7482 32.3242 58.7051 32.4461 57.7779 32.6898" fill="url(#paint1_linear_1_396)"/>
<path d="M67.6121 47.6688C67.1832 48.3826 66.6559 49.0094 66.0358 49.5549C65.4158 50.1004 64.703 50.5415 63.9032 50.8723C63.1035 51.2031 62.2517 51.3714 61.336 51.3714C60.177 51.3714 59.1281 51.1334 58.1777 50.6576C57.2331 50.1817 56.4218 49.5375 55.7554 48.7192C55.089 47.901 54.5732 46.9434 54.2139 45.835C53.8546 44.7265 53.675 43.5426 53.675 42.2775C53.675 41.4824 53.7619 40.699 53.9126 39.9271C53.8894 39.9039 53.8604 39.8865 53.8372 39.8633C53.1013 39.0624 52.3653 38.2558 51.6467 37.4375C51.4844 37.7393 51.3338 38.0352 51.2121 38.3312C51.0093 38.8303 50.8528 39.312 50.7369 39.7646C50.621 40.2231 50.5457 40.6526 50.4993 41.0588C50.4529 41.465 50.4355 41.8248 50.4355 42.1382C50.4355 43.5601 50.6789 44.8658 51.1715 46.0497C51.6641 47.2336 52.3711 48.255 53.2867 49.1081C54.2081 49.9612 55.3266 50.6169 56.642 51.0812C57.9575 51.5455 59.4295 51.7776 61.0637 51.7776C62.043 51.7776 62.9123 51.6964 63.6656 51.5281C64.419 51.3598 65.0623 51.1683 65.5838 50.9477C66.1112 50.7272 66.511 50.5241 66.795 50.3442C67.0731 50.1585 67.2354 50.0656 67.2702 50.0656C67.3571 50.0656 67.5136 50.1875 67.7454 50.437C67.9714 50.6808 68.1916 50.9535 68.4002 51.2553H68.7189L68.7943 45.4578H68.4813C68.3249 46.2122 68.0293 46.9492 67.6005 47.6572" fill="url(#paint2_linear_1_396)"/>
<path d="M34.1861 36.8159C34.5628 36.7811 34.8409 36.4503 34.8062 36.0731C34.7714 35.6959 34.4411 35.4173 34.0644 35.4522C33.6877 35.487 33.4096 35.8178 33.4443 36.195C33.4733 36.549 33.7747 36.8218 34.1282 36.8218C34.1455 36.8218 34.1687 36.8218 34.1861 36.8218" fill="url(#paint3_linear_1_396)"/>
<path d="M34.0066 30.6645C34.3832 30.6645 34.6904 30.3569 34.6904 29.9797C34.6904 29.6025 34.3832 29.2949 34.0066 29.2949C33.6299 29.2949 33.3228 29.6025 33.3228 29.9797C33.3228 30.3569 33.6299 30.6645 34.0066 30.6645Z" fill="url(#paint4_linear_1_396)"/>
<path d="M34.0066 33.7465C34.3832 33.7465 34.6904 33.439 34.6904 33.0618C34.6904 32.6845 34.3832 32.377 34.0066 32.377C33.6299 32.377 33.3228 32.6845 33.3228 33.0618C33.3228 33.439 33.6299 33.7465 34.0066 33.7465Z" fill="url(#paint5_linear_1_396)"/>
<path d="M34.0066 24.5063C34.3832 24.5063 34.6904 24.1987 34.6904 23.8215C34.6904 23.4443 34.3832 23.1367 34.0066 23.1367C33.6299 23.1367 33.3228 23.4443 33.3228 23.8215C33.3228 24.1987 33.6299 24.5063 34.0066 24.5063Z" fill="url(#paint6_linear_1_396)"/>
<path d="M34.0066 27.5825C34.3832 27.5825 34.6904 27.2749 34.6904 26.8977C34.6904 26.5205 34.3832 26.2129 34.0066 26.2129C33.6299 26.2129 33.3228 26.5205 33.3228 26.8977C33.3228 27.2749 33.6299 27.5825 34.0066 27.5825Z" fill="url(#paint7_linear_1_396)"/>
<path d="M34.0066 21.4262C34.3832 21.4262 34.6904 21.1187 34.6904 20.7414C34.6904 20.3642 34.3832 20.0566 34.0066 20.0566C33.6299 20.0566 33.3228 20.3642 33.3228 20.7414C33.3228 21.1187 33.6299 21.4262 34.0066 21.4262Z" fill="url(#paint8_linear_1_396)"/>
<path d="M39.0773 51.2319C39.2048 51.2319 39.3323 51.1971 39.4482 51.1216C39.767 50.9185 39.8539 50.489 39.6511 50.1757C39.4424 49.8565 39.0194 49.7694 38.7065 49.9725C38.3877 50.1757 38.3008 50.5993 38.5036 50.9185C38.6369 51.1216 38.8513 51.2319 39.0773 51.2319Z" fill="url(#paint9_linear_1_396)"/>
<path d="M73.7663 48.4635C73.8301 48.4809 73.8938 48.4925 73.9576 48.4925C74.2531 48.4925 74.5255 48.2952 74.6124 47.9992C74.7167 47.6336 74.5081 47.2564 74.1488 47.1519C73.7895 47.0475 73.407 47.2564 73.3027 47.6162C73.1984 47.9818 73.407 48.359 73.7721 48.4635" fill="url(#paint10_linear_1_396)"/>
<path d="M35.2176 39.0554C35.1481 38.684 34.7888 38.4403 34.4179 38.5099C34.047 38.5796 33.8036 38.9394 33.8732 39.3108C33.9369 39.6416 34.2209 39.8679 34.5454 39.8679C34.586 39.8679 34.6265 39.8679 34.6729 39.8563C35.0438 39.7867 35.2872 39.4269 35.2176 39.0554Z" fill="url(#paint11_linear_1_396)"/>
<path d="M74.6241 44.7959C74.5197 45.1615 74.7284 45.5387 75.0877 45.6432C75.1514 45.6606 75.2151 45.6722 75.2789 45.6722C75.5744 45.6722 75.8468 45.4749 75.9337 45.1789C76.038 44.8133 75.8294 44.4361 75.4701 44.3316C75.1108 44.2271 74.7284 44.4361 74.6241 44.7959Z" fill="url(#paint12_linear_1_396)"/>
<path d="M37.2575 47.146C36.8924 47.2504 36.6838 47.6335 36.7881 47.9933C36.875 48.2892 37.1474 48.4866 37.4429 48.4866C37.5067 48.4866 37.5704 48.4807 37.6342 48.4575C37.9993 48.3531 38.2079 47.9701 38.0978 47.6102C37.9935 47.2446 37.611 47.0357 37.2517 47.1402" fill="url(#paint13_linear_1_396)"/>
<path d="M35.9131 41.9858C35.8088 41.6202 35.4263 41.417 35.0671 41.5215C34.702 41.626 34.4933 42.009 34.5977 42.3688C34.6846 42.6648 34.9569 42.8621 35.2525 42.8621C35.3162 42.8621 35.38 42.8505 35.4437 42.8331C35.8088 42.7286 36.0174 42.3456 35.9131 41.9858Z" fill="url(#paint14_linear_1_396)"/>
<path d="M36.1274 45.6728C36.1912 45.6728 36.2549 45.667 36.3187 45.6438C36.6838 45.5393 36.8924 45.1563 36.7823 44.7965C36.678 44.4309 36.2955 44.2219 35.9362 44.3322C35.5711 44.4367 35.3625 44.8197 35.4668 45.1795C35.5537 45.4813 35.8261 45.6728 36.1216 45.6728" fill="url(#paint15_linear_1_396)"/>
<path d="M33.3749 17.9148C33.3923 17.9554 33.4155 17.996 33.4387 18.0308C33.4618 18.0656 33.4908 18.1005 33.5256 18.1353C33.5546 18.1643 33.5893 18.1933 33.6299 18.2223C33.6647 18.2455 33.7052 18.2688 33.7458 18.2862C33.7864 18.3036 33.8327 18.3152 33.8733 18.3268C33.9196 18.3326 33.9602 18.3384 34.0066 18.3384C34.1862 18.3384 34.3659 18.263 34.4934 18.1353C34.5223 18.1005 34.5513 18.0656 34.5803 18.0308C34.6093 17.996 34.6266 17.9554 34.644 17.9148C34.6614 17.8741 34.673 17.8277 34.6846 17.7871C34.6904 17.7407 34.6962 17.7 34.6962 17.6536C34.6962 17.4737 34.6208 17.2938 34.4934 17.1719C34.3311 17.0152 34.0993 16.9398 33.8733 16.9862C33.8327 16.992 33.7864 17.0094 33.7458 17.0268C33.7052 17.0442 33.6647 17.0675 33.6299 17.0907C33.5893 17.1139 33.5546 17.1429 33.5256 17.1777C33.3981 17.3054 33.3228 17.4795 33.3228 17.6594C33.3228 17.7058 33.3228 17.7465 33.3343 17.7929C33.3401 17.8335 33.3575 17.8799 33.3749 17.9206" fill="url(#paint16_linear_1_396)"/>
<path d="M42.873 18.4421C42.9136 18.4421 42.96 18.4421 43.0005 18.4305C43.3714 18.3609 43.6148 18.0011 43.5453 17.6297C43.4757 17.2582 43.1164 17.0145 42.7456 17.0841C42.3747 17.1538 42.1313 17.5136 42.2008 17.885C42.2646 18.2158 42.5485 18.4421 42.873 18.4421Z" fill="url(#paint17_linear_1_396)"/>
<path d="M45.7529 17.7007C45.8225 17.7007 45.8978 17.689 45.9674 17.6658C46.3267 17.5498 46.5237 17.1609 46.402 16.8011C46.2861 16.4413 45.8978 16.2498 45.5385 16.3659C45.1792 16.4819 44.9822 16.8708 45.1039 17.2306C45.1966 17.5208 45.4632 17.7007 45.7529 17.7007Z" fill="url(#paint18_linear_1_396)"/>
<path d="M48.5056 16.5902C48.6041 16.5902 48.7026 16.567 48.8011 16.5206C49.1431 16.3581 49.2821 15.9461 49.1199 15.6037C48.9576 15.2613 48.5462 15.122 48.2101 15.2845C47.8681 15.447 47.7291 15.859 47.8913 16.2014C48.0072 16.4452 48.2506 16.5902 48.5114 16.5902" fill="url(#paint19_linear_1_396)"/>
<path d="M51.0964 15.123C51.2239 15.123 51.3572 15.0882 51.4731 15.0127C51.7918 14.8038 51.8787 14.3801 51.6701 14.0668C51.4615 13.7476 51.0384 13.6605 50.7255 13.8694C50.4068 14.0784 50.3198 14.502 50.5285 14.8154C50.6617 15.0185 50.8762 15.123 51.1022 15.123" fill="url(#paint20_linear_1_396)"/>
<path d="M53.4664 13.33C53.6229 13.33 53.7793 13.2778 53.9068 13.1675C54.1966 12.9238 54.2314 12.4885 53.988 12.2041C53.7446 11.914 53.3099 11.8792 53.0202 12.1229C52.7304 12.3666 52.6957 12.8019 52.9449 13.0863C53.0781 13.2429 53.2694 13.33 53.4664 13.33Z" fill="url(#paint21_linear_1_396)"/>
<path d="M39.9234 18.7967C39.9234 18.7967 39.9466 18.7967 39.9582 18.7967C40.3348 18.7793 40.6246 18.4543 40.6014 18.0771C40.5782 17.6999 40.2595 17.4097 39.8828 17.4329C39.5062 17.4504 39.2164 17.7753 39.2396 18.1526C39.2628 18.5182 39.5583 18.8025 39.9234 18.8025" fill="url(#paint22_linear_1_396)"/>
<path d="M36.8984 18.7623C36.8984 18.7623 36.9332 18.7623 36.9506 18.7623C37.3041 18.7623 37.6054 18.4895 37.6344 18.1297C37.6634 17.7525 37.3794 17.4217 37.0086 17.3927C36.6319 17.3637 36.3016 17.6422 36.2726 18.0195C36.2436 18.3967 36.5218 18.7275 36.8984 18.7565" fill="url(#paint23_linear_1_396)"/>
<path d="M55.7379 11.3969C55.9176 11.3969 56.0914 11.3215 56.2189 11.1938C56.2479 11.1648 56.2769 11.13 56.3059 11.0894C56.329 11.0545 56.3522 11.0139 56.3696 10.9733C56.387 10.9327 56.3986 10.892 56.4102 10.8456C56.4218 10.805 56.4218 10.7586 56.4218 10.7121C56.4218 10.6657 56.4218 10.6251 56.4102 10.5787C56.3986 10.5322 56.387 10.4916 56.3696 10.451C56.3522 10.4104 56.3348 10.3697 56.3059 10.3349C56.2827 10.3001 56.2537 10.2595 56.2189 10.2305C56.1842 10.2014 56.1494 10.1724 56.1146 10.1434C56.0741 10.1202 56.0393 10.097 55.9987 10.0796C55.9582 10.0622 55.9118 10.0506 55.8712 10.039C55.6452 9.99252 55.4134 10.068 55.2512 10.2247C55.1237 10.3523 55.0483 10.5264 55.0483 10.7063C55.0483 10.8862 55.1179 11.0603 55.2512 11.1938C55.3844 11.3273 55.5525 11.3969 55.7379 11.3969Z" fill="url(#paint24_linear_1_396)"/>
<path d="M59.997 15.0127C60.1129 15.0881 60.2404 15.1229 60.3737 15.1229C60.5939 15.1229 60.8141 15.0127 60.9474 14.8153C61.156 14.502 61.0691 14.0725 60.7504 13.8636C60.4375 13.6547 60.0086 13.7417 59.8058 14.0609C59.5972 14.3801 59.6899 14.8037 60.0028 15.0127" fill="url(#paint25_linear_1_396)"/>
<path d="M65.5026 17.6658C65.5722 17.689 65.6475 17.7007 65.717 17.7007C66.0068 17.7007 66.2734 17.5149 66.3661 17.2306C66.482 16.8708 66.2849 16.4819 65.9314 16.3659C65.5722 16.2498 65.1839 16.4413 65.068 16.8011C64.9521 17.1609 65.1433 17.5498 65.5026 17.6658Z" fill="url(#paint26_linear_1_396)"/>
<path d="M62.6632 16.5206C62.7559 16.567 62.8602 16.5902 62.9587 16.5902C63.2137 16.5902 63.4571 16.4452 63.5788 16.2014C63.7411 15.859 63.602 15.4528 63.2601 15.2845C62.9182 15.122 62.5125 15.2613 62.3444 15.6037C62.1822 15.9461 62.3213 16.3523 62.6632 16.5206Z" fill="url(#paint27_linear_1_396)"/>
<path d="M71.5063 18.7967C71.5063 18.7967 71.5295 18.7967 71.5411 18.7967C71.9004 18.7967 72.2075 18.5123 72.2249 18.1467C72.2423 17.7695 71.9583 17.4445 71.5758 17.4271C71.1992 17.4039 70.8746 17.694 70.8573 18.0713C70.8341 18.4485 71.1238 18.7735 71.5005 18.7909" fill="url(#paint28_linear_1_396)"/>
<path d="M57.9982 13.3305C58.1895 13.3305 58.3807 13.2493 58.5198 13.0868C58.7632 12.7966 58.7284 12.3672 58.4444 12.1234C58.1547 11.8797 57.7258 11.9145 57.4767 12.1989C57.2333 12.489 57.268 12.9185 57.5578 13.168C57.6853 13.2783 57.8418 13.3305 57.9982 13.3305Z" fill="url(#paint29_linear_1_396)"/>
<path d="M74.514 18.7612C74.514 18.7612 74.5487 18.7612 74.5661 18.7612C74.9428 18.7322 75.2268 18.4014 75.1978 18.0242C75.1688 17.647 74.8385 17.3626 74.4618 17.3974C74.0851 17.4264 73.8012 17.7572 73.8302 18.1344C73.8591 18.4943 74.1547 18.767 74.514 18.767" fill="url(#paint30_linear_1_396)"/>
<path d="M68.4697 18.4305C68.5102 18.4363 68.5566 18.4421 68.5972 18.4421C68.9217 18.4421 69.2056 18.2158 69.2694 17.885C69.3389 17.5136 69.0955 17.1538 68.7247 17.0841C68.3538 17.0145 67.9945 17.2582 67.9249 17.6297C67.8554 18.0011 68.0988 18.3609 68.4697 18.4305Z" fill="url(#paint31_linear_1_396)"/>
<path d="M76.8319 17.9142C76.8493 17.9548 76.8667 17.9954 76.8957 18.0303C76.9189 18.0651 76.9478 18.0999 76.9826 18.1347C77.0116 18.1637 77.0464 18.1928 77.0869 18.2218C77.1217 18.245 77.1623 18.2682 77.2028 18.2856C77.2434 18.303 77.2897 18.3146 77.3303 18.3262C77.3767 18.332 77.4172 18.3378 77.4636 18.3378C77.6432 18.3378 77.8171 18.2624 77.9446 18.1347C78.0721 18.0071 78.1474 17.8329 78.1474 17.653C78.1474 17.4731 78.0721 17.2932 77.9446 17.1714C77.9156 17.1423 77.8808 17.1133 77.8403 17.0843C77.8055 17.0611 77.7649 17.0379 77.7244 17.0205C77.6838 17.0031 77.6374 16.9915 77.5969 16.9799C77.51 16.9624 77.4172 16.9624 77.3303 16.9799C77.2897 16.9857 77.2434 17.0031 77.2028 17.0205C77.1623 17.0379 77.1217 17.0611 77.0869 17.0843C77.0464 17.1075 77.0174 17.1365 76.9826 17.1714C76.9478 17.2004 76.9189 17.2352 76.8957 17.2758C76.8725 17.3106 76.8493 17.3513 76.8319 17.3919C76.8146 17.4325 76.803 17.4789 76.7914 17.5196C76.7798 17.566 76.7798 17.6066 76.7798 17.653C76.7798 17.6995 76.7798 17.7401 76.7914 17.7865C76.803 17.8271 76.8146 17.8736 76.8319 17.9142Z" fill="url(#paint32_linear_1_396)"/>
<path d="M76.7973 39.8563C76.8379 39.8621 76.8842 39.8679 76.9248 39.8679C77.2493 39.8679 77.5333 39.6416 77.597 39.3108C77.6666 38.9394 77.4232 38.5796 77.0523 38.5099C76.6814 38.4403 76.3221 38.684 76.2526 39.0612C76.183 39.4326 76.4264 39.7925 76.7973 39.8621" fill="url(#paint33_linear_1_396)"/>
<path d="M77.4636 33.7348C77.8403 33.7348 78.1474 33.4273 78.1474 33.05C78.1474 32.6728 77.8403 32.3652 77.4636 32.3652C77.0869 32.3652 76.7798 32.6728 76.7798 33.05C76.7798 33.4273 77.0869 33.7348 77.4636 33.7348Z" fill="url(#paint34_linear_1_396)"/>
<path d="M77.4636 24.4946C77.8403 24.4946 78.1474 24.187 78.1474 23.8098C78.1474 23.4326 77.8403 23.125 77.4636 23.125C77.0869 23.125 76.7798 23.4326 76.7798 23.8098C76.7798 24.187 77.0869 24.4946 77.4636 24.4946Z" fill="url(#paint35_linear_1_396)"/>
<path d="M77.4636 27.5766C77.8403 27.5766 78.1474 27.269 78.1474 26.8918C78.1474 26.5146 77.8403 26.207 77.4636 26.207C77.0869 26.207 76.7798 26.5146 76.7798 26.8918C76.7798 27.269 77.0869 27.5766 77.4636 27.5766Z" fill="url(#paint36_linear_1_396)"/>
<path d="M77.4636 21.4145C77.8403 21.4145 78.1474 21.1069 78.1474 20.7297C78.1474 20.3525 77.8403 20.0449 77.4636 20.0449C77.0869 20.0449 76.7798 20.3525 76.7798 20.7297C76.7798 21.1069 77.0869 21.4145 77.4636 21.4145Z" fill="url(#paint37_linear_1_396)"/>
<path d="M77.2782 36.81C77.2782 36.81 77.3188 36.81 77.3362 36.81C77.6897 36.81 77.9852 36.5431 78.0142 36.1833C78.049 35.8061 77.7708 35.4753 77.3941 35.4404C77.0174 35.4056 76.6871 35.6842 76.6523 36.0614C76.6176 36.4386 76.8957 36.7694 77.2724 36.8042" fill="url(#paint38_linear_1_396)"/>
<path d="M76.0207 42.8346C76.0845 42.852 76.1482 42.8636 76.212 42.8636C76.5075 42.8636 76.7799 42.6663 76.8668 42.3703C76.9711 42.0047 76.7625 41.6275 76.4032 41.523C76.0381 41.4186 75.6614 41.6275 75.5571 41.9873C75.4528 42.3529 75.6614 42.7301 76.0265 42.8346" fill="url(#paint39_linear_1_396)"/>
<path d="M77.4636 30.6587C77.8403 30.6587 78.1474 30.3511 78.1474 29.9739C78.1474 29.5966 77.8403 29.2891 77.4636 29.2891C77.0869 29.2891 76.7798 29.5966 76.7798 29.9739C76.7798 30.3511 77.0869 30.6587 77.4636 30.6587Z" fill="url(#paint40_linear_1_396)"/>
<path d="M71.8132 50.1743C71.6104 50.4935 71.6973 50.9172 72.016 51.1203C72.1319 51.1957 72.2594 51.2305 72.3869 51.2305C72.6129 51.2305 72.8331 51.1203 72.9606 50.9172C73.1692 50.598 73.0765 50.1743 72.7578 49.9712C72.4449 49.7623 72.016 49.8551 71.8132 50.1743Z" fill="url(#paint41_linear_1_396)"/>
<path d="M78.3847 46.9596V45.5436C79.6249 41.6611 80.3203 37.4072 80.3203 33.3623V14.1125L76.8664 14.8496C75.522 15.1339 74.1428 15.279 72.7635 15.279C68.0869 15.279 63.5494 13.6076 59.9855 10.5725L55.7319 6.95117L51.4783 10.5725C47.9144 13.6076 43.3768 15.279 38.7002 15.279C37.3268 15.279 35.9476 15.1339 34.5973 14.8496L31.1435 14.1125V33.3623C31.1435 37.413 31.8447 41.6611 33.079 45.5436V46.9596H19.084L24.2126 52.0956L19.1651 57.1503H33.3224C38.7408 64.1259 46.906 68.1303 55.7319 68.1303C64.5578 68.1303 72.723 64.1259 78.1414 57.1503H92.2639L87.2164 52.0956L92.345 46.9596H78.3847ZM78.2631 56.1579C78.2631 55.6356 78.2746 55.0785 78.2804 54.5098H80.3435C80.5173 54.5098 80.6564 54.3705 80.6564 54.1964C80.6564 54.0223 80.5173 53.883 80.3435 53.883H78.2862C78.292 53.3723 78.3036 52.8558 78.3094 52.3335H81.091C81.2649 52.3335 81.404 52.1942 81.404 52.0201C81.404 51.846 81.2649 51.7067 81.091 51.7067H78.321C78.3268 51.2018 78.3384 50.6911 78.3442 50.1863H80.3087C80.4826 50.1863 80.6216 50.047 80.6216 49.8729C80.6216 49.6988 80.4826 49.5595 80.3087 49.5595H78.35C78.3558 49.0024 78.3616 48.4627 78.3674 47.9462H89.9285L85.7908 52.0898L89.8474 56.1521H78.2515L78.2631 56.1579ZM77.2663 56.657C72.4854 62.7563 65.5139 66.4705 57.8703 67.0566C57.3255 67.0973 56.7808 67.1205 56.2303 67.1321C56.0622 67.1321 55.8942 67.1379 55.7261 67.1379C55.558 67.1379 55.39 67.1379 55.2219 67.1321C54.6714 67.1205 54.1267 67.0973 53.5819 67.0566C45.9441 66.4705 38.9726 62.7563 34.1859 56.657C34.1859 56.216 34.1859 55.7401 34.1743 55.2526L35.1595 56.303C35.2232 56.3668 35.3043 56.4017 35.3855 56.4017C35.4608 56.4017 35.5361 56.3726 35.5999 56.3146C35.7274 56.1985 35.7332 56.0012 35.6115 55.8736L34.1627 54.3299C34.1569 53.9004 34.1511 53.4652 34.1395 53.0241L36.1852 55.1423C36.2489 55.2062 36.3243 55.2352 36.4112 55.2352C36.4981 55.2352 36.5677 55.2062 36.6256 55.1481C36.7473 55.0263 36.7531 54.8289 36.6314 54.7071L34.1337 52.1188L34.1222 52.1072C34.1222 52.0201 34.1222 51.9331 34.1222 51.846C34.1164 51.521 34.1106 51.1902 34.1048 50.8594L34.1279 50.8885L35.1595 51.9795C35.2232 52.0433 35.3043 52.0781 35.3855 52.0781C35.4608 52.0781 35.5361 52.0491 35.5999 51.9911C35.6752 51.9215 35.7042 51.8228 35.6926 51.73C35.6868 51.6661 35.6578 51.6023 35.6115 51.55L35.5709 51.5036L34.1279 49.9715L34.0874 49.9309C34.0758 49.3796 34.07 48.8341 34.0642 48.3118C34.0642 48.3118 34.099 48.3466 34.1163 48.3698C34.5394 48.8747 34.974 49.3622 35.4087 49.8381C35.9012 50.3662 36.3938 50.8769 36.9038 51.3643C39.3377 53.6973 41.9686 55.5544 44.7387 56.9008C45.0922 57.0691 45.4457 57.2315 45.805 57.3882C48.9807 58.7636 52.3128 59.4832 55.7145 59.4832C59.1162 59.4832 62.4484 58.7636 65.6241 57.3882C65.9775 57.2315 66.3368 57.0691 66.6903 56.9008C69.4604 55.5544 72.0913 53.6973 74.5252 51.3643C75.0352 50.8769 75.5336 50.3662 76.0204 49.8381C76.4492 49.3796 76.8665 48.9037 77.2779 48.4104C77.3069 48.3756 77.3358 48.3408 77.3648 48.306V48.3176C77.3648 48.8225 77.3532 49.3448 77.3416 49.8787L77.2721 49.9541L75.9334 51.3759L75.7654 51.5559C75.6959 51.6313 75.6669 51.7358 75.6843 51.8286C75.6959 51.8924 75.7248 51.9505 75.777 51.9969C75.8349 52.0549 75.9161 52.084 75.9914 52.084C76.0725 52.084 76.1537 52.0491 76.2174 51.9853L77.2663 50.8711L77.3243 50.8072C77.3185 51.1554 77.3127 51.5036 77.3069 51.8518C77.3069 51.9215 77.3069 51.9911 77.3069 52.0607L77.2663 52.1072L74.7455 54.7129C74.6238 54.8348 74.6296 55.0321 74.7513 55.1539C74.8092 55.212 74.8903 55.241 74.9657 55.241C75.041 55.241 75.1279 55.212 75.1917 55.1481L77.2605 53.0067L77.2895 52.9777C77.2837 53.4187 77.2721 53.854 77.2721 54.2834L77.2547 54.3008L75.7654 55.8852C75.6495 56.007 75.6553 56.2043 75.777 56.3262C75.8349 56.3843 75.9161 56.4133 75.9914 56.4133C76.0725 56.4133 76.1537 56.3784 76.2174 56.3146L77.2547 55.212C77.2547 55.7169 77.2431 56.2101 77.2431 56.6686M25.5976 52.113L21.46 47.9694H33.0559C33.0559 48.4859 33.0675 49.0256 33.0732 49.5827H31.0624C30.8885 49.5827 30.7494 49.722 30.7494 49.8961C30.7494 50.0702 30.8885 50.2095 31.0624 50.2095H33.0848C33.0906 50.7144 33.1022 51.2251 33.108 51.73H30.28C30.1062 51.73 29.9671 51.8692 29.9671 52.0433C29.9671 52.2174 30.1062 52.3567 30.28 52.3567H33.1196C33.1196 52.496 33.1196 52.6353 33.1254 52.7746V53.9004H31.0334C30.8595 53.9004 30.7204 54.0397 30.7204 54.2138C30.7204 54.3879 30.8595 54.5272 31.0334 54.5272H33.1312V56.1753H21.5353L25.5918 52.113H25.5976ZM32.3604 15.6678L34.3134 16.0857C35.7448 16.3932 37.2109 16.5441 38.6713 16.5441C43.6434 16.5441 48.4649 14.7683 52.2549 11.5416L55.7029 8.60513L59.151 11.5416C62.9409 14.7683 67.7624 16.5441 72.7346 16.5441C74.1949 16.5441 75.6611 16.3874 77.0925 16.0857L79.0454 15.6678V33.3797C79.0454 38.4635 77.9096 43.878 75.9798 48.393C74.4847 50.105 72.891 51.6081 71.2221 52.9022C71.1873 52.7572 71.112 52.6295 70.9845 52.5308C70.6889 52.2929 70.2601 52.3451 70.0225 52.6411C69.7849 52.937 69.8371 53.3665 70.1326 53.6044C70.1558 53.6277 70.1848 53.6393 70.2137 53.6567C65.7573 56.8253 60.8026 58.5083 55.7029 58.5083C50.6033 58.5083 45.6485 56.8253 41.1863 53.6567C41.2153 53.6393 41.2385 53.6218 41.2675 53.6044C41.563 53.3665 41.6151 52.937 41.3775 52.6411C41.14 52.3451 40.7111 52.2929 40.4156 52.5308C40.2939 52.6295 40.2127 52.763 40.178 52.908C38.509 51.6139 36.9212 50.1108 35.426 48.3988C33.4963 43.8838 32.3604 38.4693 32.3604 33.3797V15.6504V15.6678Z" fill="url(#paint42_linear_1_396)"/>
<path d="M72.8562 56.1286L72.7403 56.1925L71.1988 57.0572L70.9091 57.2197L70.4918 56.9121L69.1126 55.8965L69.5183 57.9451L69.5472 58.0902L68.9156 58.5428L67.7334 59.3901L67.971 59.4191L68.7881 59.5178L69.5994 59.6164L69.9471 59.6571L70.6193 61.7869L71.5523 59.7615L73.7834 59.7789L72.1434 58.2643L72.8446 56.146L72.8562 56.1286ZM72.5085 59.2566H71.2452L70.7178 60.3999L70.3354 59.1928L70.0746 59.1638L69.2807 59.0709L69.0836 59.0477L69.9065 58.4558L70.1152 58.3049L70.1036 58.2527L69.9529 57.5098L69.866 57.063L70.1673 57.2835L70.6715 57.6549L70.8859 57.8116L71.8537 57.2719L71.9928 57.1964L71.5929 58.3977L72.5201 59.2566H72.5085Z" fill="url(#paint43_linear_1_396)"/>
<path d="M66.5921 60.3198L64.419 60.8247L63.8047 60.0238L63.2078 59.2403L63.0629 59.0488L62.8717 61.2715L60.7681 62.0143L62.8195 62.8849V63.1866L62.8427 63.9004L62.8601 64.6085L62.8717 65.1191L63.7873 64.0629L64.3378 63.4304L64.6507 63.5232L66.4762 64.0687L65.717 62.8036L65.3925 62.2697L65.3288 62.1594L66.1922 60.9059L66.5921 60.3198ZM64.9811 62.5541L65.2998 63.088L65.3809 63.2273L65.1839 63.1692L64.4074 62.9371L64.164 62.8674L63.7293 63.3723L63.3353 63.825V63.6161L63.3121 62.8965V62.5599L62.1415 62.0666L63.3353 61.6429L63.4454 60.3836L64.2161 61.3876L65.4505 61.1032L64.9579 61.8228L64.7319 62.1478L64.9811 62.5599V62.5541Z" fill="url(#paint44_linear_1_396)"/>
<path d="M56.5434 62.4154L55.7552 60.3262L54.9323 62.398L53.6227 62.4618L52.707 62.5024L53.2518 62.9551L54.4282 63.9301L53.9124 65.822L53.8429 66.0831L54.1094 65.9148L55.7263 64.8934L57.3257 65.9438L57.5923 66.1179L57.5227 65.851L57.0359 63.9533L58.2645 62.9667L58.7745 62.5547L57.8762 62.4966L56.5549 62.4096L56.5434 62.4154ZM56.468 63.7676L56.781 64.9979L55.7668 64.3305L55.7205 64.3015L55.6799 64.3305L54.6542 64.9805L54.9903 63.756L54.0167 62.9493L55.28 62.8913L55.7436 61.7132L56.1899 62.8971L57.4532 62.9783L56.468 63.7676Z" fill="url(#paint45_linear_1_396)"/>
<path d="M48.4363 59.0487L48.2624 59.2692L47.6713 60.0178L47.0571 60.7955L44.8955 60.2558L45.3649 60.9638L46.1299 62.1128L46.0487 62.2405L45.7184 62.7686L44.9477 64.0047L46.7789 63.4882L47.0918 63.4012L47.596 64.0047L48.5232 65.1074L48.5464 64.5619L48.5754 63.8597L48.6043 63.1516L48.6159 62.8731L50.6848 62.0374L48.5928 61.2597L48.4363 59.0312V59.0487ZM48.1291 62.5481L48.1176 62.8731L48.0886 63.5869L48.077 63.8132L47.6713 63.3315L47.2599 62.8441L47.0165 62.9137L46.2284 63.1342L46.0487 63.1865L46.1241 63.0646L46.4544 62.5365L46.7152 62.1128L46.5297 61.8285L46.0197 61.0566L47.2483 61.3642L48.0364 60.3718L48.1233 61.637L49.3113 62.078L48.1407 62.5539L48.1291 62.5481Z" fill="url(#paint46_linear_1_396)"/>
<path d="M41.94 58.0903L41.9689 57.9626L42.4152 55.9082L40.9896 56.9238L40.5955 57.2024L40.1899 56.9702L38.6658 56.0823L38.6889 56.1461L39.338 58.2121L37.6748 59.6978L39.9059 59.721L40.8041 61.7638L41.5169 59.6456L41.8704 59.6108L42.6933 59.5295L43.5278 59.4483L43.7306 59.425L42.5774 58.5661L41.94 58.0903ZM41.401 59.1523L41.146 59.1813L40.7404 60.3826L40.2304 59.2219L38.9671 59.2103L39.9117 58.3688L39.535 57.1617L40.6245 57.8001L40.8157 57.6608L41.3257 57.2952L41.6502 57.0631L41.5459 57.5331L41.3894 58.2644V58.2992L41.5285 58.4095L42.3978 59.0536L42.2065 59.071L41.3952 59.1523H41.401Z" fill="url(#paint47_linear_1_396)"/>
<path d="M21.101 45.5558H30.0195L28.9822 42.8224C28.5882 41.7778 27.4349 41.0814 26.1195 41.0814C25.5342 41.0814 25.1807 40.7854 25.0532 40.5359C24.9778 40.3908 24.9315 40.1645 25.1227 39.9091L25.9282 38.8239C26.7627 37.7038 27.0872 36.3691 26.8496 35.0691C26.5889 33.6415 25.6732 32.3647 24.2882 31.4826L20.6489 29.0626V27.0721L24.2013 28.1225H24.2303C24.5954 28.2153 24.9605 28.256 25.3197 28.256C26.4034 28.256 27.4639 27.8903 28.3332 27.1939C29.4922 26.2654 30.1586 24.8842 30.1586 23.3985V23.0271L23.1234 20.9437C23.8188 20.5491 24.5722 20.2183 25.3777 19.9687C27.8464 19.1969 29.498 16.9278 29.498 14.3221V13.8346L29.017 13.823C24.7576 13.7011 20.9097 15.5234 20.4983 15.7265C20.2838 15.8019 20.0752 15.9006 19.8724 16.0283C19.5131 15.21 19.0321 14.4497 18.4352 13.7591L18.5511 13.3239C18.8293 12.2851 19.7739 11.5597 20.846 11.5597H21.3617C23.8826 11.5597 25.934 9.50528 25.934 6.98081C25.934 6.13932 25.2502 5.46033 24.4157 5.46033H22.0571L20.5736 3.97467C19.3045 2.70373 17.6239 1.99572 15.8332 1.9667L14.5815 0.713174C13.8803 0.0109669 12.872 -0.192151 11.9506 0.190871C11.0292 0.573894 10.4612 1.42699 10.4612 2.42517V3.74253L8.61262 6.82412C5.96428 11.2347 4.56767 16.2894 4.56767 21.437V26.4975C4.56767 35.2838 3.20583 41.5979 0.157635 46.966L0.0185547 47.2098L3.88385 54.2318C4.81106 55.9206 6.59014 56.971 8.5141 56.971H15.1726L14.3613 54.2899C13.8745 52.6997 12.4316 51.6261 10.7742 51.6261C10.2642 51.6261 9.81799 51.3534 9.58618 50.9007C9.35438 50.448 9.38915 49.9373 9.67311 49.5195L17.0908 40.031C18.2672 41.0002 18.9973 42.3117 18.9973 43.7568C18.9973 44.7433 19.9477 45.55 21.1125 45.55M16.2795 39.4565L8.88498 48.9101L8.87339 48.9276C8.36922 49.6414 8.30548 50.5699 8.70533 51.3534C9.10519 52.131 9.90491 52.6185 10.78 52.6185C12.0027 52.6185 13.0632 53.402 13.4167 54.5742L13.5674 55.0791C13.1501 54.7832 12.6112 54.4872 11.9448 54.2783C11.7825 54.226 11.6087 54.3189 11.5565 54.4814C11.5043 54.6439 11.5971 54.818 11.7593 54.8702C12.6402 55.1488 13.266 55.5898 13.6659 55.9612H8.51989C6.95523 55.9612 5.51806 55.1081 4.7647 53.7385L1.17177 47.204C4.21417 41.7256 5.57601 35.3187 5.57601 26.4859V21.4254C5.57601 16.4577 6.92626 11.5829 9.48187 7.32901L11.4696 4.01529V2.41936C11.4696 1.71716 11.9216 1.2819 12.3446 1.1078C12.7677 0.933702 13.3993 0.922096 13.8919 1.41538L15.4334 2.95908H15.7463C17.311 2.95908 18.7771 3.56843 19.884 4.67687L21.6631 6.45851H24.4389C24.7287 6.45851 24.9605 6.69064 24.9605 6.98081C24.9605 8.95396 23.3552 10.5615 21.3849 10.5615H20.8691C19.345 10.5615 18.0064 11.5945 17.6123 13.0685L17.3573 14.0319L17.5428 14.235C18.2208 14.9662 18.7424 15.8077 19.1075 16.7189C19.177 16.8988 19.2407 17.0787 19.2987 17.2644C19.3624 17.4675 19.4204 17.6764 19.4725 17.8911C19.6058 18.4773 19.6754 19.0808 19.6754 19.696V19.9223L18.7424 19.6438L18.2672 19.5045L17.792 19.3652L17.027 19.1389H17.0096C15.3928 18.7152 14.257 17.247 14.257 15.5756H13.2602C13.2602 16.0805 13.3414 16.5738 13.492 17.038C13.9788 18.5121 15.1784 19.6902 16.7431 20.1022L17.5949 20.3518L18.0759 20.4969L18.5627 20.6419L19.6696 20.9727L20.1679 21.1178L20.6663 21.2629L20.8923 21.3325L21.466 21.5008L22.0571 21.6749L29.1735 23.7816C29.1445 24.1007 29.0749 24.4141 28.9706 24.7101L26.1774 23.9383C26.0094 23.8918 25.8413 23.9905 25.7949 24.153C25.7486 24.3213 25.8471 24.4896 26.0152 24.536L28.7156 25.2846C28.5766 25.54 28.4027 25.7779 28.2057 25.9984L25.5573 25.2672C25.3893 25.2208 25.2212 25.3195 25.1749 25.4819C25.1285 25.6502 25.227 25.8185 25.3951 25.865L27.6667 26.4917C26.7569 27.1765 25.6095 27.4319 24.4969 27.1765L20.6779 26.0449L20.1795 25.8998L19.6812 25.7547L12.3794 23.5959L12.2403 24.0717L12.194 24.2226C12.1534 24.2807 12.1302 24.3503 12.136 24.4199L12.0954 24.5534L12.1766 24.5766L13.0632 26.7587C13.1096 26.8806 13.2313 26.9502 13.353 26.9502C13.3935 26.9502 13.4341 26.9444 13.4689 26.927C13.6253 26.8631 13.7065 26.6832 13.6369 26.5208L12.9357 24.7971L14.4366 25.2382L15.2537 27.252C15.3001 27.3738 15.4218 27.4435 15.5435 27.4435C15.5841 27.4435 15.6246 27.4377 15.6594 27.4203C15.8159 27.3564 15.897 27.1707 15.8332 27.014L15.2016 25.4645L19.6812 26.7877V30.3858C19.6812 33.3687 18.696 36.2994 16.9053 38.6788C16.859 38.7426 16.8068 38.8123 16.7605 38.8703L16.604 39.0676L16.2969 39.4623L16.2795 39.4565ZM20.9271 16.626C20.9619 16.6086 24.5258 14.8444 28.5012 14.8096C28.4896 14.9372 28.4723 15.0649 28.4491 15.1868C27.9623 15.1868 27.0409 15.268 25.9166 15.7671C25.7602 15.8368 25.6906 16.0225 25.7602 16.1791C25.8123 16.2952 25.9282 16.3649 26.0441 16.3649C26.0847 16.3649 26.1311 16.3591 26.1716 16.3358C27.0814 15.9296 27.8464 15.8309 28.2984 15.8135C28.2289 16.0399 28.1419 16.2604 28.0376 16.4751C27.5219 16.4983 26.6932 16.6144 25.7138 17.0497C25.5573 17.1193 25.4878 17.305 25.5573 17.4617C25.6095 17.5778 25.7254 17.6474 25.8413 17.6474C25.8819 17.6474 25.9282 17.6416 25.9688 17.6184C26.6294 17.3224 27.2147 17.1889 27.6552 17.1309C27.0525 18.0014 26.1716 18.6688 25.1053 19.0054C23.9231 19.3768 22.8453 19.8933 21.8717 20.5549L20.6663 20.2009V19.6844C20.6663 18.7558 20.5272 17.8505 20.2549 16.9858C20.4461 16.8407 20.6489 16.7247 20.8634 16.655L20.9271 16.626ZM19.1828 36.8043L20.9851 38.0056C21.0372 38.0404 21.1009 38.0578 21.1589 38.0578C21.2574 38.0578 21.3559 38.0114 21.4197 37.9186C21.5124 37.7735 21.4776 37.582 21.3328 37.4891L19.4494 36.2298C19.5479 36.0035 19.6348 35.7713 19.7217 35.545L21.5935 36.7927C21.6457 36.8275 21.7094 36.8449 21.7674 36.8449C21.8659 36.8449 21.9644 36.7985 22.0282 36.7057C22.1209 36.5606 22.0861 36.3691 21.9412 36.2762L19.9361 34.9356C20.0231 34.6687 20.1042 34.4017 20.1737 34.129L22.0919 35.4115C22.1441 35.4463 22.2078 35.4637 22.2658 35.4637C22.3643 35.4637 22.4628 35.4173 22.5265 35.3245C22.6193 35.1794 22.5845 34.9879 22.4396 34.895L20.3302 33.4848C20.3882 33.2236 20.4345 32.9567 20.4809 32.6955L22.3179 33.92C22.3701 33.9549 22.4338 33.9723 22.4918 33.9723C22.5903 33.9723 22.6888 33.9258 22.7525 33.833C22.8511 33.6879 22.8105 33.4964 22.6656 33.4035L20.5794 32.0107C20.6373 31.471 20.6721 30.9197 20.6721 30.3742V30.2581L23.7667 32.3183C24.9257 33.0553 25.679 34.0941 25.8877 35.249C26.0789 36.2878 25.8239 37.315 25.1459 38.2261L24.3404 39.3114C23.9695 39.8105 23.9058 40.4372 24.1839 40.9827C24.5142 41.6501 25.285 42.0796 26.1369 42.0796C26.9887 42.0796 27.8232 42.5322 28.0666 43.1822L28.2752 43.7277C27.5161 43.217 26.4498 42.7238 25.1401 42.7238C24.9663 42.7238 24.8272 42.863 24.8272 43.0371C24.8272 43.2112 24.9663 43.3505 25.1401 43.3505C26.5541 43.3505 27.6725 44.0179 28.3506 44.5634H21.1241C20.5156 44.5634 20.0057 44.1978 20.0057 43.7684C20.0057 42.0099 19.1306 40.414 17.7108 39.2591C18.2846 38.4931 18.7829 37.6806 19.1944 36.8217" fill="url(#paint48_linear_1_396)"/>
<path d="M17.6527 5.98897C17.6701 6.0296 17.6933 6.07022 17.7165 6.10504C17.7397 6.13986 17.7686 6.17468 17.8034 6.2095C17.8324 6.23852 17.8672 6.26754 17.9077 6.29655C17.9425 6.31977 17.9831 6.34298 18.0236 6.36039C18.0642 6.3778 18.1105 6.38941 18.1511 6.40101C18.1975 6.40682 18.238 6.41262 18.2844 6.41262C18.464 6.41262 18.6437 6.33718 18.7712 6.2095C18.8002 6.17468 18.8291 6.13986 18.8581 6.10504C18.8813 6.06442 18.9045 6.0296 18.9219 5.98897C18.9392 5.94835 18.9508 5.90192 18.9624 5.8613C18.9682 5.81487 18.974 5.77425 18.974 5.72782C18.974 5.54792 18.8987 5.36801 18.7712 5.24614C18.6089 5.08945 18.3771 5.01401 18.1511 5.06043C18.1105 5.06624 18.0642 5.08365 18.0236 5.10106C17.9831 5.11847 17.9425 5.14168 17.9077 5.1649C17.8672 5.18811 17.8324 5.21713 17.8034 5.25195C17.6759 5.37962 17.6006 5.55372 17.6006 5.73363C17.6006 5.78005 17.6006 5.82068 17.6122 5.8671C17.618 5.90773 17.6354 5.95415 17.6527 5.99478" fill="url(#paint49_linear_1_396)"/>
<path d="M12.5417 4.64811C12.5417 4.64811 12.5997 4.64811 12.6287 4.6365C12.7909 4.59007 12.8894 4.41597 12.8431 4.25348C12.3331 2.50086 12.8141 2.12364 12.8199 2.11784C12.8083 2.12364 12.8025 2.12944 12.8025 2.12944L12.507 1.57812C12.4606 1.60714 12.2056 1.75803 12.0723 2.2223C11.9217 2.75621 11.9738 3.49904 12.2462 4.42758C12.2867 4.56106 12.4084 4.65391 12.5475 4.65391" fill="url(#paint50_linear_1_396)"/>
<path d="M8.14918 14.5713C7.98112 14.5306 7.81307 14.6351 7.7725 14.8034C7.25095 16.9739 6.98438 19.2024 6.98438 21.4367C6.98438 21.6108 7.12345 21.75 7.2973 21.75C7.47116 21.75 7.61024 21.6108 7.61024 21.4367C7.61024 19.2546 7.87102 17.0725 8.38098 14.9485C8.42155 14.7802 8.31723 14.6119 8.15497 14.5713" fill="url(#paint51_linear_1_396)"/>
<path d="M5.38488 42.0395C5.22261 41.9815 5.04297 42.0685 4.98502 42.231C4.38813 43.9314 3.65216 45.5563 2.79449 47.0594C2.74233 47.1523 2.74233 47.2683 2.79449 47.3612L4.66049 50.7562C4.71845 50.8606 4.82276 50.9186 4.93286 50.9186C4.98502 50.9186 5.03717 50.907 5.08353 50.878C5.2342 50.7968 5.28636 50.6053 5.20523 50.4544L3.42035 47.2161C4.26064 45.7188 4.97922 44.1113 5.57032 42.4399C5.62827 42.2774 5.54134 42.0975 5.37908 42.0453" fill="url(#paint52_linear_1_396)"/>
<path d="M110.976 46.966C107.928 41.5921 106.566 35.278 106.566 26.4975V21.437C106.566 16.2894 105.164 11.2347 102.522 6.82412L100.673 3.74253V2.42517C100.673 1.42699 100.105 0.573894 99.1836 0.190871C98.2622 -0.192151 97.2538 0.0109669 96.5526 0.713174L95.3009 1.9667C93.5102 1.98992 91.8297 2.70373 90.5605 3.97467L89.077 5.46033H86.7126C85.8781 5.46033 85.1943 6.14513 85.1943 6.98081C85.1943 9.50528 87.2458 11.5597 89.7666 11.5597H90.2824C91.3545 11.5597 92.299 12.2851 92.5772 13.3239L92.6931 13.7591C92.0962 14.4439 91.6152 15.21 91.2559 16.0283C91.0531 15.9006 90.8445 15.8019 90.6301 15.7265C90.2186 15.5234 86.3707 13.7069 82.1114 13.823L81.6304 13.8346V14.3221C81.6304 16.9278 83.2877 19.1969 85.7506 19.9687C86.5562 20.2183 87.3037 20.5491 88.0049 20.9437L80.9697 23.0271V23.3985C80.9697 24.8842 81.6362 26.2712 82.7952 27.1939C83.6644 27.8903 84.7249 28.256 85.8086 28.256C86.1737 28.256 86.5388 28.2153 86.8981 28.1341L90.4852 27.0721V29.0626L86.8575 31.4768C85.4667 32.3647 84.5511 33.6357 84.2903 35.0691C84.0527 36.3691 84.3772 37.698 85.2117 38.8239L86.0172 39.9091C86.2084 40.1645 86.1563 40.3908 86.0868 40.5359C85.9593 40.7854 85.6058 41.0814 85.0205 41.0814C83.705 41.0814 82.5576 41.7836 82.1577 42.8224L81.1204 45.55H90.039C91.2038 45.55 92.1542 44.7491 92.1542 43.7568C92.1542 42.3117 92.8786 41.0002 94.0607 40.031L101.478 49.5195C101.768 49.9373 101.803 50.448 101.571 50.9007C101.334 51.3534 100.893 51.6261 100.383 51.6261C98.72 51.6261 97.277 52.6939 96.796 54.2899L95.9847 56.971H102.643C104.567 56.971 106.346 55.9206 107.273 54.2318L111.139 47.2098L111 46.966H110.976ZM97.474 55.9728C97.8739 55.6014 98.4997 55.1546 99.3806 54.8818C99.5429 54.8296 99.6356 54.6555 99.5834 54.493C99.5313 54.3305 99.3574 54.2376 99.1952 54.2899C98.5287 54.4988 97.9898 54.789 97.5725 55.0907L97.729 54.5858C98.0825 53.4136 99.143 52.6301 100.366 52.6301C101.241 52.6301 102.035 52.1484 102.44 51.365C102.846 50.5873 102.777 49.6588 102.272 48.9392L94.8605 39.4623L94.5533 39.0676L94.3969 38.8703C94.3447 38.8065 94.2984 38.7426 94.252 38.6788C92.4613 36.2994 91.4762 33.3687 91.4762 30.3858V26.7877L95.9557 25.4645L95.3241 27.014C95.2603 27.1707 95.3357 27.3564 95.4921 27.4203C95.5327 27.4377 95.5733 27.4435 95.608 27.4435C95.7297 27.4435 95.8456 27.368 95.8978 27.252L96.7149 25.2382L98.2158 24.7971L97.5146 26.5208C97.4508 26.6774 97.5262 26.8631 97.6884 26.927C97.729 26.9444 97.7638 26.9502 97.8043 26.9502C97.926 26.9502 98.0419 26.8748 98.0941 26.7587L98.9807 24.5766L99.0619 24.5534L99.0213 24.4257C99.0213 24.3561 99.0039 24.2865 98.9634 24.2284L98.917 24.0775L98.7779 23.6017L91.4762 25.7605L90.9778 25.9056L90.4794 26.0507L86.6605 27.1823C85.5478 27.4319 84.4004 27.1823 83.4906 26.4975L85.7622 25.8708C85.9303 25.8243 86.023 25.656 85.9824 25.4877C85.9361 25.3195 85.7622 25.2266 85.6 25.2672L82.9516 25.9984C82.7546 25.7779 82.5865 25.54 82.4417 25.2904L85.1422 24.5418C85.3044 24.4954 85.4029 24.3213 85.3566 24.1588C85.3102 23.9905 85.1422 23.8976 84.9741 23.9441L82.1751 24.7159C82.0708 24.4199 82.0012 24.1066 81.9723 23.7874L89.0886 21.6807L89.6739 21.5066L90.2476 21.3383L90.4736 21.2745L90.972 21.1294L91.4704 20.9843L92.5772 20.6593L93.064 20.5143L93.545 20.375L94.3969 20.1254C95.9615 19.7134 97.1669 18.5411 97.6479 17.0613C97.7986 16.597 97.8797 16.1095 97.8797 15.5988H96.8829C96.8829 17.276 95.7529 18.7384 94.1303 19.1621L93.3537 19.3942L92.8786 19.5335L92.4034 19.6728L91.4704 19.9513V19.725C91.4704 19.1157 91.5399 18.5063 91.6732 17.926C91.7195 17.717 91.7775 17.5081 91.8412 17.2992C91.8992 17.1135 91.9629 16.9336 92.0383 16.7537C92.3976 15.8426 92.9249 15.0011 93.6029 14.2698L93.7884 14.0667L93.5334 13.1034C93.1393 11.6293 91.8007 10.5963 90.2766 10.5963H89.7608C87.7905 10.5963 86.1853 8.98878 86.1853 7.01563C86.1853 6.72546 86.4171 6.49333 86.7068 6.49333H89.4827L91.2617 4.71169C92.3686 3.60325 93.8347 2.9939 95.3994 2.9939H95.7123L97.2538 1.4502C97.7464 0.956916 98.3781 0.968523 98.8011 1.14262C99.2241 1.31672 99.6761 1.75778 99.6761 2.45418V4.05011L101.664 7.36964C104.219 11.6235 105.57 16.4983 105.57 21.466V26.5266C105.57 35.3651 106.932 41.772 109.974 47.2446L106.381 53.7792C105.628 55.1488 104.185 56.0019 102.626 56.0019H97.4798L97.474 55.9728ZM90.0274 44.5576H82.801C83.479 44.0121 84.5974 43.3447 86.0114 43.3447C86.1853 43.3447 86.3244 43.2054 86.3244 43.0313C86.3244 42.8572 86.1853 42.718 86.0114 42.718C84.7017 42.718 83.6297 43.2112 82.8763 43.7219L83.0849 43.1764C83.3341 42.5264 84.128 42.0738 85.0147 42.0738C85.9013 42.0738 86.6373 41.6443 86.9676 40.9769C87.24 40.4314 87.182 39.8105 86.8053 39.3056L85.9998 38.2203C85.3218 37.3092 85.0668 36.282 85.2581 35.2432C85.4725 34.0883 86.2258 33.0495 87.3906 32.3067L90.4794 30.2523V30.3684C90.4794 30.9139 90.5142 31.4652 90.5721 32.0049L88.4859 33.3977C88.341 33.4964 88.3063 33.6879 88.399 33.8272C88.4569 33.9142 88.5554 33.9665 88.6598 33.9665C88.7177 33.9665 88.7814 33.9491 88.8336 33.9142L90.6706 32.6897C90.7112 32.9567 90.7634 33.2178 90.8213 33.479L88.7119 34.8892C88.567 34.9879 88.5323 35.1794 88.625 35.3187C88.6829 35.4057 88.7815 35.4579 88.8858 35.4579C88.9437 35.4579 89.0075 35.4405 89.0596 35.4057L90.9778 34.1232C91.0473 34.3959 91.1284 34.6629 91.2154 34.9298L89.2103 36.2704C89.0654 36.3633 89.0306 36.5606 89.1234 36.6999C89.1813 36.7869 89.2798 36.8391 89.3841 36.8391C89.4421 36.8391 89.5058 36.8217 89.558 36.7869L91.4298 35.5392C91.5167 35.7713 91.6094 36.0035 91.7022 36.2298L89.8188 37.4891C89.6739 37.582 89.6391 37.7793 89.7318 37.9186C89.7898 38.0056 89.8883 38.0578 89.9926 38.0578C90.0506 38.0578 90.1143 38.0404 90.1665 38.0056L91.9687 36.8043C92.3802 37.6632 92.8786 38.4757 93.4523 39.2417C92.0383 40.3966 91.1574 41.9925 91.1574 43.7509C91.1574 44.1804 90.6475 44.546 90.039 44.546M85.4435 17.0497C84.4641 16.6086 83.6412 16.4925 83.1197 16.4693C83.0154 16.2546 82.9285 16.0341 82.8589 15.8077C83.3109 15.8251 84.0759 15.9238 84.9799 16.33C85.0205 16.3474 85.0668 16.3591 85.1074 16.3591C85.2291 16.3591 85.3392 16.2894 85.3914 16.1733C85.4609 16.0167 85.3914 15.8309 85.2349 15.7613C84.1164 15.2564 83.1892 15.1752 82.7024 15.181C82.6793 15.0533 82.6619 14.9314 82.6503 14.8038C86.6083 14.8444 90.1723 16.597 90.2244 16.6202L90.2882 16.6492C90.5026 16.7189 90.7054 16.8349 90.8967 16.98C90.6243 17.8447 90.4852 18.7558 90.4852 19.6786V20.1951L89.2798 20.5491C88.3121 19.8875 87.2284 19.371 86.0462 18.9996C84.9799 18.6688 84.0991 17.9956 83.4964 17.1251C83.9368 17.1831 84.5221 17.3166 85.1827 17.6126C85.2233 17.63 85.2697 17.6416 85.3102 17.6416C85.4319 17.6416 85.542 17.572 85.5942 17.4559C85.6637 17.2992 85.5942 17.1135 85.4377 17.0439" fill="url(#paint53_linear_1_396)"/>
<path d="M93.226 5.15318C93.1913 5.12996 93.1507 5.10675 93.1101 5.08934C93.0696 5.07193 93.0232 5.06032 92.9826 5.04872C92.7624 5.00229 92.5248 5.07773 92.3626 5.23442C92.2351 5.3621 92.1655 5.5362 92.1655 5.7161C92.1655 5.76253 92.1655 5.80315 92.1771 5.84958C92.1829 5.8902 92.2003 5.93663 92.2177 5.97726C92.2351 6.01788 92.2583 6.0585 92.2814 6.09332C92.3046 6.12814 92.3336 6.16296 92.3684 6.19778C92.4958 6.32546 92.6697 6.4009 92.8551 6.4009C92.9015 6.4009 92.9479 6.4009 92.9884 6.38929C93.0348 6.38349 93.0753 6.36608 93.1159 6.34867C93.1565 6.33126 93.1971 6.30805 93.2318 6.28483C93.2724 6.26162 93.3072 6.2326 93.3361 6.19778C93.3651 6.16296 93.3941 6.12814 93.4231 6.09332C93.4462 6.0527 93.4694 6.01788 93.4868 5.97726C93.5042 5.93663 93.5158 5.8902 93.5274 5.84958C93.539 5.80315 93.539 5.76253 93.539 5.7161C93.539 5.5362 93.4636 5.35629 93.3361 5.23442C93.3072 5.20541 93.2724 5.17639 93.2318 5.14737" fill="url(#paint54_linear_1_396)"/>
<path d="M98.6214 1.57807L98.3259 2.12939C98.3259 2.12939 98.3201 2.12939 98.3085 2.11778C98.3085 2.11778 98.7895 2.5008 98.2853 4.25342C98.239 4.41592 98.3317 4.59002 98.4998 4.63644C98.5287 4.64225 98.5577 4.64805 98.5867 4.64805C98.72 4.64805 98.8475 4.561 98.888 4.42172C99.1546 3.49318 99.2125 2.75035 99.0619 2.21644C98.9286 1.75797 98.6794 1.60128 98.6272 1.57227" fill="url(#paint55_linear_1_396)"/>
<path d="M102.979 14.5714C102.811 14.612 102.707 14.7803 102.748 14.9486C103.263 17.0669 103.518 19.2547 103.518 21.4368C103.518 21.6109 103.657 21.7502 103.831 21.7502C104.005 21.7502 104.144 21.6109 104.144 21.4368C104.144 19.2025 103.878 16.974 103.356 14.8035C103.315 14.6353 103.147 14.5366 102.979 14.5714Z" fill="url(#paint56_linear_1_396)"/>
<path d="M105.923 50.4544C105.842 50.6053 105.894 50.7968 106.045 50.878C106.091 50.907 106.143 50.9186 106.195 50.9186C106.306 50.9186 106.41 50.8606 106.468 50.7562L108.334 47.3612C108.386 47.2683 108.386 47.1523 108.334 47.0594C107.476 45.5505 106.74 43.9314 106.143 42.231C106.085 42.0685 105.906 41.9815 105.749 42.0395C105.587 42.0975 105.5 42.2716 105.558 42.4341C106.149 44.1113 106.873 45.7188 107.708 47.2103L105.923 50.4486V50.4544Z" fill="url(#paint57_linear_1_396)"/>
<defs>
<linearGradient id="paint0_linear_1_396" x1="41.8877" y1="21.6523" x2="63.7588" y2="45.5643" gradientUnits="userSpaceOnUse">
<stop stop-color="#284C5B"/>
<stop offset="1" stop-color="#051317"/>
</linearGradient>
<linearGradient id="paint1_linear_1_396" x1="55.1411" y1="32.3242" x2="60.308" y2="43.6198" gradientUnits="userSpaceOnUse">
<stop stop-color="#284C5B"/>
<stop offset="1" stop-color="#051317"/>
</linearGradient>
<linearGradient id="paint2_linear_1_396" x1="50.4355" y1="37.4375" x2="64.9136" y2="56.6789" gradientUnits="userSpaceOnUse">
<stop stop-color="#284C5B"/>
<stop offset="1" stop-color="#051317"/>
</linearGradient>
<linearGradient id="paint3_linear_1_396" x1="33.4414" y1="35.4492" x2="34.8827" y2="36.9402" gradientUnits="userSpaceOnUse">
<stop stop-color="#284C5B"/>
<stop offset="1" stop-color="#051317"/>
</linearGradient>
<linearGradient id="paint4_linear_1_396" x1="33.3228" y1="29.2949" x2="34.7609" y2="30.7857" gradientUnits="userSpaceOnUse">
<stop stop-color="#284C5B"/>
<stop offset="1" stop-color="#051317"/>
</linearGradient>
<linearGradient id="paint5_linear_1_396" x1="33.3228" y1="32.377" x2="34.7609" y2="33.8678" gradientUnits="userSpaceOnUse">
<stop stop-color="#284C5B"/>
<stop offset="1" stop-color="#051317"/>
</linearGradient>
<linearGradient id="paint6_linear_1_396" x1="33.3228" y1="23.1367" x2="34.7609" y2="24.6275" gradientUnits="userSpaceOnUse">
<stop stop-color="#284C5B"/>
<stop offset="1" stop-color="#051317"/>
</linearGradient>
<linearGradient id="paint7_linear_1_396" x1="33.3228" y1="26.2129" x2="34.7609" y2="27.7037" gradientUnits="userSpaceOnUse">
<stop stop-color="#284C5B"/>
<stop offset="1" stop-color="#051317"/>
</linearGradient>
<linearGradient id="paint8_linear_1_396" x1="33.3228" y1="20.0566" x2="34.7609" y2="21.5474" gradientUnits="userSpaceOnUse">
<stop stop-color="#284C5B"/>
<stop offset="1" stop-color="#051317"/>
</linearGradient>
<linearGradient id="paint9_linear_1_396" x1="38.3945" y1="49.8633" x2="39.8317" y2="51.3519" gradientUnits="userSpaceOnUse">
<stop stop-color="#284C5B"/>
<stop offset="1" stop-color="#051317"/>
</linearGradient>
<linearGradient id="paint10_linear_1_396" x1="73.2759" y1="47.125" x2="74.7119" y2="48.6113" gradientUnits="userSpaceOnUse">
<stop stop-color="#284C5B"/>
<stop offset="1" stop-color="#051317"/>
</linearGradient>
<linearGradient id="paint11_linear_1_396" x1="33.8613" y1="38.498" x2="35.2997" y2="39.9894" gradientUnits="userSpaceOnUse">
<stop stop-color="#284C5B"/>
<stop offset="1" stop-color="#051317"/>
</linearGradient>
<linearGradient id="paint12_linear_1_396" x1="74.5972" y1="44.3047" x2="76.0332" y2="45.791" gradientUnits="userSpaceOnUse">
<stop stop-color="#284C5B"/>
<stop offset="1" stop-color="#051317"/>
</linearGradient>
<linearGradient id="paint13_linear_1_396" x1="36.7612" y1="47.1133" x2="38.2034" y2="48.6025" gradientUnits="userSpaceOnUse">
<stop stop-color="#284C5B"/>
<stop offset="1" stop-color="#051317"/>
</linearGradient>
<linearGradient id="paint14_linear_1_396" x1="34.5708" y1="41.4941" x2="36.0071" y2="42.9865" gradientUnits="userSpaceOnUse">
<stop stop-color="#284C5B"/>
<stop offset="1" stop-color="#051317"/>
</linearGradient>
<linearGradient id="paint15_linear_1_396" x1="35.4399" y1="44.3027" x2="36.8784" y2="45.7979" gradientUnits="userSpaceOnUse">
<stop stop-color="#284C5B"/>
<stop offset="1" stop-color="#051317"/>
</linearGradient>
<linearGradient id="paint16_linear_1_396" x1="33.3228" y1="16.9727" x2="34.7565" y2="18.4694" gradientUnits="userSpaceOnUse">
<stop stop-color="#284C5B"/>
<stop offset="1" stop-color="#051317"/>
</linearGradient>
<linearGradient id="paint17_linear_1_396" x1="42.189" y1="17.0723" x2="43.6274" y2="18.5636" gradientUnits="userSpaceOnUse">
<stop stop-color="#284C5B"/>
<stop offset="1" stop-color="#051317"/>
</linearGradient>
<linearGradient id="paint18_linear_1_396" x1="45.0679" y1="16.332" x2="46.5049" y2="17.8254" gradientUnits="userSpaceOnUse">
<stop stop-color="#284C5B"/>
<stop offset="1" stop-color="#051317"/>
</linearGradient>
<linearGradient id="paint19_linear_1_396" x1="47.8237" y1="15.2168" x2="49.2662" y2="16.7036" gradientUnits="userSpaceOnUse">
<stop stop-color="#284C5B"/>
<stop offset="1" stop-color="#051317"/>
</linearGradient>
<linearGradient id="paint20_linear_1_396" x1="50.415" y1="13.7559" x2="51.8505" y2="15.2474" gradientUnits="userSpaceOnUse">
<stop stop-color="#284C5B"/>
<stop offset="1" stop-color="#051317"/>
</linearGradient>
<linearGradient id="paint21_linear_1_396" x1="52.7783" y1="11.9609" x2="54.2157" y2="13.4556" gradientUnits="userSpaceOnUse">
<stop stop-color="#284C5B"/>
<stop offset="1" stop-color="#051317"/>
</linearGradient>
<linearGradient id="paint22_linear_1_396" x1="39.2383" y1="17.4316" x2="40.678" y2="18.9191" gradientUnits="userSpaceOnUse">
<stop stop-color="#284C5B"/>
<stop offset="1" stop-color="#051317"/>
</linearGradient>
<linearGradient id="paint23_linear_1_396" x1="36.2705" y1="17.3906" x2="37.711" y2="18.8797" gradientUnits="userSpaceOnUse">
<stop stop-color="#284C5B"/>
<stop offset="1" stop-color="#051317"/>
</linearGradient>
<linearGradient id="paint24_linear_1_396" x1="55.0483" y1="10.0254" x2="56.4884" y2="11.5223" gradientUnits="userSpaceOnUse">
<stop stop-color="#284C5B"/>
<stop offset="1" stop-color="#051317"/>
</linearGradient>
<linearGradient id="paint25_linear_1_396" x1="59.6938" y1="13.75" x2="61.1356" y2="15.2403" gradientUnits="userSpaceOnUse">
<stop stop-color="#284C5B"/>
<stop offset="1" stop-color="#051317"/>
</linearGradient>
<linearGradient id="paint26_linear_1_396" x1="65.0342" y1="16.332" x2="66.4714" y2="17.8202" gradientUnits="userSpaceOnUse">
<stop stop-color="#284C5B"/>
<stop offset="1" stop-color="#051317"/>
</linearGradient>
<linearGradient id="paint27_linear_1_396" x1="62.2769" y1="15.2168" x2="63.7191" y2="16.7097" gradientUnits="userSpaceOnUse">
<stop stop-color="#284C5B"/>
<stop offset="1" stop-color="#051317"/>
</linearGradient>
<linearGradient id="paint28_linear_1_396" x1="70.856" y1="17.4258" x2="72.2954" y2="18.9188" gradientUnits="userSpaceOnUse">
<stop stop-color="#284C5B"/>
<stop offset="1" stop-color="#051317"/>
</linearGradient>
<linearGradient id="paint29_linear_1_396" x1="57.3149" y1="11.9609" x2="58.7531" y2="13.4511" gradientUnits="userSpaceOnUse">
<stop stop-color="#284C5B"/>
<stop offset="1" stop-color="#051317"/>
</linearGradient>
<linearGradient id="paint30_linear_1_396" x1="73.8281" y1="17.3945" x2="75.2693" y2="18.8897" gradientUnits="userSpaceOnUse">
<stop stop-color="#284C5B"/>
<stop offset="1" stop-color="#051317"/>
</linearGradient>
<linearGradient id="paint31_linear_1_396" x1="67.9131" y1="17.0723" x2="69.3515" y2="18.5636" gradientUnits="userSpaceOnUse">
<stop stop-color="#284C5B"/>
<stop offset="1" stop-color="#051317"/>
</linearGradient>
<linearGradient id="paint32_linear_1_396" x1="76.7798" y1="16.9668" x2="78.2195" y2="18.4577" gradientUnits="userSpaceOnUse">
<stop stop-color="#284C5B"/>
<stop offset="1" stop-color="#051317"/>
</linearGradient>
<linearGradient id="paint33_linear_1_396" x1="76.2407" y1="38.498" x2="77.6791" y2="39.9894" gradientUnits="userSpaceOnUse">
<stop stop-color="#284C5B"/>
<stop offset="1" stop-color="#051317"/>
</linearGradient>
<linearGradient id="paint34_linear_1_396" x1="76.7798" y1="32.3652" x2="78.2179" y2="33.856" gradientUnits="userSpaceOnUse">
<stop stop-color="#284C5B"/>
<stop offset="1" stop-color="#051317"/>
</linearGradient>
<linearGradient id="paint35_linear_1_396" x1="76.7798" y1="23.125" x2="78.2179" y2="24.6158" gradientUnits="userSpaceOnUse">
<stop stop-color="#284C5B"/>
<stop offset="1" stop-color="#051317"/>
</linearGradient>
<linearGradient id="paint36_linear_1_396" x1="76.7798" y1="26.207" x2="78.2179" y2="27.6978" gradientUnits="userSpaceOnUse">
<stop stop-color="#284C5B"/>
<stop offset="1" stop-color="#051317"/>
</linearGradient>
<linearGradient id="paint37_linear_1_396" x1="76.7798" y1="20.0449" x2="78.2179" y2="21.5357" gradientUnits="userSpaceOnUse">
<stop stop-color="#284C5B"/>
<stop offset="1" stop-color="#051317"/>
</linearGradient>
<linearGradient id="paint38_linear_1_396" x1="76.6494" y1="35.4375" x2="78.0908" y2="36.9285" gradientUnits="userSpaceOnUse">
<stop stop-color="#284C5B"/>
<stop offset="1" stop-color="#051317"/>
</linearGradient>
<linearGradient id="paint39_linear_1_396" x1="75.5303" y1="41.4961" x2="76.9663" y2="42.9824" gradientUnits="userSpaceOnUse">
<stop stop-color="#284C5B"/>
<stop offset="1" stop-color="#051317"/>
</linearGradient>
<linearGradient id="paint40_linear_1_396" x1="76.7798" y1="29.2891" x2="78.2179" y2="30.7799" gradientUnits="userSpaceOnUse">
<stop stop-color="#284C5B"/>
<stop offset="1" stop-color="#051317"/>
</linearGradient>
<linearGradient id="paint41_linear_1_396" x1="71.7041" y1="49.8594" x2="73.1439" y2="51.3508" gradientUnits="userSpaceOnUse">
<stop stop-color="#284C5B"/>
<stop offset="1" stop-color="#051317"/>
</linearGradient>
<linearGradient id="paint42_linear_1_396" x1="19.084" y1="6.95117" x2="81.8744" y2="85.0061" gradientUnits="userSpaceOnUse">
<stop stop-color="#284C5B"/>
<stop offset="1" stop-color="#051317"/>
</linearGradient>
<linearGradient id="paint43_linear_1_396" x1="67.7334" y1="55.8965" x2="73.91" y2="62.4821" gradientUnits="userSpaceOnUse">
<stop stop-color="#284C5B"/>
<stop offset="1" stop-color="#051317"/>
</linearGradient>
<linearGradient id="paint44_linear_1_396" x1="60.7681" y1="59.0488" x2="67.1463" y2="65.4014" gradientUnits="userSpaceOnUse">
<stop stop-color="#284C5B"/>
<stop offset="1" stop-color="#051317"/>
</linearGradient>
<linearGradient id="paint45_linear_1_396" x1="52.707" y1="60.3262" x2="58.7713" y2="66.9211" gradientUnits="userSpaceOnUse">
<stop stop-color="#284C5B"/>
<stop offset="1" stop-color="#051317"/>
</linearGradient>
<linearGradient id="paint46_linear_1_396" x1="44.8955" y1="59.0313" x2="51.2795" y2="65.3456" gradientUnits="userSpaceOnUse">
<stop stop-color="#284C5B"/>
<stop offset="1" stop-color="#051317"/>
</linearGradient>
<linearGradient id="paint47_linear_1_396" x1="37.6748" y1="55.9082" x2="43.812" y2="62.4971" gradientUnits="userSpaceOnUse">
<stop stop-color="#284C5B"/>
<stop offset="1" stop-color="#051317"/>
</linearGradient>
<linearGradient id="paint48_linear_1_396" x1="0.0185547" y1="0" x2="50.5336" y2="27.7427" gradientUnits="userSpaceOnUse">
<stop stop-color="#284C5B"/>
<stop offset="1" stop-color="#051317"/>
</linearGradient>
<linearGradient id="paint49_linear_1_396" x1="17.6006" y1="5.04688" x2="19.0343" y2="6.54357" gradientUnits="userSpaceOnUse">
<stop stop-color="#284C5B"/>
<stop offset="1" stop-color="#051317"/>
</linearGradient>
<linearGradient id="paint50_linear_1_396" x1="11.9893" y1="1.57813" x2="13.7286" y2="2.08609" gradientUnits="userSpaceOnUse">
<stop stop-color="#284C5B"/>
<stop offset="1" stop-color="#051317"/>
</linearGradient>
<linearGradient id="paint51_linear_1_396" x1="6.98438" y1="14.5625" x2="9.92893" y2="15.1602" gradientUnits="userSpaceOnUse">
<stop stop-color="#284C5B"/>
<stop offset="1" stop-color="#051317"/>
</linearGradient>
<linearGradient id="paint52_linear_1_396" x1="2.75537" y1="42.0215" x2="8.32677" y2="43.863" gradientUnits="userSpaceOnUse">
<stop stop-color="#284C5B"/>
<stop offset="1" stop-color="#051317"/>
</linearGradient>
<linearGradient id="paint53_linear_1_396" x1="80.9697" y1="0" x2="131.511" y2="27.7837" gradientUnits="userSpaceOnUse">
<stop stop-color="#284C5B"/>
<stop offset="1" stop-color="#051317"/>
</linearGradient>
<linearGradient id="paint54_linear_1_396" x1="92.1655" y1="5.03516" x2="93.5992" y2="6.53186" gradientUnits="userSpaceOnUse">
<stop stop-color="#284C5B"/>
<stop offset="1" stop-color="#051317"/>
</linearGradient>
<linearGradient id="paint55_linear_1_396" x1="98.2734" y1="1.57227" x2="100.021" y2="2.08538" gradientUnits="userSpaceOnUse">
<stop stop-color="#284C5B"/>
<stop offset="1" stop-color="#051317"/>
</linearGradient>
<linearGradient id="paint56_linear_1_396" x1="102.739" y1="14.5645" x2="105.683" y2="15.1623" gradientUnits="userSpaceOnUse">
<stop stop-color="#284C5B"/>
<stop offset="1" stop-color="#051317"/>
</linearGradient>
<linearGradient id="paint57_linear_1_396" x1="105.54" y1="42.0215" x2="111.111" y2="43.8631" gradientUnits="userSpaceOnUse">
<stop stop-color="#284C5B"/>
<stop offset="1" stop-color="#051317"/>
</linearGradient>
</defs>
</svg>
