<svg width="265" height="266" viewBox="0 0 265 266" fill="none" xmlns="http://www.w3.org/2000/svg">
<path d="M60.0712 22.8285C59.8312 22.6385 59.5512 22.5885 59.2212 22.6485C58.8912 22.7185 58.4412 22.9185 57.8712 23.2585C57.8412 23.2785 57.7912 23.2385 57.7312 23.1385C57.6712 23.0385 57.6612 22.9685 57.6912 22.9485L59.0712 22.1685C59.8512 21.7585 60.4612 21.4185 60.9112 21.1485C61.4312 20.8485 62.0512 20.4485 62.7912 19.9685L64.0712 19.1785C64.1212 19.1485 64.1812 19.1785 64.2412 19.2885C64.3012 19.3985 64.3112 19.4585 64.2512 19.4885C63.6812 19.8285 63.2912 20.1185 63.0912 20.3785C62.8812 20.6385 62.8012 20.9285 62.8512 21.2385C62.8912 21.5485 63.0712 21.9585 63.3712 22.4785L70.4012 34.3885C70.7112 34.9185 70.9912 35.2785 71.2312 35.4685C71.4712 35.6585 71.7412 35.7085 72.0612 35.6385C72.3812 35.5685 72.8312 35.3585 73.4212 35.0085C73.4912 34.9685 73.5512 35.0085 73.6112 35.0985C73.6712 35.1985 73.6712 35.2685 73.6012 35.3185C73.0512 35.6485 72.6012 35.8985 72.2712 36.0685L70.3712 37.1585L68.5512 38.2685C68.2312 38.4785 67.7812 38.7585 67.2012 39.0985C67.1712 39.1185 67.1212 39.0785 67.0612 38.9785C67.0012 38.8785 66.9912 38.8085 67.0212 38.7885C67.6112 38.4385 68.0112 38.1485 68.2212 37.9085C68.4412 37.6685 68.5212 37.3885 68.4812 37.0785C68.4412 36.7685 68.2612 36.3585 67.9612 35.8385L60.9012 23.8785C60.6012 23.3585 60.3212 23.0085 60.0912 22.8285H60.0712ZM68.6512 17.9785C68.5112 17.7385 68.2612 17.6185 67.9112 17.6385C67.5612 17.6485 67.1212 17.8085 66.6112 18.1085C66.5712 18.1285 66.5312 18.0885 66.4712 17.9885C66.4112 17.8885 66.4012 17.8185 66.4312 17.7985L67.6112 17.1385C68.3912 16.7285 69.0912 16.3385 69.7112 15.9685C70.3812 15.5685 71.0512 15.1485 71.7212 14.7085L72.8212 14.0285C72.8712 13.9985 72.9312 14.0285 72.9912 14.1385C73.0512 14.2485 73.0612 14.3085 73.0012 14.3385C72.2412 14.7885 71.5312 15.4785 70.8712 16.4185C70.2012 17.3585 69.7112 18.4085 69.4012 19.5685L66.7212 30.1385L65.9912 30.4985L68.6612 19.7985C68.8912 18.9685 68.8912 18.3585 68.6612 17.9785H68.6512ZM67.0412 27.5285L67.8712 24.8085L74.7812 27.6585C76.9012 28.5685 78.4512 29.1785 79.4512 29.4885C80.4412 29.7985 81.1612 29.9285 81.6012 29.8785C82.0412 29.8285 82.5512 29.6285 83.1312 29.2885C83.1812 29.2585 83.2412 29.2885 83.3012 29.3985C83.3612 29.4985 83.3712 29.5685 83.3112 29.5985L80.4212 31.3085L79.4312 31.9285C79.1912 32.0685 78.9512 32.1385 78.7212 32.1385C78.4912 32.1385 78.1812 32.0685 77.7912 31.9185C77.4012 31.7785 76.6712 31.4785 75.5912 31.0185L73.6912 30.2185L67.0512 27.5185L67.0412 27.5285Z" fill="url(#paint0_linear_1_363)"/>
<path d="M102.531 22.1884C102.571 22.2984 102.561 22.3684 102.481 22.3984C102.121 22.5284 101.551 22.7284 100.751 22.9884C99.9508 23.2484 99.3708 23.4384 99.0208 23.5784C98.5508 23.7584 98.0108 23.9784 97.3808 24.2584C96.7608 24.5384 96.2708 24.7384 95.9108 24.8784C95.8308 24.9084 95.7808 24.8684 95.7308 24.7484C95.6908 24.6384 95.7008 24.5684 95.7808 24.5384C96.3408 24.3284 96.7208 24.1184 96.9208 23.8984C97.1208 23.6884 97.1608 23.4384 97.0608 23.1584C96.9508 22.8784 96.6208 22.4584 96.0408 21.9084L85.6908 12.1784L86.1308 9.86836L85.2808 24.4784C85.2508 25.1284 85.3208 25.6784 85.4808 26.1284C85.7308 26.7884 86.1508 27.1884 86.7408 27.3484C87.3308 27.5084 88.0508 27.4284 88.9008 27.1184C88.9908 27.0784 89.0608 27.1184 89.1008 27.2384C89.1408 27.3484 89.1208 27.4284 89.0208 27.4584C88.6808 27.5884 88.1908 27.7484 87.5408 27.9484C86.8108 28.1784 86.1908 28.3884 85.6708 28.5884C85.1608 28.7784 84.5808 29.0184 83.9208 29.3084C83.3308 29.5684 82.8508 29.7784 82.4508 29.9284C82.3608 29.9684 82.2908 29.9284 82.2508 29.8084C82.2108 29.6984 82.2308 29.6184 82.3308 29.5884C82.8508 29.3884 83.2608 29.1284 83.5308 28.7884C83.8008 28.4484 84.0208 27.9484 84.1508 27.2884C84.2908 26.6284 84.3908 25.6884 84.4708 24.4584L85.4008 8.59836C85.4208 8.52836 85.4908 8.46836 85.6208 8.41836C85.7508 8.36836 85.8408 8.36836 85.8808 8.41836L97.9708 19.7084C99.1108 20.8184 100.001 21.5384 100.621 21.8684C101.251 22.1984 101.821 22.2684 102.351 22.0684C102.421 22.0384 102.481 22.0784 102.531 22.1984V22.1884ZM85.0608 20.2984L92.9208 17.3384L93.3808 17.9684L84.9608 21.1384L85.0608 20.2984Z" fill="url(#paint1_linear_1_363)"/>
<path d="M126.111 18.2778C126.131 18.3978 126.111 18.4578 126.081 18.4678C125.431 18.5678 124.901 18.6478 124.511 18.6878L122.371 18.9978L120.301 19.3578C119.951 19.4378 119.451 19.5278 118.791 19.6278C118.751 19.6278 118.721 19.5778 118.701 19.4578C118.681 19.3378 118.701 19.2778 118.731 19.2678C119.381 19.1678 119.861 19.0278 120.151 18.8678C120.441 18.7078 120.621 18.4778 120.681 18.1878C120.731 17.8978 120.691 17.4578 120.561 16.8678L117.751 3.43781L118.721 1.18781L114.011 20.1778C113.981 20.2678 113.911 20.3178 113.791 20.3378C113.691 20.3578 113.601 20.3378 113.501 20.2578L102.921 5.70781C102.451 5.03781 101.961 4.56781 101.451 4.30781C100.941 4.04781 100.391 3.95781 99.8008 4.05781C99.7408 4.05781 99.7008 4.01781 99.6808 3.89781C99.6608 3.77781 99.6808 3.71781 99.7408 3.70781L101.021 3.52781C101.281 3.50781 101.621 3.45781 102.031 3.39781L103.391 3.14781C103.561 3.09781 103.771 3.05781 104.011 3.01781C104.271 2.97781 104.491 3.03781 104.681 3.19781C104.871 3.35781 105.181 3.73781 105.621 4.33781L114.391 16.3278L113.481 18.7878L117.911 1.54781C117.981 1.24781 118.081 1.03781 118.201 0.907813C118.321 0.777813 118.481 0.697812 118.681 0.667813C118.821 0.647813 119.001 0.627813 119.221 0.607813C119.441 0.587813 119.711 0.557812 120.021 0.507812L121.611 0.217813C121.861 0.157813 122.241 0.0878125 122.731 0.0078125C122.791 0.0078125 122.831 0.0478125 122.851 0.167813C122.871 0.287813 122.851 0.347813 122.791 0.357812C121.861 0.507812 121.211 0.787813 120.841 1.20781C120.471 1.62781 120.371 2.21781 120.541 3.00781L123.381 16.4378C123.521 17.0478 123.671 17.4778 123.831 17.7278C123.991 17.9778 124.231 18.1378 124.541 18.1878C124.851 18.2378 125.341 18.2078 126.021 18.0978C126.061 18.0978 126.091 18.1478 126.111 18.2678V18.2778ZM102.531 3.97781L103.341 3.90781L105.301 18.1478C105.451 19.1978 105.781 19.9678 106.291 20.4478C106.801 20.9278 107.481 21.1078 108.331 20.9678C108.391 20.9678 108.431 21.0078 108.451 21.1278C108.471 21.2478 108.451 21.3078 108.391 21.3178C107.861 21.4078 107.441 21.4578 107.141 21.4878L105.511 21.7178L103.771 22.0278C103.481 22.0978 103.061 22.1678 102.531 22.2578C102.471 22.2578 102.431 22.2178 102.411 22.0978C102.391 21.9778 102.411 21.9178 102.471 21.9078C103.281 21.7778 103.861 21.3978 104.221 20.7778C104.571 20.1578 104.681 19.3178 104.531 18.2678L102.531 3.97781Z" fill="url(#paint2_linear_1_363)"/>
<path d="M144.591 1.09856C144.751 1.18856 144.841 1.25856 144.881 1.33856C144.921 1.40856 144.951 1.56856 144.981 1.80856L145.211 5.77856C145.211 5.83856 145.161 5.87856 145.061 5.89856C144.961 5.91856 144.891 5.87856 144.851 5.79856C144.381 4.13856 143.651 2.86856 142.651 1.97856C141.651 1.08856 140.391 0.618557 138.871 0.568557C137.391 0.518557 136.071 0.838557 134.911 1.53856C133.751 2.23856 132.821 3.24856 132.141 4.59856C131.461 5.94856 131.081 7.52856 131.021 9.34856C130.961 11.1486 131.251 12.7686 131.881 14.1986C132.511 15.6286 133.411 16.7586 134.561 17.5786C135.711 18.3986 137.031 18.8286 138.511 18.8786C139.971 18.9286 141.201 18.5786 142.191 17.8386C143.181 17.0986 144.081 15.9086 144.871 14.2486C144.891 14.1886 144.951 14.1686 145.051 14.1986C145.151 14.2186 145.201 14.2586 145.201 14.2986L144.691 17.8486C144.641 18.0886 144.601 18.2386 144.551 18.3086C144.511 18.3786 144.411 18.4486 144.241 18.5186C142.421 19.1986 140.491 19.5086 138.451 19.4386C136.331 19.3686 134.451 18.8986 132.791 18.0386C131.141 17.1786 129.861 15.9886 128.971 14.4886C128.081 12.9886 127.661 11.2886 127.731 9.38856C127.791 7.50856 128.331 5.84856 129.351 4.39856C130.371 2.94856 131.741 1.83856 133.471 1.06856C135.201 0.298557 137.121 -0.0614427 139.241 0.00855733C141.461 0.0785573 143.241 0.448557 144.581 1.10856L144.591 1.09856Z" fill="url(#paint3_linear_1_363)"/>
<path d="M152.621 2.56929C152.561 2.26929 152.381 2.02929 152.071 1.84929C151.761 1.66929 151.271 1.50929 150.581 1.34929C150.541 1.34929 150.531 1.27929 150.561 1.15929C150.591 1.03929 150.621 0.989291 150.661 0.999291L152.211 1.36929C153.101 1.60929 153.801 1.77929 154.311 1.88929C154.991 2.03929 155.811 2.19929 156.761 2.35929L158.291 2.65929C158.291 2.65929 158.341 2.72929 158.311 2.84929C158.281 2.96929 158.251 3.01929 158.211 3.00929C157.511 2.85929 156.971 2.79929 156.601 2.83929C156.231 2.87929 155.951 3.02929 155.771 3.28929C155.581 3.53929 155.421 3.96929 155.291 4.54929L152.331 18.0593C152.201 18.6493 152.161 19.0893 152.221 19.3993C152.281 19.7093 152.461 19.9493 152.781 20.1193C153.101 20.2893 153.621 20.4593 154.341 20.6193C154.381 20.6193 154.391 20.6893 154.361 20.8093C154.331 20.9293 154.301 20.9793 154.261 20.9693C153.601 20.8193 153.081 20.6993 152.711 20.5993L150.311 20.0393L148.161 19.5993C147.781 19.5393 147.261 19.4293 146.601 19.2893C146.561 19.2893 146.551 19.2193 146.581 19.0993C146.611 18.9793 146.641 18.9293 146.681 18.9393C147.381 19.0893 147.911 19.1593 148.271 19.1293C148.621 19.0993 148.891 18.9593 149.071 18.7093C149.251 18.4493 149.401 18.0293 149.531 17.4393L152.501 3.86929C152.631 3.27929 152.661 2.83929 152.611 2.53929L152.621 2.56929ZM152.481 10.2193L165.321 13.0293L165.151 13.7893L152.311 10.9793L152.481 10.2193ZM165.471 5.42929C165.411 5.11929 165.221 4.86929 164.901 4.67929C164.571 4.48929 164.051 4.30929 163.331 4.14929C163.271 4.13929 163.251 4.06929 163.281 3.95929C163.311 3.83929 163.351 3.78929 163.411 3.79929L164.811 4.13929C165.741 4.37929 166.561 4.58929 167.291 4.73929C167.821 4.85929 168.531 4.98929 169.441 5.14929L171.061 5.46929C171.121 5.47929 171.141 5.54929 171.111 5.66929C171.081 5.78929 171.041 5.83929 170.981 5.82929C170.281 5.67929 169.751 5.61929 169.391 5.64929C169.031 5.68929 168.771 5.82929 168.591 6.06929C168.411 6.31929 168.261 6.73929 168.131 7.31929L165.161 20.8893C165.031 21.4793 164.991 21.9193 165.051 22.2293C165.111 22.5393 165.291 22.7793 165.601 22.9493C165.911 23.1193 166.421 23.2793 167.121 23.4393C167.181 23.4493 167.201 23.5193 167.171 23.6293C167.141 23.7493 167.101 23.7993 167.041 23.7893C166.381 23.6393 165.841 23.5193 165.441 23.4093L163.311 22.9093L160.811 22.3893C160.451 22.3293 159.981 22.2393 159.401 22.1093C159.341 22.0993 159.321 22.0293 159.351 21.9093C159.381 21.7893 159.421 21.7393 159.481 21.7493C160.221 21.9093 160.781 21.9793 161.141 21.9593C161.501 21.9393 161.771 21.7993 161.951 21.5393C162.131 21.2793 162.281 20.8593 162.411 20.2693L165.371 6.75929C165.501 6.16929 165.541 5.72929 165.481 5.41929L165.471 5.42929Z" fill="url(#paint4_linear_1_363)"/>
<path d="M187.041 32.0985C186.991 32.2085 186.931 32.2485 186.861 32.2185C186.511 32.0685 185.961 31.8085 185.201 31.4485C184.441 31.0785 183.891 30.8185 183.541 30.6785C183.081 30.4785 182.531 30.2685 181.891 30.0385C181.251 29.8085 180.751 29.6185 180.411 29.4685C180.341 29.4385 180.321 29.3685 180.371 29.2585C180.421 29.1485 180.481 29.1085 180.551 29.1385C181.101 29.3785 181.521 29.4885 181.811 29.4685C182.101 29.4485 182.301 29.3085 182.421 29.0285C182.541 28.7485 182.581 28.2185 182.551 27.4185L181.801 13.2285L183.721 11.8585L173.001 21.8285C172.521 22.2785 172.191 22.7185 172.001 23.1685C171.721 23.8085 171.751 24.3985 172.061 24.9285C172.381 25.4585 172.951 25.8985 173.781 26.2485C173.871 26.2885 173.891 26.3585 173.851 26.4685C173.811 26.5785 173.731 26.6185 173.641 26.5785C173.311 26.4385 172.841 26.2185 172.231 25.9085C171.551 25.5785 170.951 25.2985 170.431 25.0785C169.931 24.8685 169.351 24.6385 168.671 24.3885C168.071 24.1785 167.571 23.9785 167.181 23.8185C167.091 23.7785 167.071 23.7085 167.111 23.5985C167.161 23.4885 167.231 23.4485 167.321 23.4885C167.831 23.7085 168.311 23.7885 168.751 23.7385C169.191 23.6885 169.681 23.4685 170.241 23.0885C170.801 22.7085 171.521 22.0985 172.421 21.2685L184.061 10.4485C184.121 10.4085 184.211 10.4185 184.341 10.4685C184.471 10.5185 184.531 10.5785 184.531 10.6485L185.461 27.1685C185.521 28.7585 185.661 29.8885 185.891 30.5585C186.111 31.2285 186.481 31.6785 187.001 31.8985C187.071 31.9285 187.091 31.9985 187.041 32.1085V32.0985ZM175.731 18.6485L183.451 21.9485L183.351 22.7185L175.071 19.1785L175.721 18.6385L175.731 18.6485Z" fill="url(#paint5_linear_1_363)"/>
<path d="M196.161 18.3393C195.101 18.5593 194.001 19.1993 192.851 20.2493C192.821 20.2993 192.761 20.2893 192.671 20.2293C192.581 20.1593 192.551 20.1093 192.571 20.0793C193.051 19.4593 193.661 18.6593 194.401 17.6593C195.141 16.6593 195.671 15.9093 196.001 15.3893C196.051 15.3093 196.131 15.2893 196.221 15.3493C196.311 15.4093 196.331 15.4793 196.281 15.5593C196.051 15.9293 196.401 16.4193 197.361 17.0093C198.791 17.9693 200.481 19.0593 202.431 20.2793C203.431 20.8993 204.501 21.5493 205.641 22.2193L207.391 23.2693C208.031 23.6693 208.531 23.9193 208.881 24.0193C209.231 24.1193 209.531 24.0693 209.771 23.8693C209.831 23.8093 209.901 23.8093 209.991 23.8693C210.071 23.9193 210.101 23.9793 210.051 24.0493C209.671 24.5393 209.121 25.3093 208.401 26.3493C207.681 27.3893 207.121 28.2393 206.701 28.8993C206.681 28.9293 206.621 28.9193 206.531 28.8593C206.441 28.7993 206.391 28.7493 206.401 28.7093C207.051 27.2993 207.251 26.0893 207.011 25.0793C206.771 24.0693 206.111 23.2293 205.041 22.5593C204.571 22.2593 204.191 22.0893 203.911 22.0293C203.631 21.9693 203.381 22.0293 203.161 22.1793C202.941 22.3393 202.691 22.6493 202.411 23.1093L195.091 34.8393C194.771 35.3493 194.591 35.7593 194.551 36.0793C194.511 36.3993 194.611 36.6893 194.861 36.9693C195.111 37.2493 195.571 37.5893 196.231 37.9993C196.281 38.0293 196.271 38.0993 196.211 38.1993C196.151 38.2993 196.091 38.3393 196.041 38.3093C195.451 37.9393 194.991 37.6393 194.661 37.4093L192.591 36.0793L190.591 34.8693C190.221 34.6593 189.721 34.3693 189.101 33.9693C189.071 33.9493 189.081 33.8893 189.141 33.7893C189.201 33.6893 189.251 33.6493 189.291 33.6693C189.951 34.0793 190.471 34.3393 190.831 34.4593C191.201 34.5693 191.511 34.5393 191.781 34.3593C192.041 34.1793 192.331 33.8393 192.651 33.3293L200.011 21.5493C200.291 21.1093 200.451 20.7593 200.491 20.4893C200.541 20.2193 200.471 19.9893 200.301 19.7693C200.131 19.5493 199.801 19.2993 199.331 18.9993C198.291 18.3493 197.251 18.1393 196.191 18.3693L196.161 18.3393Z" fill="url(#paint6_linear_1_363)"/>
<path d="M214.071 29.5484C214.171 29.2684 214.141 28.9784 213.971 28.6784C213.801 28.3884 213.471 28.0184 212.981 27.5884C212.951 27.5584 212.981 27.5084 213.051 27.4184C213.131 27.3284 213.181 27.2984 213.211 27.3184L214.381 28.3884C215.011 28.9984 215.531 29.4784 215.921 29.8184C216.371 30.2184 216.941 30.6884 217.631 31.2384L218.781 32.2084C218.781 32.2084 218.811 32.3084 218.731 32.4084C218.651 32.4984 218.591 32.5284 218.541 32.4884C218.041 32.0484 217.641 31.7784 217.331 31.6584C217.021 31.5384 216.721 31.5584 216.441 31.6984C216.161 31.8384 215.821 32.1284 215.421 32.5784L206.281 42.9584C205.871 43.4284 205.611 43.7984 205.511 44.0784C205.411 44.3584 205.441 44.6384 205.611 44.9184C205.781 45.1984 206.111 45.5584 206.631 46.0084C206.691 46.0584 206.681 46.1284 206.601 46.2184C206.521 46.3084 206.451 46.3284 206.391 46.2784C205.911 45.8584 205.531 45.5084 205.261 45.2484L203.641 43.7784L202.021 42.3984C201.721 42.1584 201.321 41.8184 200.811 41.3684C200.781 41.3384 200.811 41.2884 200.881 41.1984C200.961 41.1084 201.011 41.0784 201.041 41.0984C201.551 41.5484 201.951 41.8384 202.251 41.9684C202.551 42.0984 202.841 42.0984 203.121 41.9584C203.401 41.8184 203.741 41.5284 204.141 41.0784L213.321 30.6484C213.721 30.1984 213.971 29.8284 214.071 29.5484ZM221.351 36.1984C221.541 35.9884 221.571 35.7184 221.451 35.3884C221.331 35.0584 221.041 34.6884 220.591 34.2984C220.561 34.2684 220.591 34.2184 220.661 34.1284C220.731 34.0384 220.791 34.0084 220.821 34.0284L221.811 34.9384C222.441 35.5484 223.031 36.0984 223.571 36.5684C224.161 37.0884 224.761 37.5884 225.391 38.0884L226.381 38.9184C226.381 38.9184 226.411 39.0184 226.331 39.1084C226.251 39.1984 226.191 39.2284 226.141 39.1884C225.481 38.6084 224.601 38.1484 223.501 37.8084C222.401 37.4684 221.251 37.3284 220.051 37.3884L209.171 38.1284L208.601 37.5484L219.601 36.7584C220.461 36.7184 221.041 36.5284 221.331 36.1984H221.351ZM211.771 37.6384L214.611 37.5884L214.041 45.0484C213.831 47.3384 213.741 49.0084 213.751 50.0484C213.771 51.0884 213.871 51.8084 214.051 52.2084C214.231 52.6084 214.581 53.0284 215.091 53.4784C215.131 53.5184 215.121 53.5784 215.041 53.6684C214.961 53.7584 214.901 53.7884 214.851 53.7484L212.331 51.5284L211.431 50.7784C211.221 50.5984 211.081 50.3884 211.011 50.1684C210.941 49.9484 210.911 49.6284 210.931 49.2184C210.951 48.8084 211.001 48.0184 211.101 46.8484L211.271 44.7984L211.771 37.6484V37.6384Z" fill="url(#paint7_linear_1_363)"/>
<path d="M227.911 69.6882C227.821 69.7682 227.741 69.7682 227.701 69.7082C227.461 69.4082 227.091 68.9282 226.601 68.2482C226.111 67.5682 225.741 67.0782 225.501 66.7882C225.191 66.3982 224.801 65.9482 224.341 65.4482C223.881 64.9482 223.531 64.5382 223.301 64.2482C223.251 64.1882 223.271 64.1182 223.361 64.0382C223.451 63.9582 223.531 63.9582 223.581 64.0182C223.961 64.4882 224.281 64.7782 224.541 64.8982C224.801 65.0182 225.051 64.9882 225.291 64.7982C225.521 64.6082 225.821 64.1582 226.161 63.4382L232.171 50.5582L234.511 50.2582L220.361 54.0082C219.731 54.1782 219.231 54.4182 218.851 54.7182C218.301 55.1582 218.051 55.6882 218.081 56.2982C218.111 56.9082 218.411 57.5682 218.981 58.2682C219.041 58.3482 219.031 58.4182 218.931 58.4982C218.831 58.5782 218.761 58.5682 218.701 58.4982C218.471 58.2182 218.161 57.7982 217.771 57.2482C217.321 56.6282 216.931 56.0982 216.581 55.6682C216.241 55.2482 215.831 54.7682 215.351 54.2282C214.921 53.7582 214.571 53.3582 214.311 53.0282C214.251 52.9482 214.261 52.8782 214.361 52.7982C214.461 52.7182 214.531 52.7282 214.591 52.7982C214.941 53.2382 215.321 53.5282 215.731 53.6882C216.141 53.8482 216.681 53.8882 217.351 53.8082C218.021 53.7282 218.951 53.5382 220.131 53.2282L235.491 49.1582C235.561 49.1582 235.641 49.1982 235.731 49.3082C235.821 49.4182 235.841 49.4982 235.811 49.5482L228.861 64.5582C228.161 65.9882 227.761 67.0582 227.641 67.7582C227.521 68.4582 227.641 69.0282 227.991 69.4582C228.041 69.5182 228.021 69.5882 227.921 69.6682L227.911 69.6882ZM224.251 52.4982L229.511 59.0482L229.061 59.6782L223.421 52.6682L224.251 52.4982Z" fill="url(#paint8_linear_1_363)"/>
<path d="M254.961 83.4179C254.961 83.5979 254.931 83.7179 254.881 83.7879C254.831 83.8579 254.711 83.9579 254.511 84.0979L251.081 86.1079C251.031 86.1379 250.971 86.1079 250.911 86.0279C250.851 85.9479 250.851 85.8679 250.911 85.7979C252.171 84.6279 252.971 83.3979 253.311 82.0979C253.651 80.7979 253.491 79.4579 252.851 78.0879C252.221 76.7479 251.331 75.7179 250.181 74.9979C249.031 74.2779 247.701 73.9179 246.191 73.9279C244.681 73.9279 243.101 74.3279 241.451 75.0979C239.821 75.8679 238.521 76.8579 237.531 78.0779C236.541 79.2979 235.951 80.5979 235.751 81.9979C235.551 83.3979 235.761 84.7679 236.391 86.1079C237.011 87.4279 237.881 88.3579 238.991 88.9079C240.101 89.4579 241.571 89.7079 243.411 89.6579C243.471 89.6579 243.521 89.6979 243.541 89.7979C243.561 89.8979 243.561 89.9579 243.521 89.9679L240.121 91.1379C239.891 91.2079 239.731 91.2379 239.651 91.2279C239.571 91.2279 239.461 91.1579 239.321 91.0479C237.881 89.7379 236.731 88.1579 235.861 86.3079C234.961 84.3879 234.511 82.4979 234.531 80.6379C234.551 78.7679 235.021 77.0979 235.951 75.6279C236.881 74.1479 238.201 73.0079 239.921 72.1979C241.621 71.3979 243.351 71.1179 245.101 71.3679C246.851 71.6179 248.471 72.3279 249.941 73.5079C251.411 74.6879 252.611 76.2379 253.511 78.1579C254.461 80.1679 254.941 81.9179 254.961 83.4079V83.4179Z" fill="url(#paint9_linear_1_363)"/>
<path d="M257.311 91.259C257.551 91.069 257.681 90.799 257.701 90.439C257.721 90.079 257.641 89.569 257.461 88.889C257.451 88.849 257.501 88.819 257.621 88.789C257.741 88.759 257.801 88.759 257.811 88.799L258.181 90.349C258.371 91.249 258.541 91.949 258.671 92.449C258.851 93.129 259.081 93.929 259.361 94.839L259.781 96.339C259.781 96.339 259.741 96.409 259.621 96.439C259.501 96.469 259.441 96.469 259.431 96.429C259.251 95.729 259.051 95.229 258.851 94.919C258.641 94.609 258.391 94.429 258.071 94.379C257.761 94.329 257.311 94.379 256.731 94.529L243.351 98.029C242.771 98.179 242.351 98.349 242.101 98.539C241.851 98.729 241.721 99.009 241.711 99.369C241.711 99.729 241.791 100.269 241.981 100.989C241.981 101.029 241.941 101.059 241.821 101.089C241.701 101.119 241.641 101.119 241.631 101.079C241.461 100.419 241.331 99.909 241.261 99.529L240.671 97.139L240.091 95.029C239.971 94.669 239.831 94.159 239.661 93.499C239.661 93.459 239.701 93.429 239.821 93.399C239.941 93.369 240.001 93.369 240.011 93.409C240.191 94.109 240.371 94.609 240.561 94.909C240.741 95.209 240.991 95.389 241.301 95.429C241.611 95.469 242.061 95.419 242.641 95.269L256.081 91.749C256.661 91.599 257.071 91.429 257.311 91.239V91.259ZM260.601 104.009C260.851 103.819 260.991 103.539 261.011 103.159C261.031 102.779 260.951 102.229 260.771 101.519C260.761 101.459 260.811 101.419 260.921 101.389C261.031 101.359 261.101 101.369 261.121 101.429L261.461 102.829C261.661 103.769 261.861 104.599 262.051 105.309C262.191 105.829 262.391 106.529 262.661 107.409L263.111 108.999C263.131 109.059 263.071 109.099 262.961 109.129C262.841 109.159 262.781 109.149 262.761 109.089C262.581 108.389 262.391 107.889 262.201 107.589C262.011 107.289 261.761 107.119 261.461 107.069C261.161 107.029 260.721 107.069 260.141 107.229L246.701 110.749C246.121 110.899 245.701 111.069 245.451 111.259C245.201 111.449 245.071 111.719 245.061 112.079C245.051 112.439 245.141 112.959 245.321 113.659C245.331 113.719 245.281 113.759 245.171 113.789C245.061 113.819 244.991 113.809 244.971 113.749C244.801 113.089 244.671 112.559 244.581 112.149L244.051 110.019L243.371 107.559C243.261 107.219 243.131 106.759 242.981 106.169C242.971 106.109 243.021 106.069 243.131 106.039C243.251 106.009 243.311 106.019 243.331 106.079C243.521 106.819 243.711 107.339 243.901 107.649C244.091 107.959 244.331 108.139 244.651 108.179C244.961 108.219 245.411 108.169 245.991 108.019L259.371 104.519C259.951 104.369 260.371 104.199 260.621 104.009H260.601ZM250.431 94.609L253.761 107.319L253.011 107.519L249.681 94.809L250.431 94.609Z" fill="url(#paint10_linear_1_363)"/>
<path d="M246.671 135.319C246.551 135.319 246.491 135.289 246.481 135.209C246.451 134.829 246.431 134.219 246.411 133.379C246.391 132.539 246.371 131.929 246.341 131.549C246.311 131.049 246.251 130.459 246.161 129.789C246.071 129.119 246.021 128.589 245.991 128.209C245.991 128.129 246.041 128.089 246.161 128.079C246.281 128.079 246.341 128.109 246.351 128.189C246.391 128.789 246.481 129.209 246.631 129.459C246.781 129.709 247.001 129.829 247.301 129.799C247.601 129.779 248.101 129.569 248.791 129.189L261.081 122.059L263.171 123.149L249.411 118.139C248.791 117.919 248.251 117.829 247.771 117.859C247.071 117.909 246.561 118.189 246.241 118.719C245.911 119.239 245.781 119.949 245.851 120.849C245.851 120.949 245.801 120.999 245.681 121.009C245.561 121.009 245.501 120.969 245.491 120.869C245.471 120.509 245.451 119.989 245.441 119.309C245.431 118.549 245.401 117.889 245.361 117.329C245.321 116.789 245.261 116.159 245.171 115.449C245.091 114.809 245.031 114.289 245.001 113.869C245.001 113.769 245.051 113.719 245.171 113.709C245.291 113.709 245.351 113.749 245.361 113.849C245.401 114.409 245.541 114.869 245.791 115.229C246.041 115.589 246.461 115.939 247.051 116.259C247.641 116.579 248.521 116.949 249.671 117.369L264.601 122.809C264.661 122.849 264.701 122.929 264.711 123.069C264.711 123.209 264.701 123.289 264.641 123.319L250.361 131.669C248.971 132.449 248.031 133.089 247.531 133.589C247.031 134.089 246.811 134.629 246.841 135.189C246.841 135.269 246.791 135.309 246.671 135.319ZM253.491 119.119L254.071 127.499L253.341 127.759L252.721 118.779L253.491 119.119Z" fill="url(#paint11_linear_1_363)"/>
<path d="M247.131 140.848C246.871 140.928 246.691 141.088 246.591 141.348C246.491 141.598 246.411 142.018 246.361 142.588L246.201 144.378C246.081 145.798 246.361 147.018 247.071 148.068C247.771 149.108 248.771 149.858 250.081 150.288C250.121 150.288 250.141 150.328 250.131 150.408C250.131 150.448 250.111 150.488 250.071 150.538C250.031 150.588 250.011 150.608 249.991 150.608C248.171 150.268 246.641 150.038 245.381 149.928C245.221 149.918 245.111 149.878 245.041 149.808C244.981 149.738 244.951 149.618 244.971 149.438L246.201 135.448C246.201 135.448 246.261 135.398 246.381 135.408C246.501 135.418 246.561 135.448 246.551 135.488C246.491 136.168 246.501 136.658 246.571 136.978C246.641 137.298 246.821 137.518 247.101 137.658C247.381 137.788 247.821 137.888 248.421 137.938L262.261 139.158C262.861 139.208 263.301 139.198 263.591 139.108C263.881 139.028 264.091 138.828 264.231 138.518C264.371 138.208 264.471 137.728 264.521 137.068C264.521 137.028 264.581 137.018 264.701 137.028C264.821 137.038 264.881 137.068 264.871 137.108L264.711 138.628C264.591 139.498 264.511 140.218 264.461 140.778C264.411 141.378 264.361 142.118 264.331 142.998L264.231 144.498C264.231 144.558 264.161 144.578 264.041 144.568C263.921 144.558 263.861 144.518 263.871 144.458C263.931 143.798 263.921 143.308 263.831 142.978C263.751 142.648 263.571 142.418 263.291 142.288C263.011 142.148 262.571 142.058 261.971 142.008L248.281 140.808C247.761 140.758 247.371 140.778 247.121 140.858L247.131 140.848Z" fill="url(#paint12_linear_1_363)"/>
<path d="M244.881 151.269C245.001 151.299 245.051 151.339 245.041 151.399C244.891 152.059 244.821 152.559 244.851 152.879C244.881 153.209 245.021 153.449 245.281 153.629C245.541 153.809 245.961 153.959 246.541 154.089L260.081 157.209C260.661 157.339 261.111 157.389 261.401 157.349C261.701 157.309 261.941 157.139 262.111 156.849C262.281 156.559 262.451 156.099 262.601 155.449C262.611 155.389 262.681 155.379 262.801 155.399C262.921 155.419 262.971 155.469 262.961 155.529L260.161 167.689C260.121 167.879 260.001 167.959 259.831 167.919L256.021 167.099C256.021 167.099 255.971 167.029 255.981 166.919C255.991 166.809 256.031 166.749 256.101 166.749C258.411 166.789 259.821 165.699 260.331 163.479L260.611 162.279C260.781 161.559 260.761 161.029 260.581 160.689C260.391 160.349 260.001 160.109 259.391 159.969L246.031 156.889C245.391 156.739 244.911 156.759 244.601 156.949C244.291 157.129 244.061 157.539 243.921 158.159L243.591 159.589C242.991 162.199 243.861 164.149 246.221 165.429C246.261 165.429 246.271 165.489 246.241 165.589C246.211 165.729 246.161 165.789 246.111 165.769C244.671 165.229 243.341 164.819 242.111 164.539C241.951 164.499 241.851 164.449 241.791 164.369C241.731 164.289 241.731 164.169 241.771 163.999L244.691 151.309C244.701 151.249 244.771 151.239 244.891 151.259L244.881 151.269ZM252.011 161.189L252.951 157.099L253.711 157.269L252.761 161.389C252.271 163.529 252.741 164.769 254.181 165.099C254.241 165.109 254.261 165.169 254.231 165.279C254.211 165.389 254.161 165.429 254.111 165.419L251.571 164.799L250.191 164.509C249.561 164.409 249.051 164.309 248.661 164.219C248.621 164.219 248.621 164.149 248.641 164.029C248.671 163.909 248.701 163.859 248.741 163.869C250.421 164.259 251.511 163.359 252.011 161.169V161.189Z" fill="url(#paint13_linear_1_363)"/>
<path d="M256.161 174.809C255.751 173.809 254.931 172.839 253.691 171.889C253.631 171.869 253.631 171.809 253.691 171.709C253.751 171.609 253.781 171.569 253.821 171.589C254.521 171.949 255.421 172.409 256.521 172.949C257.621 173.489 258.471 173.879 259.041 174.109C259.131 174.149 259.161 174.219 259.121 174.319C259.081 174.419 259.011 174.449 258.921 174.419C258.511 174.259 258.101 174.699 257.691 175.739C257.001 177.319 256.231 179.169 255.381 181.309C254.941 182.409 254.501 183.579 254.051 184.819L253.331 186.729C253.051 187.439 252.891 187.969 252.861 188.329C252.821 188.689 252.931 188.969 253.171 189.179C253.241 189.229 253.251 189.299 253.211 189.389C253.171 189.479 253.121 189.509 253.041 189.489C252.491 189.199 251.631 188.799 250.491 188.279C249.341 187.759 248.401 187.359 247.681 187.069C247.641 187.059 247.641 186.999 247.681 186.899C247.721 186.799 247.761 186.739 247.811 186.739C249.311 187.119 250.541 187.099 251.491 186.689C252.441 186.279 253.151 185.479 253.611 184.309C253.821 183.789 253.921 183.389 253.931 183.099C253.941 182.809 253.841 182.579 253.651 182.389C253.451 182.199 253.111 182.009 252.601 181.809L239.751 176.709C239.191 176.489 238.751 176.379 238.441 176.399C238.121 176.409 237.851 176.569 237.631 176.869C237.401 177.169 237.151 177.679 236.861 178.399C236.841 178.459 236.771 178.459 236.661 178.419C236.551 178.379 236.501 178.329 236.531 178.269C236.791 177.619 237.001 177.109 237.171 176.749L238.111 174.469L238.941 172.279C239.081 171.879 239.281 171.339 239.551 170.649C239.561 170.609 239.631 170.619 239.741 170.659C239.851 170.699 239.901 170.739 239.891 170.779C239.601 171.509 239.441 172.059 239.391 172.439C239.351 172.819 239.431 173.119 239.661 173.349C239.891 173.579 240.271 173.799 240.831 174.019L253.741 179.149C254.221 179.339 254.601 179.439 254.871 179.439C255.141 179.439 255.361 179.329 255.541 179.129C255.721 178.919 255.911 178.559 256.121 178.039C256.571 176.909 256.591 175.839 256.181 174.839L256.161 174.809Z" fill="url(#paint14_linear_1_363)"/>
<path d="M230.591 206.768C230.731 206.848 230.871 206.948 231.011 207.068C231.131 207.168 231.241 207.268 231.321 207.368C231.411 207.468 231.441 207.528 231.411 207.558L222.491 218.048C222.491 218.048 222.391 218.058 222.261 217.988C222.131 217.918 222.001 217.828 221.871 217.708C221.751 217.608 221.641 217.498 221.541 217.378C221.441 217.258 221.411 217.178 221.441 217.148L230.341 206.678C230.341 206.678 230.451 206.678 230.591 206.758V206.768Z" fill="url(#paint15_linear_1_363)"/>
<path d="M198.451 237.089L197.631 239.819L190.701 237.009C188.581 236.109 187.021 235.509 186.021 235.209C185.021 234.909 184.311 234.779 183.871 234.829C183.431 234.879 182.921 235.079 182.341 235.429C182.291 235.459 182.231 235.429 182.171 235.319C182.111 235.219 182.101 235.149 182.151 235.119L185.031 233.399L186.021 232.769C186.261 232.629 186.501 232.549 186.731 232.549C186.961 232.549 187.271 232.619 187.661 232.759C188.051 232.899 188.781 233.189 189.871 233.639L191.771 234.419L198.431 237.079L198.451 237.089ZM205.451 241.749C205.691 241.929 205.971 241.989 206.301 241.919C206.631 241.849 207.081 241.649 207.651 241.309C207.681 241.289 207.731 241.329 207.791 241.429C207.851 241.529 207.871 241.599 207.831 241.619L206.451 242.409C205.671 242.829 205.061 243.169 204.621 243.439C204.111 243.749 203.481 244.149 202.751 244.629L201.481 245.429C201.431 245.459 201.371 245.429 201.311 245.319C201.251 245.219 201.241 245.149 201.291 245.119C201.861 244.779 202.241 244.479 202.451 244.219C202.661 243.959 202.731 243.669 202.691 243.359C202.641 243.049 202.471 242.639 202.161 242.119L195.061 230.249C194.741 229.719 194.461 229.359 194.231 229.179C193.991 228.999 193.711 228.939 193.401 229.009C193.081 229.079 192.631 229.289 192.051 229.639C191.981 229.679 191.921 229.639 191.851 229.549C191.791 229.449 191.791 229.379 191.861 229.329C192.411 228.999 192.851 228.749 193.191 228.569L195.091 227.469L196.901 226.349C197.221 226.139 197.671 225.859 198.251 225.509C198.291 225.489 198.331 225.529 198.391 225.629C198.451 225.729 198.471 225.799 198.431 225.819C197.851 226.169 197.451 226.469 197.231 226.709C197.021 226.959 196.931 227.229 196.981 227.539C197.031 227.849 197.201 228.259 197.511 228.779L204.641 240.699C204.951 241.209 205.221 241.559 205.461 241.749H205.451ZM196.901 246.649C197.041 246.889 197.291 246.999 197.651 246.989C198.001 246.979 198.441 246.819 198.951 246.509C198.981 246.489 199.031 246.529 199.091 246.629C199.151 246.729 199.171 246.799 199.131 246.819L197.961 247.489C197.181 247.909 196.491 248.299 195.871 248.669C195.201 249.069 194.531 249.489 193.871 249.939L192.781 250.629C192.731 250.659 192.671 250.629 192.611 250.519C192.551 250.419 192.541 250.349 192.601 250.319C193.361 249.869 194.061 249.169 194.721 248.229C195.381 247.289 195.861 246.229 196.171 245.069L198.791 234.489L199.521 234.129L196.911 244.849C196.691 245.679 196.691 246.289 196.911 246.669L196.901 246.649Z" fill="url(#paint16_linear_1_363)"/>
<path d="M162.991 242.638C162.951 242.528 162.961 242.458 163.041 242.428C163.391 242.288 163.971 242.098 164.771 241.828C165.571 241.558 166.151 241.368 166.501 241.228C166.971 241.048 167.511 240.818 168.131 240.538C168.751 240.258 169.241 240.048 169.591 239.918C169.671 239.888 169.721 239.928 169.771 240.038C169.811 240.148 169.801 240.218 169.721 240.248C169.161 240.458 168.781 240.678 168.581 240.888C168.381 241.098 168.341 241.348 168.451 241.628C168.561 241.908 168.901 242.328 169.471 242.878L179.881 252.548L179.451 254.868L180.221 240.248C180.251 239.598 180.181 239.048 180.011 238.598C179.761 237.948 179.341 237.538 178.741 237.378C178.141 237.218 177.431 237.298 176.591 237.628C176.501 237.668 176.431 237.628 176.381 237.518C176.341 237.408 176.361 237.328 176.461 237.298C176.801 237.168 177.291 236.998 177.941 236.798C178.661 236.568 179.291 236.348 179.811 236.148C180.311 235.958 180.891 235.708 181.551 235.418C182.131 235.148 182.621 234.948 183.011 234.798C183.101 234.758 183.171 234.798 183.221 234.908C183.261 235.018 183.241 235.098 183.141 235.128C182.621 235.328 182.221 235.598 181.941 235.938C181.661 236.278 181.461 236.778 181.331 237.438C181.201 238.098 181.101 239.038 181.031 240.268L180.191 256.138C180.171 256.208 180.101 256.268 179.971 256.318C179.841 256.368 179.751 256.368 179.711 256.318L167.551 245.098C166.401 243.998 165.511 243.278 164.881 242.958C164.251 242.628 163.681 242.568 163.151 242.768C163.081 242.798 163.021 242.758 162.971 242.638H162.991ZM180.471 244.428L172.621 247.428L172.161 246.808L180.571 243.598L180.471 244.438V244.428Z" fill="url(#paint17_linear_1_363)"/>
<path d="M139.451 246.688C139.431 246.568 139.441 246.508 139.481 246.498C140.131 246.388 140.661 246.308 141.051 246.268L143.191 245.938L145.261 245.558C145.611 245.478 146.111 245.388 146.761 245.278C146.801 245.278 146.831 245.328 146.851 245.448C146.871 245.568 146.861 245.628 146.821 245.638C146.171 245.748 145.701 245.878 145.401 246.048C145.101 246.208 144.931 246.438 144.881 246.728C144.831 247.018 144.881 247.458 145.011 248.048L147.901 261.468L146.941 263.728L151.541 244.708C151.571 244.618 151.641 244.568 151.761 244.548C151.861 244.528 151.951 244.548 152.051 244.618L162.721 259.108C163.201 259.778 163.691 260.238 164.201 260.498C164.711 260.758 165.261 260.838 165.851 260.738C165.911 260.738 165.951 260.778 165.971 260.898C165.991 261.018 165.971 261.078 165.911 261.088L164.631 261.268C164.371 261.288 164.031 261.338 163.621 261.408L162.261 261.668C162.091 261.718 161.881 261.758 161.641 261.798C161.381 261.838 161.161 261.778 160.971 261.618C160.781 261.458 160.461 261.078 160.021 260.488L151.181 248.558L152.081 246.098L147.761 263.368C147.691 263.668 147.591 263.878 147.471 264.008C147.351 264.138 147.191 264.218 146.991 264.258C146.851 264.278 146.671 264.298 146.451 264.318C146.231 264.338 145.961 264.368 145.651 264.418L144.061 264.718C143.811 264.778 143.431 264.858 142.941 264.938C142.881 264.948 142.841 264.898 142.821 264.778C142.801 264.658 142.821 264.598 142.881 264.588C143.811 264.428 144.451 264.148 144.821 263.728C145.191 263.308 145.281 262.708 145.111 261.928L142.191 248.518C142.051 247.918 141.891 247.478 141.731 247.228C141.571 246.968 141.331 246.818 141.011 246.768C140.701 246.718 140.211 246.748 139.541 246.858C139.501 246.858 139.471 246.808 139.451 246.688ZM163.121 260.858L162.311 260.928L160.261 246.698C160.101 245.648 159.771 244.888 159.251 244.408C158.731 243.928 158.051 243.758 157.201 243.898C157.141 243.898 157.101 243.858 157.081 243.738C157.061 243.618 157.081 243.558 157.141 243.548C157.671 243.458 158.091 243.398 158.391 243.368L160.021 243.128L161.761 242.808C162.051 242.738 162.471 242.658 163.001 242.568C163.061 242.568 163.101 242.608 163.121 242.728C163.141 242.848 163.121 242.908 163.061 242.918C162.251 243.058 161.671 243.438 161.321 244.058C160.971 244.688 160.871 245.518 161.031 246.568L163.121 260.848V260.858Z" fill="url(#paint18_linear_1_363)"/>
<path d="M121.061 263.969C120.901 263.889 120.801 263.809 120.771 263.739C120.731 263.669 120.701 263.509 120.661 263.269L120.411 259.299C120.411 259.239 120.461 259.199 120.561 259.179C120.661 259.159 120.731 259.189 120.771 259.279C121.251 260.929 121.991 262.199 122.991 263.089C124.001 263.979 125.261 264.439 126.781 264.479C128.261 264.519 129.581 264.189 130.741 263.489C131.901 262.789 132.821 261.759 133.491 260.409C134.171 259.059 134.531 257.469 134.581 255.649C134.631 253.849 134.331 252.239 133.691 250.809C133.051 249.379 132.151 248.259 130.991 247.449C129.831 246.639 128.511 246.209 127.031 246.169C125.571 246.129 124.351 246.479 123.361 247.229C122.371 247.969 121.481 249.179 120.701 250.829C120.681 250.889 120.621 250.909 120.521 250.889C120.421 250.869 120.371 250.839 120.371 250.799L120.861 247.239C120.911 246.999 120.951 246.849 120.991 246.779C121.031 246.709 121.131 246.639 121.301 246.559C123.121 245.869 125.051 245.549 127.091 245.609C129.211 245.669 131.101 246.119 132.761 246.979C134.421 247.829 135.701 249.009 136.601 250.499C137.501 251.989 137.921 253.689 137.871 255.589C137.821 257.469 137.291 259.129 136.281 260.589C135.271 262.039 133.901 263.159 132.181 263.949C130.461 264.729 128.541 265.099 126.421 265.039C124.201 264.979 122.421 264.619 121.081 263.969H121.061Z" fill="url(#paint19_linear_1_363)"/>
<path d="M100.131 259.759C100.191 260.069 100.381 260.319 100.711 260.509C101.041 260.699 101.561 260.879 102.291 261.029C102.351 261.039 102.371 261.109 102.341 261.229C102.321 261.349 102.271 261.399 102.211 261.389L100.811 261.059C99.8809 260.819 99.0509 260.619 98.3309 260.469C97.8009 260.359 97.0809 260.219 96.1809 260.069L94.5609 259.759C94.5009 259.749 94.4809 259.679 94.5109 259.569C94.5309 259.449 94.5809 259.399 94.6409 259.409C95.3409 259.559 95.8709 259.619 96.2309 259.579C96.5909 259.539 96.8509 259.399 97.0309 259.149C97.2109 258.899 97.3609 258.479 97.4809 257.899L100.371 244.319C100.491 243.729 100.531 243.279 100.471 242.979C100.411 242.669 100.231 242.429 99.9209 242.259C99.6109 242.089 99.1009 241.929 98.4009 241.779C98.3409 241.769 98.3209 241.699 98.3509 241.589C98.3709 241.469 98.4209 241.419 98.4809 241.429C99.1509 241.569 99.6809 241.699 100.091 241.799L102.231 242.289L104.731 242.789C105.091 242.839 105.561 242.939 106.141 243.059C106.201 243.069 106.221 243.139 106.191 243.249C106.171 243.369 106.121 243.419 106.061 243.409C105.321 243.249 104.761 243.189 104.401 243.209C104.041 243.239 103.771 243.379 103.591 243.639C103.411 243.899 103.261 244.319 103.141 244.909L100.261 258.439C100.141 259.029 100.101 259.469 100.161 259.779L100.131 259.759ZM113.101 254.899L100.251 252.159L100.411 251.399L113.261 254.139L113.101 254.899ZM113.001 262.549C113.061 262.849 113.241 263.089 113.551 263.269C113.861 263.449 114.361 263.609 115.041 263.759C115.081 263.759 115.091 263.829 115.061 263.949C115.031 264.069 115.001 264.119 114.961 264.109L113.411 263.749C112.521 263.519 111.821 263.349 111.311 263.239C110.631 263.089 109.811 262.939 108.861 262.779L107.331 262.489C107.331 262.489 107.281 262.419 107.311 262.299C107.331 262.179 107.371 262.129 107.411 262.139C108.111 262.289 108.651 262.339 109.021 262.299C109.391 262.259 109.671 262.099 109.851 261.849C110.041 261.589 110.191 261.169 110.321 260.579L113.201 247.049C113.321 246.459 113.361 246.009 113.301 245.709C113.241 245.399 113.051 245.159 112.731 244.989C112.411 244.819 111.891 244.659 111.161 244.499C111.121 244.499 111.111 244.429 111.141 244.309C111.161 244.189 111.201 244.139 111.241 244.149C111.911 244.289 112.421 244.409 112.791 244.509L115.191 245.049L117.341 245.479C117.721 245.539 118.241 245.639 118.901 245.779C118.941 245.779 118.951 245.849 118.921 245.969C118.901 246.089 118.861 246.139 118.821 246.129C118.121 245.979 117.591 245.919 117.231 245.949C116.881 245.979 116.611 246.119 116.431 246.379C116.251 246.639 116.101 247.059 115.981 247.649L113.091 261.229C112.971 261.819 112.931 262.259 112.991 262.559L113.001 262.549Z" fill="url(#paint20_linear_1_363)"/>
<path d="M78.4409 233.229C78.4909 233.119 78.5509 233.079 78.6209 233.109C78.9709 233.259 79.5309 233.509 80.2809 233.869C81.0409 234.229 81.5909 234.489 81.9409 234.629C82.4009 234.819 82.9509 235.029 83.5909 235.259C84.2309 235.489 84.7309 235.669 85.0809 235.819C85.1509 235.849 85.1709 235.919 85.1209 236.029C85.0709 236.139 85.0109 236.179 84.9409 236.149C84.3909 235.919 83.9709 235.809 83.6709 235.829C83.3809 235.849 83.1809 235.999 83.0609 236.269C82.9409 236.539 82.9009 237.079 82.9409 237.879L83.7809 252.059L81.8709 253.439L92.5309 243.409C93.0009 242.959 93.3309 242.509 93.5209 242.069C93.7909 241.419 93.7709 240.839 93.4409 240.309C93.1209 239.779 92.5409 239.349 91.7109 238.999C91.6209 238.959 91.5909 238.889 91.6409 238.779C91.6909 238.669 91.7609 238.629 91.8509 238.669C92.1809 238.809 92.6509 239.029 93.2709 239.329C93.9609 239.659 94.5609 239.939 95.0709 240.149C95.5709 240.359 96.1609 240.579 96.8409 240.829C97.4509 241.039 97.9409 241.229 98.3309 241.389C98.4209 241.429 98.4509 241.499 98.4009 241.609C98.3509 241.719 98.2809 241.759 98.1909 241.719C97.6709 241.499 97.2009 241.419 96.7609 241.479C96.3209 241.539 95.8309 241.759 95.2809 242.139C94.7309 242.529 94.0009 243.139 93.1109 243.979L81.5409 254.859C81.4809 254.899 81.3909 254.889 81.2609 254.839C81.1309 254.789 81.0709 254.729 81.0709 254.659L80.0409 238.149C79.9709 236.559 79.8209 235.429 79.6009 234.759C79.3709 234.089 79.0009 233.649 78.4809 233.429C78.4109 233.399 78.3909 233.329 78.4409 233.219V233.229ZM89.8309 246.609L82.0909 243.349L82.1909 242.579L90.4909 246.069L89.8409 246.609H89.8309Z" fill="url(#paint21_linear_1_363)"/>
<path d="M69.401 247.04C70.461 246.81 71.561 246.17 72.701 245.11C72.731 245.06 72.791 245.07 72.881 245.13C72.971 245.2 73.001 245.25 72.981 245.28C72.501 245.9 71.901 246.71 71.171 247.71C70.441 248.7 69.911 249.47 69.591 249.99C69.541 250.07 69.461 250.09 69.371 250.03C69.281 249.97 69.261 249.9 69.311 249.82C69.541 249.44 69.181 248.96 68.231 248.38C66.801 247.43 65.101 246.35 63.141 245.14C62.141 244.52 61.061 243.88 59.921 243.22L58.171 242.18C57.521 241.78 57.021 241.53 56.671 241.43C56.321 241.33 56.021 241.38 55.781 241.59C55.721 241.65 55.651 241.65 55.561 241.59C55.481 241.54 55.451 241.48 55.501 241.41C55.881 240.91 56.421 240.14 57.131 239.1C57.841 238.06 58.401 237.21 58.811 236.54C58.831 236.51 58.891 236.52 58.981 236.58C59.071 236.64 59.121 236.69 59.111 236.73C58.471 238.15 58.281 239.36 58.521 240.37C58.771 241.38 59.431 242.21 60.501 242.88C60.981 243.17 61.361 243.35 61.641 243.41C61.921 243.47 62.171 243.41 62.391 243.25C62.611 243.09 62.861 242.78 63.141 242.32L70.401 230.55C70.711 230.04 70.891 229.63 70.931 229.31C70.971 229 70.871 228.7 70.611 228.43C70.361 228.16 69.901 227.81 69.231 227.41C69.181 227.38 69.191 227.31 69.251 227.21C69.311 227.11 69.371 227.07 69.421 227.1C70.021 227.47 70.481 227.76 70.811 227.99L72.891 229.31L74.901 230.51C75.271 230.71 75.771 231.01 76.401 231.4C76.431 231.42 76.421 231.48 76.361 231.58C76.301 231.68 76.251 231.72 76.211 231.7C75.551 231.29 75.031 231.03 74.661 230.92C74.291 230.81 73.981 230.85 73.711 231.02C73.451 231.2 73.161 231.54 72.841 232.05L65.551 243.88C65.281 244.32 65.121 244.68 65.071 244.94C65.021 245.2 65.091 245.44 65.261 245.66C65.431 245.87 65.761 246.13 66.241 246.42C67.281 247.06 68.331 247.26 69.381 247.04H69.401Z" fill="url(#paint22_linear_1_363)"/>
<path d="M44.1112 229.338C43.9312 229.548 43.9012 229.818 44.0212 230.148C44.1412 230.478 44.4312 230.838 44.8812 231.238C44.9112 231.268 44.8812 231.318 44.8112 231.418C44.7412 231.518 44.6812 231.538 44.6512 231.518L43.6512 230.608C43.0112 229.998 42.4212 229.458 41.8812 228.988C41.2912 228.478 40.6812 227.968 40.0512 227.478L39.0612 226.658C39.0612 226.658 39.0312 226.558 39.1112 226.458C39.1912 226.368 39.2512 226.338 39.3012 226.378C39.9612 226.958 40.8512 227.408 41.9512 227.748C43.0512 228.088 44.2012 228.218 45.4012 228.148L56.2712 227.348L56.8412 227.928L45.8412 228.778C44.9812 228.828 44.4012 229.008 44.1112 229.348V229.338ZM51.4312 235.938C51.3312 236.218 51.3612 236.508 51.5312 236.798C51.7012 237.088 52.0312 237.458 52.5312 237.888C52.5612 237.918 52.5312 237.968 52.4612 238.058C52.3812 238.148 52.3312 238.178 52.3012 238.158L51.1212 237.088C50.4812 236.478 49.9712 236.008 49.5712 235.668C49.1212 235.278 48.5512 234.808 47.8612 234.258L46.7112 233.298C46.7112 233.298 46.6812 233.198 46.7612 233.098C46.8412 233.008 46.9012 232.978 46.9512 233.018C47.4512 233.448 47.8512 233.728 48.1712 233.838C48.4812 233.948 48.7812 233.938 49.0612 233.798C49.3412 233.658 49.6812 233.358 50.0712 232.908L59.1412 222.468C59.5512 221.998 59.8012 221.628 59.9012 221.338C60.0012 221.058 59.9712 220.778 59.8012 220.498C59.6312 220.218 59.2912 219.858 58.7812 219.408C58.7212 219.358 58.7312 219.288 58.8112 219.198C58.8912 219.108 58.9612 219.088 59.0212 219.138C59.5012 219.558 59.8812 219.898 60.1512 220.168L61.7812 221.628L63.4112 223.008C63.7112 223.238 64.1212 223.578 64.6312 224.028C64.6612 224.058 64.6312 224.108 64.5612 224.198C64.4812 224.288 64.4312 224.318 64.4012 224.298C63.8912 223.848 63.4812 223.568 63.1812 223.438C62.8812 223.308 62.5912 223.318 62.3112 223.458C62.0312 223.598 61.6912 223.898 61.3012 224.348L52.1912 234.828C51.8012 235.278 51.5512 235.648 51.4512 235.928L51.4312 235.938ZM53.6812 227.838L50.8412 227.908L51.3612 220.448C51.5512 218.148 51.6412 216.488 51.6212 215.448C51.6012 214.408 51.4912 213.688 51.3112 213.288C51.1312 212.888 50.7812 212.468 50.2612 212.018C50.2112 211.978 50.2312 211.918 50.3112 211.828C50.3912 211.738 50.4512 211.708 50.5012 211.748L53.0412 213.958L53.9412 214.708C54.1512 214.888 54.2912 215.098 54.3712 215.318C54.4412 215.538 54.4712 215.858 54.4612 216.268C54.4512 216.678 54.4012 217.468 54.3112 218.638L54.1612 220.688L53.7012 227.848L53.6812 227.838Z" fill="url(#paint23_linear_1_363)"/>
<path d="M37.3408 195.867C37.4308 195.787 37.5108 195.787 37.5608 195.847C37.8008 196.137 38.1708 196.627 38.6708 197.307C39.1708 197.987 39.5408 198.467 39.7808 198.767C40.1008 199.157 40.4808 199.597 40.9408 200.097C41.4008 200.597 41.7508 200.997 41.9908 201.297C42.0408 201.357 42.0208 201.427 41.9308 201.507C41.8408 201.587 41.7608 201.587 41.7108 201.527C41.3308 201.057 41.0108 200.767 40.7408 200.647C40.4808 200.527 40.2308 200.567 39.9908 200.747C39.7608 200.937 39.4708 201.387 39.1208 202.107L33.1908 215.017L30.8508 215.327L44.9808 211.497C45.6108 211.317 46.1108 211.077 46.4808 210.777C47.0208 210.337 47.2808 209.807 47.2408 209.197C47.2008 208.577 46.9008 207.927 46.3308 207.227C46.2708 207.147 46.2808 207.077 46.3808 206.997C46.4708 206.917 46.5508 206.927 46.6108 206.997C46.8408 207.277 47.1508 207.697 47.5508 208.247C48.0008 208.867 48.4008 209.387 48.7508 209.817C49.0908 210.237 49.5008 210.707 49.9908 211.247C50.4308 211.717 50.7808 212.117 51.0408 212.447C51.1008 212.527 51.0908 212.597 50.9908 212.677C50.9008 212.757 50.8208 212.757 50.7608 212.677C50.4108 212.247 50.0208 211.947 49.6108 211.787C49.2008 211.627 48.6608 211.597 47.9908 211.677C47.3208 211.757 46.3908 211.957 45.2108 212.277L29.8808 216.437C29.8108 216.437 29.7308 216.397 29.6408 216.287C29.5508 216.177 29.5208 216.097 29.5608 216.047L36.4208 200.997C37.1108 199.557 37.5108 198.497 37.6208 197.797C37.7408 197.097 37.6208 196.527 37.2608 196.097C37.2108 196.037 37.2308 195.967 37.3208 195.887L37.3408 195.867ZM41.1008 213.037L35.8008 206.517L36.2508 205.877L41.9308 212.857L41.1008 213.027V213.037Z" fill="url(#paint24_linear_1_363)"/>
<path d="M10.2109 182.308C10.2109 182.128 10.2409 182.008 10.2809 181.938C10.3209 181.868 10.4509 181.768 10.6509 181.628L14.0709 179.588C14.1209 179.558 14.1809 179.588 14.2409 179.668C14.3009 179.748 14.3009 179.828 14.2409 179.898C12.9909 181.078 12.1909 182.318 11.8609 183.618C11.5309 184.918 11.6909 186.258 12.3509 187.628C12.9909 188.958 13.8809 189.988 15.0409 190.698C16.2009 191.408 17.5209 191.758 19.0309 191.748C20.5409 191.738 22.1209 191.328 23.7609 190.548C25.3809 189.768 26.6809 188.768 27.6609 187.548C28.6409 186.328 29.2209 185.018 29.4209 183.618C29.6209 182.218 29.3909 180.848 28.7509 179.518C28.1209 178.198 27.2509 177.268 26.1309 176.728C25.0209 176.188 23.5409 175.948 21.7109 175.998C21.6509 175.998 21.6009 175.958 21.5809 175.858C21.5609 175.758 21.5609 175.698 21.6009 175.688L24.9909 174.498C25.2209 174.428 25.3809 174.398 25.4609 174.408C25.5409 174.408 25.6509 174.468 25.7909 174.578C27.2309 175.878 28.4009 177.458 29.2809 179.298C30.2009 181.208 30.6509 183.098 30.6509 184.968C30.6509 186.838 30.1809 188.508 29.2609 189.988C28.3409 191.468 27.0209 192.618 25.3109 193.438C23.6109 194.248 21.8909 194.538 20.1409 194.298C18.3909 194.058 16.7709 193.358 15.2909 192.178C13.8109 191.008 12.6109 189.458 11.6909 187.548C10.7309 185.548 10.2409 183.798 10.2109 182.298V182.308Z" fill="url(#paint25_linear_1_363)"/>
<path d="M4.45102 161.738C4.20102 161.928 4.07102 162.218 4.04102 162.598C4.02102 162.978 4.10102 163.528 4.29102 164.238C4.31102 164.298 4.26102 164.338 4.14102 164.368C4.02102 164.398 3.96102 164.388 3.94102 164.328L3.60102 162.928C3.39102 161.988 3.19102 161.168 3.00102 160.448C2.86102 159.928 2.65102 159.228 2.37102 158.348L1.91102 156.758C1.89102 156.698 1.94102 156.658 2.06102 156.628C2.18102 156.598 2.24102 156.608 2.26102 156.668C2.45102 157.368 2.64102 157.858 2.83102 158.158C3.02102 158.458 3.27102 158.628 3.57102 158.668C3.87102 158.708 4.31102 158.658 4.89102 158.498L18.311 154.898C18.891 154.738 19.301 154.568 19.551 154.378C19.801 154.188 19.931 153.918 19.941 153.558C19.941 153.208 19.861 152.678 19.671 151.988C19.651 151.928 19.701 151.888 19.821 151.858C19.941 151.828 20.001 151.838 20.021 151.898C20.201 152.558 20.331 153.088 20.421 153.498L20.961 155.618L21.651 158.078C21.761 158.418 21.901 158.878 22.051 159.458C22.071 159.518 22.021 159.558 21.901 159.588C21.781 159.618 21.721 159.608 21.701 159.548C21.501 158.818 21.311 158.288 21.121 157.978C20.931 157.668 20.681 157.488 20.371 157.448C20.061 157.408 19.611 157.468 19.031 157.618L5.67102 161.198C5.09102 161.358 4.68102 161.528 4.43102 161.718L4.45102 161.738ZM7.82102 174.468C7.58102 174.658 7.45102 174.928 7.43102 175.288C7.41102 175.648 7.49102 176.158 7.67102 176.838C7.68102 176.878 7.63102 176.908 7.51102 176.938C7.39102 176.968 7.33102 176.968 7.32102 176.928L6.94102 175.388C6.74102 174.488 6.57102 173.788 6.44102 173.288C6.26102 172.608 6.02102 171.818 5.74102 170.898L5.31102 169.398C5.31102 169.398 5.35102 169.328 5.47102 169.298C5.59102 169.268 5.65102 169.268 5.66102 169.308C5.85102 170.008 6.04102 170.508 6.25102 170.808C6.46102 171.118 6.72102 171.298 7.03102 171.348C7.34102 171.398 7.79102 171.348 8.37102 171.188L21.731 167.608C22.311 167.448 22.721 167.278 22.971 167.088C23.221 166.898 23.351 166.618 23.351 166.258C23.351 165.898 23.261 165.358 23.071 164.638C23.061 164.598 23.111 164.568 23.231 164.528C23.351 164.498 23.411 164.498 23.421 164.538C23.601 165.198 23.721 165.708 23.801 166.078L24.411 168.458L25.011 170.568C25.131 170.928 25.271 171.438 25.451 172.098C25.461 172.138 25.411 172.168 25.291 172.208C25.171 172.238 25.111 172.238 25.101 172.198C24.911 171.498 24.731 171.008 24.541 170.698C24.361 170.398 24.111 170.228 23.801 170.188C23.491 170.148 23.041 170.208 22.461 170.358L9.04102 173.958C8.46102 174.118 8.05102 174.288 7.81102 174.478L7.82102 174.468ZM14.681 171.078L11.281 158.388L12.031 158.188L15.431 170.878L14.681 171.078Z" fill="url(#paint26_linear_1_363)"/>
<path d="M18.2007 130.359C18.3207 130.359 18.3807 130.389 18.3907 130.469C18.4207 130.849 18.4407 131.459 18.4707 132.299C18.4907 133.139 18.5207 133.749 18.5507 134.129C18.5907 134.629 18.6507 135.219 18.7407 135.889C18.8307 136.569 18.8907 137.089 18.9207 137.469C18.9207 137.549 18.8707 137.589 18.7507 137.599C18.6307 137.599 18.5707 137.569 18.5607 137.489C18.5207 136.889 18.4207 136.469 18.2707 136.219C18.1207 135.969 17.9007 135.859 17.6007 135.879C17.3007 135.899 16.8007 136.109 16.1107 136.499L3.86074 143.709L1.76074 142.629L15.5507 147.549C16.1707 147.759 16.7207 147.849 17.1907 147.819C17.8907 147.769 18.4007 147.479 18.7207 146.949C19.0407 146.419 19.1707 145.709 19.1007 144.819C19.1007 144.719 19.1507 144.669 19.2707 144.659C19.3907 144.649 19.4507 144.699 19.4607 144.799C19.4907 145.159 19.5107 145.679 19.5207 146.359C19.5407 147.119 19.5707 147.779 19.6107 148.339C19.6507 148.879 19.7207 149.509 19.8107 150.219C19.9007 150.859 19.9607 151.379 19.9907 151.799C19.9907 151.899 19.9407 151.949 19.8207 151.959C19.7007 151.959 19.6407 151.919 19.6307 151.819C19.5907 151.259 19.4407 150.799 19.2007 150.439C18.9507 150.079 18.5307 149.739 17.9407 149.419C17.3407 149.099 16.4707 148.739 15.3207 148.319L0.350737 142.979C0.290737 142.939 0.250737 142.859 0.240737 142.719C0.230737 142.579 0.250737 142.499 0.310737 142.469L14.5407 134.029C15.9307 133.239 16.8607 132.599 17.3607 132.089C17.8507 131.579 18.0807 131.049 18.0407 130.489C18.0407 130.409 18.0907 130.369 18.2107 130.359H18.2007ZM11.4707 146.599L10.8407 138.219L11.5707 137.949L12.2407 146.929L11.4607 146.599H11.4707Z" fill="url(#paint27_linear_1_363)"/>
<path d="M17.7111 124.819C17.9711 124.739 18.1511 124.569 18.2511 124.319C18.3511 124.069 18.4311 123.649 18.4711 123.069L18.6211 121.279C18.7411 119.859 18.4411 118.639 17.7311 117.589C17.0211 116.549 16.0111 115.809 14.7111 115.379C14.6711 115.379 14.6511 115.339 14.6611 115.259C14.6611 115.219 14.6811 115.179 14.7211 115.129C14.7511 115.079 14.7811 115.059 14.8011 115.059C16.6211 115.389 18.1611 115.609 19.4111 115.709C19.5711 115.719 19.6811 115.759 19.7511 115.829C19.8211 115.899 19.8411 116.019 19.8311 116.199L18.6811 130.189C18.6811 130.189 18.6211 130.239 18.5011 130.229C18.3811 130.219 18.3211 130.189 18.3311 130.149C18.3911 129.469 18.3811 128.979 18.3011 128.659C18.2311 128.339 18.0511 128.119 17.7711 127.979C17.4911 127.849 17.0511 127.759 16.4511 127.709L2.61108 126.569C2.01108 126.519 1.57107 126.539 1.28108 126.629C0.991075 126.719 0.781075 126.919 0.641075 127.219C0.501075 127.529 0.411075 128.009 0.351075 128.669C0.351075 128.709 0.291075 128.719 0.171075 128.709C0.0510751 128.699 -0.0089249 128.679 0.0010751 128.639L0.161075 127.119C0.271075 126.249 0.351075 125.529 0.401075 124.969C0.451075 124.369 0.491075 123.629 0.521075 122.749L0.611075 121.249C0.611075 121.189 0.681075 121.169 0.801075 121.179C0.921075 121.179 0.981075 121.219 0.971075 121.279C0.921075 121.939 0.931075 122.429 1.01108 122.759C1.09108 123.089 1.28108 123.319 1.56108 123.449C1.84108 123.579 2.28108 123.669 2.88108 123.719L16.5711 124.849C17.0911 124.889 17.4811 124.869 17.7311 124.799L17.7111 124.819Z" fill="url(#paint28_linear_1_363)"/>
<path d="M19.901 114.388C19.781 114.358 19.731 114.318 19.741 114.258C19.891 113.598 19.951 113.098 19.921 112.778C19.891 112.458 19.751 112.208 19.491 112.038C19.231 111.868 18.811 111.718 18.221 111.588L4.67105 108.548C4.08105 108.418 3.64105 108.378 3.35105 108.418C3.06105 108.458 2.82105 108.628 2.64105 108.918C2.46105 109.208 2.30105 109.668 2.16105 110.318C2.15105 110.378 2.08105 110.398 1.96105 110.368C1.84105 110.338 1.79105 110.298 1.80105 110.238L4.53105 98.0584C4.57105 97.8684 4.68105 97.7884 4.86105 97.8284L8.68105 98.6184C8.68105 98.6184 8.73105 98.6884 8.72105 98.7984C8.71105 98.9084 8.67105 98.9684 8.60105 98.9684C6.29105 98.9384 4.89105 100.038 4.39105 102.268L4.12105 103.468C3.96105 104.188 3.97105 104.718 4.16105 105.058C4.35105 105.398 4.75105 105.638 5.35105 105.768L18.731 108.768C19.371 108.908 19.851 108.888 20.161 108.708C20.471 108.518 20.691 108.118 20.831 107.488L21.151 106.058C21.741 103.438 20.851 101.498 18.491 100.238C18.451 100.238 18.441 100.178 18.461 100.078C18.491 99.9384 18.541 99.8784 18.591 99.8884C20.031 100.418 21.361 100.818 22.591 101.088C22.751 101.128 22.851 101.178 22.911 101.248C22.971 101.318 22.9711 101.448 22.931 101.618L20.081 114.328C20.071 114.388 20.001 114.398 19.881 114.378L19.901 114.388ZM12.711 104.508L11.791 108.608L11.031 108.438L11.951 104.308C12.431 102.158 11.951 100.928 10.511 100.598C10.451 100.588 10.431 100.528 10.461 100.418C10.481 100.308 10.531 100.268 10.581 100.278L13.121 100.878L14.501 101.158C15.131 101.258 15.651 101.348 16.041 101.438C16.081 101.438 16.091 101.508 16.061 101.628C16.031 101.748 16.001 101.798 15.961 101.788C14.281 101.408 13.201 102.318 12.711 104.498V104.508Z" fill="url(#paint29_linear_1_363)"/>
<path d="M8.48129 90.909C8.90129 91.909 9.73129 92.879 10.9713 93.809C11.0313 93.829 11.0313 93.889 10.9713 93.989C10.9213 94.089 10.8813 94.129 10.8413 94.119C10.1413 93.759 9.24129 93.309 8.13129 92.769C7.02129 92.229 6.18129 91.849 5.60129 91.619C5.51129 91.579 5.48129 91.509 5.52129 91.409C5.56129 91.309 5.63129 91.269 5.72129 91.309C6.13129 91.469 6.54129 91.029 6.95129 89.979C7.63129 88.399 8.39129 86.5391 9.23129 84.399C9.66129 83.299 10.1013 82.129 10.5413 80.889L11.2513 78.979C11.5313 78.269 11.6813 77.739 11.7213 77.369C11.7513 77.009 11.6513 76.729 11.4113 76.519C11.3413 76.469 11.3313 76.399 11.3613 76.309C11.4013 76.219 11.4513 76.189 11.5313 76.209C12.0913 76.489 12.9413 76.889 14.0913 77.399C15.2413 77.909 16.1813 78.309 16.9113 78.599C16.9513 78.609 16.9513 78.669 16.9113 78.779C16.8713 78.889 16.8313 78.939 16.7813 78.939C15.2713 78.569 14.0413 78.589 13.1013 79.019C12.1613 79.449 11.4513 80.239 10.9913 81.419C10.7913 81.939 10.6813 82.349 10.6813 82.629C10.6813 82.919 10.7713 83.149 10.9713 83.339C11.1713 83.519 11.5213 83.719 12.0213 83.909L24.9013 88.939C25.4613 89.159 25.9013 89.259 26.2113 89.239C26.5313 89.219 26.8013 89.069 27.0213 88.769C27.2413 88.469 27.5013 87.959 27.7813 87.229C27.8013 87.169 27.8713 87.169 27.9813 87.209C28.0913 87.249 28.1413 87.299 28.1113 87.359C27.8613 88.009 27.6513 88.519 27.4813 88.889L26.5613 91.169L25.7413 93.359C25.6113 93.759 25.4013 94.299 25.1413 94.989C25.1313 95.029 25.0613 95.019 24.9513 94.989C24.8413 94.949 24.7913 94.909 24.8013 94.869C25.0813 94.139 25.2513 93.589 25.2913 93.209C25.3313 92.829 25.2413 92.529 25.0213 92.299C24.8013 92.069 24.4113 91.849 23.8513 91.629L10.9113 86.579C10.4313 86.389 10.0513 86.299 9.78129 86.299C9.51129 86.299 9.29129 86.409 9.11129 86.619C8.93129 86.829 8.74129 87.199 8.54129 87.719C8.10129 88.859 8.08129 89.919 8.50129 90.919L8.48129 90.909Z" fill="url(#paint30_linear_1_363)"/>
<path d="M33.8508 58.8284C33.7108 58.7484 33.5708 58.6484 33.4308 58.5384C33.3108 58.4384 33.2008 58.3384 33.1208 58.2384C33.0308 58.1384 33.0008 58.0784 33.0308 58.0484L41.8908 47.5084C41.8908 47.5084 41.9908 47.4984 42.1208 47.5584C42.2508 47.6284 42.3808 47.7184 42.5208 47.8284C42.6408 47.9284 42.7508 48.0384 42.8508 48.1584C42.9508 48.2784 42.9808 48.3484 42.9508 48.3784L34.1108 58.8984C34.1108 58.8984 34.0008 58.8984 33.8608 58.8284H33.8508Z" fill="url(#paint31_linear_1_363)"/>
<defs>
<linearGradient id="paint0_linear_1_363" x1="57.6748" y1="14.0176" x2="83.985" y2="41.9733" gradientUnits="userSpaceOnUse">
<stop stop-color="#284C5B"/>
<stop offset="1" stop-color="#051317"/>
</linearGradient>
<linearGradient id="paint1_linear_1_363" x1="82.2314" y1="8.38086" x2="104.882" y2="30.5422" gradientUnits="userSpaceOnUse">
<stop stop-color="#284C5B"/>
<stop offset="1" stop-color="#051317"/>
</linearGradient>
<linearGradient id="paint2_linear_1_363" x1="99.6733" y1="0.0078125" x2="122.545" y2="28.2283" gradientUnits="userSpaceOnUse">
<stop stop-color="#284C5B"/>
<stop offset="1" stop-color="#051317"/>
</linearGradient>
<linearGradient id="paint3_linear_1_363" x1="127.724" y1="0" x2="148.11" y2="19.0295" gradientUnits="userSpaceOnUse">
<stop stop-color="#284C5B"/>
<stop offset="1" stop-color="#051317"/>
</linearGradient>
<linearGradient id="paint4_linear_1_363" x1="146.563" y1="0.998047" x2="170.363" y2="27.621" gradientUnits="userSpaceOnUse">
<stop stop-color="#284C5B"/>
<stop offset="1" stop-color="#051317"/>
</linearGradient>
<linearGradient id="paint5_linear_1_363" x1="167.091" y1="10.4238" x2="189.973" y2="32.1871" gradientUnits="userSpaceOnUse">
<stop stop-color="#284C5B"/>
<stop offset="1" stop-color="#051317"/>
</linearGradient>
<linearGradient id="paint6_linear_1_363" x1="189.084" y1="15.3145" x2="213.221" y2="38.1768" gradientUnits="userSpaceOnUse">
<stop stop-color="#284C5B"/>
<stop offset="1" stop-color="#051317"/>
</linearGradient>
<linearGradient id="paint7_linear_1_363" x1="200.799" y1="27.3125" x2="228.594" y2="55.2217" gradientUnits="userSpaceOnUse">
<stop stop-color="#284C5B"/>
<stop offset="1" stop-color="#051317"/>
</linearGradient>
<linearGradient id="paint8_linear_1_363" x1="214.274" y1="49.1582" x2="235.837" y2="72.5839" gradientUnits="userSpaceOnUse">
<stop stop-color="#284C5B"/>
<stop offset="1" stop-color="#051317"/>
</linearGradient>
<linearGradient id="paint9_linear_1_363" x1="234.53" y1="71.2793" x2="255.454" y2="93.5226" gradientUnits="userSpaceOnUse">
<stop stop-color="#284C5B"/>
<stop offset="1" stop-color="#051317"/>
</linearGradient>
<linearGradient id="paint10_linear_1_363" x1="239.661" y1="88.7676" x2="265.959" y2="114.34" gradientUnits="userSpaceOnUse">
<stop stop-color="#284C5B"/>
<stop offset="1" stop-color="#051317"/>
</linearGradient>
<linearGradient id="paint11_linear_1_363" x1="245.001" y1="113.709" x2="267.673" y2="135.176" gradientUnits="userSpaceOnUse">
<stop stop-color="#284C5B"/>
<stop offset="1" stop-color="#051317"/>
</linearGradient>
<linearGradient id="paint12_linear_1_363" x1="244.965" y1="135.406" x2="260.213" y2="156.135" gradientUnits="userSpaceOnUse">
<stop stop-color="#284C5B"/>
<stop offset="1" stop-color="#051317"/>
</linearGradient>
<linearGradient id="paint13_linear_1_363" x1="241.743" y1="151.25" x2="258.612" y2="173.528" gradientUnits="userSpaceOnUse">
<stop stop-color="#284C5B"/>
<stop offset="1" stop-color="#051317"/>
</linearGradient>
<linearGradient id="paint14_linear_1_363" x1="236.522" y1="170.623" x2="255.888" y2="194.715" gradientUnits="userSpaceOnUse">
<stop stop-color="#284C5B"/>
<stop offset="1" stop-color="#051317"/>
</linearGradient>
<linearGradient id="paint15_linear_1_363" x1="221.43" y1="206.678" x2="233.327" y2="217.531" gradientUnits="userSpaceOnUse">
<stop stop-color="#284C5B"/>
<stop offset="1" stop-color="#051317"/>
</linearGradient>
<linearGradient id="paint16_linear_1_363" x1="182.119" y1="225.504" x2="208.482" y2="253.52" gradientUnits="userSpaceOnUse">
<stop stop-color="#284C5B"/>
<stop offset="1" stop-color="#051317"/>
</linearGradient>
<linearGradient id="paint17_linear_1_363" x1="162.968" y1="234.783" x2="185.628" y2="256.889" gradientUnits="userSpaceOnUse">
<stop stop-color="#284C5B"/>
<stop offset="1" stop-color="#051317"/>
</linearGradient>
<linearGradient id="paint18_linear_1_363" x1="139.441" y1="242.568" x2="162.447" y2="270.898" gradientUnits="userSpaceOnUse">
<stop stop-color="#284C5B"/>
<stop offset="1" stop-color="#051317"/>
</linearGradient>
<linearGradient id="paint19_linear_1_363" x1="120.371" y1="245.602" x2="140.754" y2="264.651" gradientUnits="userSpaceOnUse">
<stop stop-color="#284C5B"/>
<stop offset="1" stop-color="#051317"/>
</linearGradient>
<linearGradient id="paint20_linear_1_363" x1="94.4971" y1="241.428" x2="118.181" y2="267.921" gradientUnits="userSpaceOnUse">
<stop stop-color="#284C5B"/>
<stop offset="1" stop-color="#051317"/>
</linearGradient>
<linearGradient id="paint21_linear_1_363" x1="78.4131" y1="233.1" x2="101.277" y2="254.903" gradientUnits="userSpaceOnUse">
<stop stop-color="#284C5B"/>
<stop offset="1" stop-color="#051317"/>
</linearGradient>
<linearGradient id="paint22_linear_1_363" x1="55.4766" y1="227.09" x2="79.5799" y2="249.896" gradientUnits="userSpaceOnUse">
<stop stop-color="#284C5B"/>
<stop offset="1" stop-color="#051317"/>
</linearGradient>
<linearGradient id="paint23_linear_1_363" x1="39.0557" y1="211.73" x2="66.8297" y2="239.64" gradientUnits="userSpaceOnUse">
<stop stop-color="#284C5B"/>
<stop offset="1" stop-color="#051317"/>
</linearGradient>
<linearGradient id="paint24_linear_1_363" x1="29.5435" y1="195.805" x2="51.1535" y2="219.218" gradientUnits="userSpaceOnUse">
<stop stop-color="#284C5B"/>
<stop offset="1" stop-color="#051317"/>
</linearGradient>
<linearGradient id="paint25_linear_1_363" x1="10.2109" y1="174.406" x2="31.1595" y2="196.661" gradientUnits="userSpaceOnUse">
<stop stop-color="#284C5B"/>
<stop offset="1" stop-color="#051317"/>
</linearGradient>
<linearGradient id="paint26_linear_1_363" x1="1.90674" y1="151.842" x2="28.289" y2="177.515" gradientUnits="userSpaceOnUse">
<stop stop-color="#284C5B"/>
<stop offset="1" stop-color="#051317"/>
</linearGradient>
<linearGradient id="paint27_linear_1_363" x1="0.238281" y1="130.359" x2="22.9035" y2="151.875" gradientUnits="userSpaceOnUse">
<stop stop-color="#284C5B"/>
<stop offset="1" stop-color="#051317"/>
</linearGradient>
<linearGradient id="paint28_linear_1_363" x1="0" y1="115.059" x2="15.2257" y2="135.721" gradientUnits="userSpaceOnUse">
<stop stop-color="#284C5B"/>
<stop offset="1" stop-color="#051317"/>
</linearGradient>
<linearGradient id="paint29_linear_1_363" x1="1.7998" y1="97.8184" x2="18.5411" y2="120.011" gradientUnits="userSpaceOnUse">
<stop stop-color="#284C5B"/>
<stop offset="1" stop-color="#051317"/>
</linearGradient>
<linearGradient id="paint30_linear_1_363" x1="5.50391" y1="76.2031" x2="24.7953" y2="100.279" gradientUnits="userSpaceOnUse">
<stop stop-color="#284C5B"/>
<stop offset="1" stop-color="#051317"/>
</linearGradient>
<linearGradient id="paint31_linear_1_363" x1="33.0195" y1="47.5078" x2="44.9301" y2="58.3" gradientUnits="userSpaceOnUse">
<stop stop-color="#284C5B"/>
<stop offset="1" stop-color="#051317"/>
</linearGradient>
</defs>
</svg>
