<svg width="211" height="45" viewBox="0 0 211 45" fill="none" xmlns="http://www.w3.org/2000/svg">
<g clip-path="url(#clip0_1_460)">
<path d="M90.6038 20.8941C90.6038 20.8941 90.5234 20.8539 90.4833 20.8338C90.4431 20.8137 90.4029 20.7534 90.3426 20.6932C89.8002 20.0503 89.2779 19.4476 88.7757 18.8851C88.2935 18.3226 87.7712 17.74 87.2489 17.1574C87.0279 16.9164 86.8672 16.7556 86.7868 16.6954C86.7064 16.6351 86.6261 16.615 86.5658 16.615C86.5055 16.615 86.4453 16.615 86.4252 16.6552C86.4051 16.6753 86.385 16.7355 86.3448 16.7958V18.0615C86.3448 18.4632 86.3448 18.8048 86.3448 19.086C86.3448 19.3271 86.3649 19.5682 86.385 19.7691C86.4051 19.99 86.4654 20.1508 86.5457 20.2512C86.606 20.3316 86.6863 20.4119 86.7868 20.4722C86.8872 20.5325 87.0078 20.5726 87.1283 20.6128C87.2489 20.653 87.3694 20.6731 87.4698 20.6932C87.5904 20.7133 87.6908 20.7334 87.7712 20.7334V20.8539H83.6528V20.7334C83.8738 20.6932 84.0747 20.653 84.2756 20.5726C84.4765 20.5124 84.6171 20.4119 84.7176 20.2914C84.7578 20.2311 84.7979 20.1708 84.818 20.0503C84.8381 19.9499 84.8582 19.8293 84.8783 19.6887C84.8783 19.5481 84.8984 19.4074 84.8984 19.2668C84.8984 19.1262 84.8984 18.9655 84.8984 18.8449C84.8984 18.7244 84.8984 18.5637 84.8984 18.3628C84.8984 18.1619 84.8984 17.9409 84.8984 17.6998V13.702C84.8984 13.3806 84.8984 13.0793 84.8582 12.798C84.818 12.5168 84.7778 12.3359 84.6774 12.2154C84.5569 12.0748 84.4162 11.9542 84.2354 11.894C84.0546 11.8337 83.8738 11.7734 83.6528 11.7533V11.6328H87.6306V11.7533C87.4698 11.7533 87.3091 11.7935 87.1484 11.8337C86.9877 11.8739 86.8471 11.9342 86.7265 12.0346C86.606 12.135 86.5055 12.2757 86.4252 12.4766C86.3448 12.6775 86.3046 12.9587 86.2846 13.3203C86.2846 13.5212 86.2846 13.702 86.2846 13.8627C86.2846 14.0436 86.2846 14.2244 86.2846 14.4453V16.4342C86.4453 16.3338 86.6462 16.173 86.9073 15.9521C87.1685 15.7311 87.4497 15.4699 87.731 15.1887C88.0123 14.9074 88.3136 14.6061 88.5748 14.3047C88.856 14.0034 89.0971 13.7422 89.298 13.5212C89.4386 13.3404 89.5792 13.1797 89.6998 12.9989C89.8203 12.8181 89.8806 12.6574 89.8806 12.5168C89.8806 12.2757 89.8002 12.0949 89.6194 11.9743C89.4386 11.8538 89.2578 11.7935 89.0368 11.7533V11.6328H92.4721V11.7533C92.0302 11.7935 91.5882 11.9743 91.1462 12.3159C90.7042 12.6373 90.2422 13.019 89.7801 13.4409C89.5993 13.6016 89.4185 13.7824 89.2377 13.9632C89.0569 14.144 88.856 14.3449 88.6752 14.5257C88.4944 14.7065 88.3136 14.8873 88.1328 15.0681C87.952 15.2489 87.7913 15.4096 87.6506 15.5503C87.7109 15.6306 87.8716 15.8315 88.1328 16.1128C88.3739 16.394 88.6752 16.7355 89.0167 17.1172C89.3583 17.4989 89.7199 17.9208 90.1217 18.3427C90.5034 18.7847 90.885 19.2066 91.2467 19.6083C91.327 19.7088 91.4275 19.8092 91.548 19.9097C91.6685 20.0101 91.769 20.1106 91.8694 20.1909C91.9699 20.2713 92.0703 20.3517 92.1306 20.3918C92.211 20.4521 92.2511 20.4923 92.2913 20.4923C92.4119 20.5325 92.5525 20.5726 92.7534 20.6128C92.9543 20.653 93.1552 20.6932 93.3962 20.6932V20.8137H90.5034L90.6038 20.8941Z" fill="white"/>
<path d="M103.32 20.8938V20.7733C103.32 20.7733 103.401 20.7733 103.501 20.7532C103.602 20.7532 103.702 20.713 103.802 20.6527C103.903 20.6125 104.003 20.5523 104.084 20.4719C104.164 20.3916 104.204 20.2911 104.204 20.1706C104.204 20.0902 104.184 19.9697 104.124 19.7889C104.084 19.6081 104.003 19.4072 103.923 19.146C103.843 18.8848 103.742 18.6237 103.622 18.3022C103.521 18.0009 103.381 17.6795 103.26 17.338H99.8448C99.7243 17.6594 99.5837 17.9808 99.4631 18.2621C99.3426 18.5634 99.2221 18.8447 99.1015 19.146C98.9207 19.6081 98.8203 19.9295 98.8203 20.1304C98.8203 20.2509 98.8604 20.3313 98.9207 20.4116C98.981 20.492 99.0814 20.5523 99.1819 20.5925C99.2823 20.6326 99.4029 20.6728 99.5234 20.6929C99.6439 20.713 99.7645 20.7331 99.885 20.7532V20.8737H97.1528V20.7331C97.3738 20.713 97.5546 20.6527 97.7153 20.5523C97.8761 20.4518 97.9564 20.3916 97.9966 20.3514C98.0569 20.2911 98.1573 20.1505 98.2979 19.9295C98.4386 19.7085 98.5993 19.367 98.8002 18.9451C98.981 18.5433 99.1819 18.0813 99.4029 17.579C99.6238 17.0567 99.8649 16.5344 100.086 15.992C100.327 15.4495 100.548 14.9071 100.789 14.3446C101.03 13.8022 101.231 13.2799 101.452 12.7977L101.331 12.5165C101.492 12.4562 101.633 12.3758 101.753 12.2754C101.874 12.175 101.994 12.0745 102.075 11.9741C102.175 11.8736 102.256 11.7732 102.316 11.6727C102.376 11.5723 102.436 11.4919 102.456 11.4316H102.557C102.818 12.1348 103.079 12.8178 103.32 13.4607C103.561 14.1035 103.782 14.7062 104.003 15.3089C104.224 15.8915 104.425 16.4741 104.646 17.0165C104.847 17.5589 105.068 18.1214 105.269 18.6639C105.369 18.925 105.45 19.146 105.53 19.3268C105.611 19.5076 105.711 19.7085 105.811 19.9295C105.811 19.9697 105.872 20.0299 105.932 20.1103C105.992 20.1907 106.073 20.2911 106.173 20.3715C106.273 20.4518 106.394 20.5322 106.535 20.6125C106.675 20.6728 106.856 20.713 107.057 20.7331V20.8938H103.3H103.32ZM101.633 13.1192C101.573 13.2397 101.512 13.4004 101.412 13.6415C101.311 13.8826 101.191 14.1638 101.05 14.5053C100.91 14.8469 100.749 15.2286 100.568 15.6705C100.387 16.0924 100.206 16.5746 99.9855 17.0768H103.18C103.039 16.6951 102.878 16.3134 102.738 15.9116C102.597 15.5299 102.436 15.1482 102.296 14.8067C102.155 14.4451 102.035 14.1236 101.914 13.8223C101.794 13.5209 101.693 13.2799 101.633 13.0991" fill="white"/>
<path d="M119.171 20.8935V20.7529C119.533 20.7529 119.854 20.6524 120.095 20.5118C120.336 20.3712 120.517 20.2105 120.597 20.0297C120.658 19.9292 120.698 19.7886 120.718 19.6078C120.738 19.4471 120.758 19.2663 120.758 19.1055C120.758 18.543 120.778 18.0006 120.778 17.4783V12.255C120.497 12.8979 120.236 13.4604 119.995 14.0028C119.754 14.5251 119.533 15.0475 119.291 15.5497C119.07 16.0519 118.829 16.5743 118.588 17.0966C118.347 17.6189 118.086 18.2015 117.805 18.8444C117.765 18.9247 117.704 19.0654 117.624 19.2462C117.544 19.427 117.463 19.6279 117.403 19.8087C117.343 19.9895 117.262 20.1703 117.182 20.331C117.102 20.4917 117.062 20.5922 117.062 20.6524H116.981C116.7 20.0096 116.439 19.3868 116.178 18.764C115.896 18.1413 115.655 17.5386 115.394 16.956C115.133 16.3734 114.892 15.831 114.671 15.3287C114.45 14.8265 114.249 14.3644 114.068 13.9827C113.887 13.5809 113.747 13.2595 113.626 12.9983C113.506 12.7372 113.425 12.5564 113.385 12.4559C113.385 13.0184 113.385 13.5207 113.385 13.9626C113.385 14.3845 113.385 14.8265 113.385 15.2484C113.385 15.6702 113.385 16.1122 113.385 16.5944V18.2417C113.385 18.6435 113.385 18.985 113.425 19.2864C113.445 19.5877 113.526 19.8288 113.626 20.0297C113.727 20.2306 113.887 20.3913 114.088 20.5118C114.289 20.6323 114.591 20.7127 114.952 20.7529V20.8734H111.597V20.7529C111.899 20.6926 112.14 20.6123 112.32 20.4917C112.501 20.3712 112.662 20.2105 112.762 20.0096C112.863 19.8087 112.963 19.5475 113.003 19.2462C113.064 18.9448 113.084 18.5631 113.104 18.1413C113.104 17.7796 113.124 17.3377 113.144 16.8354C113.144 16.3332 113.144 15.7908 113.144 15.2283V13.601C113.144 13.4202 113.144 13.2193 113.144 12.9783C113.144 12.7372 113.084 12.5363 112.983 12.3957C112.883 12.255 112.782 12.1345 112.642 12.034C112.521 11.9537 112.381 11.8934 112.24 11.8532C112.099 11.8131 111.979 11.793 111.878 11.7729V11.6523H114.611L117.684 18.6435C118.066 17.8399 118.428 17.0162 118.789 16.2127C119.151 15.4091 119.472 14.6859 119.754 14.0229C120.035 13.38 120.276 12.8376 120.457 12.3957C120.637 11.9738 120.738 11.7126 120.778 11.6523H123.51V11.7729C123.169 11.7729 122.887 11.8532 122.707 11.9939C122.526 12.1345 122.405 12.2952 122.325 12.476C122.285 12.6166 122.245 12.8577 122.225 13.1591C122.225 13.4604 122.204 13.7818 122.184 14.0631C122.184 14.4649 122.184 14.8667 122.184 15.2484V17.7997C122.184 18.2618 122.184 18.7238 122.184 19.2462C122.184 19.4069 122.184 19.5676 122.225 19.7484C122.245 19.9091 122.285 20.0498 122.325 20.1301C122.325 20.1301 122.365 20.1904 122.425 20.2506C122.486 20.3109 122.566 20.3913 122.666 20.4515C122.767 20.5319 122.887 20.5922 123.048 20.6524C123.209 20.7127 123.39 20.7328 123.591 20.7529V20.8734H119.191L119.171 20.8935Z" fill="white"/>
<path d="M137.794 14.6248C137.673 14.223 137.513 13.8212 137.292 13.4797C137.071 13.118 136.809 12.8167 136.508 12.5354C136.207 12.2743 135.865 12.0533 135.484 11.9127C135.102 11.752 134.7 11.6716 134.278 11.6716C133.696 11.6716 133.153 11.8122 132.691 12.0734C132.229 12.3346 131.847 12.6962 131.526 13.118C131.225 13.56 130.963 14.0422 130.803 14.6047C130.642 15.1672 130.562 15.7297 130.562 16.3123C130.562 16.935 130.642 17.4976 130.823 18.04C131.004 18.5824 131.245 19.0444 131.566 19.4462C131.888 19.848 132.289 20.1695 132.751 20.3904C133.213 20.6315 133.736 20.732 134.298 20.732C134.74 20.732 135.162 20.6516 135.544 20.4909C135.926 20.3302 136.287 20.1092 136.588 19.848C136.89 19.5869 137.151 19.2855 137.352 18.9239C137.553 18.5824 137.693 18.2208 137.774 17.8592H137.934L137.894 20.6918H137.734C137.633 20.5512 137.533 20.4105 137.412 20.29C137.292 20.1695 137.231 20.1092 137.191 20.1092C137.191 20.1092 137.091 20.1494 136.97 20.2498C136.83 20.3302 136.629 20.4306 136.388 20.5512C136.126 20.6516 135.825 20.7521 135.443 20.8324C135.082 20.9128 134.66 20.9529 134.178 20.9529C133.374 20.9529 132.671 20.8324 132.028 20.6114C131.385 20.3904 130.843 20.069 130.381 19.6471C129.939 19.2252 129.597 18.7431 129.356 18.1605C129.115 17.5779 128.995 16.9551 128.995 16.252C128.995 16.0913 128.995 15.9306 129.035 15.7297C129.055 15.5288 129.095 15.3279 129.155 15.1069C129.216 14.8859 129.296 14.6448 129.376 14.4038C129.477 14.1627 129.597 13.9216 129.758 13.6605C129.939 13.3792 130.16 13.098 130.421 12.8368C130.682 12.5756 131.004 12.3346 131.365 12.1337C131.727 11.9328 132.129 11.772 132.591 11.6515C133.053 11.531 133.555 11.4707 134.117 11.4707C134.64 11.4707 135.082 11.5109 135.463 11.6113C135.845 11.7118 136.167 11.8122 136.428 11.9127C136.689 12.0131 136.89 12.1337 137.01 12.214C137.151 12.3145 137.231 12.3546 137.231 12.3546C137.231 12.3546 137.292 12.3546 137.332 12.2944C137.372 12.2542 137.432 12.214 137.492 12.1537C137.553 12.0935 137.613 12.0332 137.673 11.9529C137.734 11.8725 137.794 11.8122 137.834 11.7319H137.975V14.6047H137.814L137.794 14.6248Z" fill="white"/>
<path d="M150.169 20.8935V20.773C150.49 20.7529 150.751 20.6926 150.972 20.5922C151.193 20.5118 151.334 20.3913 151.394 20.2908C151.394 20.2707 151.435 20.2105 151.435 20.1301C151.435 20.0498 151.455 19.9694 151.475 19.8689C151.475 19.7685 151.475 19.6681 151.495 19.5475C151.495 19.427 151.495 19.3265 151.495 19.2261C151.495 18.9448 151.495 18.6435 151.495 18.3622V16.3332H146.432V19.0855C146.432 19.3265 146.432 19.5676 146.432 19.8087C146.432 20.0498 146.472 20.2105 146.553 20.2908C146.653 20.4315 146.794 20.552 146.995 20.6323C147.176 20.7127 147.356 20.7529 147.537 20.773V20.8935H143.74V20.773C143.961 20.7328 144.162 20.6725 144.363 20.5922C144.564 20.5118 144.705 20.4114 144.805 20.2908C144.845 20.2506 144.865 20.1703 144.885 20.0698C144.905 19.9694 144.926 19.8689 144.946 19.7283C144.946 19.6078 144.966 19.4672 144.986 19.3064C144.986 19.1658 144.986 19.0051 144.986 18.8846C144.986 18.764 144.986 18.6033 144.986 18.4024C144.986 18.2015 144.986 17.9805 144.986 17.7194C144.986 17.4783 144.986 17.2171 144.986 16.9761V13.2595C144.986 13.0988 144.986 12.9582 144.986 12.8376C144.986 12.697 144.946 12.5965 144.926 12.476C144.905 12.3756 144.865 12.2751 144.805 12.2349C144.684 12.0943 144.544 11.9939 144.363 11.9135C144.182 11.8532 143.981 11.8131 143.76 11.7729V11.6523H147.577V11.7729C147.457 11.7729 147.336 11.8131 147.196 11.8532C147.055 11.8934 146.934 11.9336 146.814 12.014C146.713 12.0943 146.613 12.1948 146.533 12.3153C146.452 12.4358 146.412 12.6166 146.412 12.7974C146.412 13.0988 146.412 13.4202 146.392 13.7617C146.392 14.1033 146.392 14.4448 146.392 14.7461V16.0519H151.455V13.9827C151.455 13.7617 151.455 13.5006 151.455 13.2193C151.455 13.0586 151.435 12.8979 151.414 12.7171C151.414 12.5363 151.354 12.3957 151.294 12.2952C151.133 12.0541 150.972 11.9135 150.772 11.8733C150.571 11.8131 150.37 11.793 150.189 11.7729V11.6523H154.046V11.7729C153.845 11.793 153.644 11.8532 153.443 11.9537C153.243 12.034 153.102 12.1747 153.001 12.3555C152.961 12.4157 152.941 12.4961 152.921 12.5965C152.921 12.697 152.901 12.8175 152.881 12.9582C152.881 13.0988 152.881 13.2193 152.881 13.36V17.5587C152.881 17.7997 152.881 18.0408 152.881 18.302C152.881 18.5631 152.881 18.8444 152.881 19.1457C152.881 19.3868 152.881 19.6279 152.881 19.8288C152.881 20.0297 152.921 20.1904 152.981 20.2506C153.082 20.4114 153.243 20.5319 153.423 20.6123C153.604 20.6725 153.825 20.7328 154.046 20.7529V20.8734H150.109L150.169 20.8935Z" fill="white"/>
<path d="M165.055 20.8938V20.7733C165.055 20.7733 165.136 20.7733 165.236 20.7532C165.336 20.7532 165.437 20.713 165.537 20.6527C165.638 20.6125 165.738 20.5523 165.819 20.4719C165.899 20.3916 165.939 20.2911 165.939 20.1706C165.939 20.0902 165.919 19.9697 165.859 19.7889C165.819 19.6081 165.738 19.4072 165.658 19.146C165.578 18.8848 165.477 18.6237 165.357 18.3022C165.256 18.0009 165.115 17.6795 164.995 17.338H161.58C161.459 17.6594 161.319 17.9808 161.198 18.2621C161.077 18.5634 160.957 18.8447 160.836 19.146C160.656 19.6081 160.555 19.9295 160.555 20.1304C160.555 20.2509 160.595 20.3313 160.656 20.4116C160.716 20.492 160.816 20.5523 160.917 20.5925C161.017 20.6326 161.138 20.6728 161.258 20.6929C161.379 20.713 161.499 20.7331 161.62 20.7532V20.8737H158.888V20.7331C159.109 20.713 159.289 20.6527 159.45 20.5523C159.611 20.4518 159.691 20.3916 159.731 20.3514C159.792 20.2911 159.892 20.1505 160.033 19.9295C160.173 19.7085 160.334 19.367 160.535 18.9451C160.716 18.5433 160.917 18.0813 161.138 17.579C161.359 17.0567 161.6 16.5344 161.821 15.992C162.062 15.4495 162.283 14.9071 162.524 14.3446C162.765 13.8022 162.966 13.2799 163.187 12.7977L163.066 12.5165C163.227 12.4562 163.368 12.3758 163.488 12.2754C163.609 12.175 163.729 12.0745 163.81 11.9741C163.91 11.8736 163.99 11.7732 164.051 11.6727C164.111 11.5723 164.171 11.4919 164.191 11.4316H164.292C164.553 12.1348 164.814 12.8178 165.055 13.4607C165.296 14.1035 165.517 14.7062 165.738 15.3089C165.959 15.8915 166.16 16.4741 166.381 17.0165C166.582 17.5589 166.803 18.1214 167.004 18.6639C167.104 18.925 167.185 19.146 167.265 19.3268C167.345 19.5076 167.446 19.7085 167.546 19.9295C167.546 19.9697 167.607 20.0299 167.667 20.1103C167.727 20.1907 167.807 20.2911 167.908 20.3715C168.008 20.4518 168.129 20.5322 168.27 20.6125C168.41 20.6728 168.591 20.713 168.792 20.7331V20.8938H165.035H165.055ZM163.368 13.1192C163.307 13.2397 163.247 13.4004 163.147 13.6415C163.046 13.8826 162.926 14.1638 162.785 14.5053C162.644 14.8469 162.484 15.2286 162.303 15.6705C162.122 16.0924 161.941 16.5746 161.72 17.0768H164.915C164.774 16.6951 164.613 16.3134 164.473 15.9116C164.332 15.5299 164.171 15.1482 164.031 14.8067C163.89 14.4451 163.769 14.1236 163.649 13.8223C163.528 13.5209 163.428 13.2799 163.368 13.0991" fill="white"/>
<path d="M182.533 14.0625C182.473 13.9018 182.372 13.7411 182.292 13.5804C182.192 13.4197 182.091 13.2589 182.011 13.1183C181.91 12.9777 181.81 12.8371 181.73 12.7165C181.649 12.596 181.549 12.4955 181.488 12.4353C181.308 12.2545 181.107 12.154 180.906 12.0938C180.705 12.0335 180.424 12.0134 180.102 11.9933C179.942 11.9933 179.801 11.9933 179.68 11.9933C179.56 11.9933 179.439 11.9933 179.319 11.9933H178.475C178.475 12.2143 178.475 12.4955 178.475 12.8572C178.475 13.2188 178.475 13.6206 178.475 14.0223V19.0447C178.475 19.2858 178.475 19.5269 178.495 19.7679C178.495 19.9889 178.555 20.1496 178.616 20.2501C178.736 20.4309 178.917 20.5715 179.158 20.6318C179.399 20.6921 179.6 20.7523 179.801 20.7925V20.913H175.622V20.7925C175.843 20.7724 176.064 20.7322 176.265 20.672C176.466 20.6117 176.667 20.4711 176.868 20.2501C176.908 20.2099 176.948 20.1296 176.968 20.0291C176.988 19.9287 177.008 19.8282 177.029 19.6876C177.029 19.567 177.029 19.4264 177.049 19.2858C177.049 19.1452 177.049 19.0045 177.049 18.8639C177.049 18.7434 177.049 18.5827 177.049 18.3818C177.049 18.1809 177.049 17.9599 177.049 17.7188C177.049 17.4777 177.049 17.2367 177.049 16.9755V11.9933H176.205C176.084 11.9933 175.984 11.9933 175.843 11.9933C175.723 11.9933 175.582 11.9933 175.421 11.9933C175.1 11.9933 174.839 12.0335 174.618 12.1138C174.397 12.1942 174.216 12.2947 174.035 12.4755C173.975 12.5357 173.895 12.6161 173.794 12.7366C173.694 12.8572 173.613 12.9777 173.513 13.1183C173.412 13.2589 173.312 13.4197 173.232 13.5804C173.131 13.7411 173.071 13.9018 173.011 14.0625L172.89 14.0223L173.272 11.5915C173.473 11.6317 173.654 11.6719 173.814 11.692C173.975 11.7121 174.216 11.7321 174.537 11.7522C174.859 11.7522 175.16 11.7522 175.421 11.7522C175.683 11.7522 175.924 11.7522 176.165 11.7522H178.596C178.857 11.7522 179.098 11.7522 179.339 11.7522C179.58 11.7522 179.821 11.7522 180.082 11.7522C180.343 11.7522 180.625 11.7522 180.946 11.7522C181.227 11.7522 181.468 11.7121 181.649 11.6719C181.83 11.6317 182.031 11.5915 182.212 11.5312L182.613 14.0424L182.493 14.0826L182.533 14.0625Z" fill="white"/>
<path d="M194.547 20.8941C194.547 20.8941 194.466 20.8539 194.426 20.8338C194.386 20.8137 194.346 20.7534 194.285 20.6932C193.743 20.0503 193.221 19.4476 192.718 18.8851C192.236 18.3226 191.714 17.74 191.192 17.1574C190.971 16.9164 190.81 16.7556 190.73 16.6954C190.649 16.6351 190.569 16.615 190.509 16.615C190.448 16.615 190.388 16.615 190.368 16.6552C190.348 16.6753 190.328 16.7355 190.288 16.7958V18.0615C190.288 18.4632 190.288 18.8048 190.288 19.086C190.288 19.3271 190.308 19.5682 190.348 19.7691C190.368 19.99 190.428 20.1508 190.509 20.2512C190.569 20.3316 190.649 20.4119 190.75 20.4722C190.85 20.5325 190.971 20.5726 191.091 20.6128C191.212 20.653 191.332 20.6731 191.433 20.6932C191.553 20.7133 191.654 20.7334 191.734 20.7334V20.8539H187.616V20.7334C187.837 20.6932 188.038 20.653 188.238 20.5726C188.439 20.5124 188.58 20.4119 188.68 20.2914C188.721 20.2311 188.761 20.1708 188.781 20.0503C188.801 19.9499 188.821 19.8293 188.841 19.6887C188.841 19.5481 188.861 19.4074 188.861 19.2668C188.861 19.1262 188.861 18.9655 188.861 18.8449C188.861 18.7244 188.861 18.5637 188.861 18.3628C188.861 18.1619 188.861 17.9409 188.861 17.6998V13.702C188.861 13.3806 188.861 13.0793 188.821 12.798C188.781 12.5168 188.741 12.3359 188.64 12.2154C188.52 12.0748 188.379 11.9542 188.198 11.894C188.018 11.8337 187.837 11.7734 187.616 11.7533V11.6328H191.593V11.7533C191.433 11.7533 191.272 11.7935 191.111 11.8337C190.951 11.8739 190.81 11.9342 190.689 12.0346C190.569 12.135 190.468 12.2757 190.388 12.4766C190.308 12.6775 190.268 12.9587 190.247 13.3203C190.247 13.5212 190.247 13.702 190.247 13.8627C190.247 14.0436 190.247 14.2244 190.247 14.4453V16.4342C190.408 16.3338 190.609 16.173 190.87 15.9521C191.131 15.7311 191.413 15.4699 191.694 15.1887C191.975 14.9074 192.276 14.6061 192.538 14.3047C192.819 14.0034 193.06 13.7422 193.261 13.5212C193.401 13.3404 193.542 13.1797 193.663 12.9989C193.783 12.8181 193.843 12.6574 193.843 12.5168C193.843 12.2757 193.763 12.0949 193.582 11.9743C193.402 11.8538 193.221 11.7935 193 11.7533V11.6328H196.435V11.7533C195.993 11.7935 195.551 11.9743 195.109 12.3159C194.667 12.6373 194.205 13.019 193.743 13.4409C193.562 13.6016 193.381 13.7824 193.201 13.9632C193.02 14.144 192.819 14.3449 192.638 14.5257C192.457 14.7065 192.276 14.8873 192.096 15.0681C191.915 15.2489 191.754 15.4096 191.614 15.5503C191.674 15.6306 191.835 15.8315 192.096 16.1128C192.337 16.394 192.638 16.7355 192.98 17.1172C193.321 17.4989 193.683 17.9208 194.085 18.3427C194.466 18.7847 194.848 19.2066 195.21 19.6083C195.29 19.7088 195.39 19.8092 195.511 19.9097C195.631 20.0101 195.732 20.1106 195.832 20.1909C195.933 20.2713 196.033 20.3517 196.093 20.3918C196.174 20.4521 196.214 20.4923 196.254 20.4923C196.375 20.5325 196.515 20.5726 196.716 20.6128C196.917 20.653 197.118 20.6932 197.359 20.6932V20.8137H194.466L194.547 20.8941Z" fill="white"/>
<path d="M207.263 20.8938V20.7733C207.263 20.7733 207.344 20.7733 207.444 20.7532C207.544 20.7532 207.645 20.713 207.745 20.6527C207.846 20.6125 207.946 20.5523 208.027 20.4719C208.107 20.3916 208.147 20.2911 208.147 20.1706C208.147 20.0902 208.127 19.9697 208.067 19.7889C208.027 19.6081 207.946 19.4072 207.866 19.146C207.786 18.8848 207.685 18.6237 207.565 18.3022C207.464 18.0009 207.323 17.6795 207.203 17.338H203.788C203.667 17.6594 203.527 17.9808 203.406 18.2621C203.285 18.5634 203.165 18.8447 203.044 19.146C202.864 19.6081 202.763 19.9295 202.763 20.1304C202.763 20.2509 202.803 20.3313 202.864 20.4116C202.924 20.492 203.024 20.5523 203.125 20.5925C203.225 20.6326 203.346 20.6728 203.466 20.6929C203.587 20.713 203.707 20.7331 203.828 20.7532V20.8737H201.096V20.7331C201.317 20.713 201.497 20.6527 201.658 20.5523C201.819 20.4518 201.899 20.3916 201.939 20.3514C202 20.2911 202.1 20.1505 202.241 19.9295C202.381 19.7085 202.542 19.367 202.743 18.9451C202.924 18.5433 203.125 18.0813 203.346 17.579C203.567 17.0567 203.808 16.5344 204.029 15.992C204.27 15.4495 204.491 14.9071 204.732 14.3446C204.973 13.8022 205.174 13.2799 205.395 12.7977L205.274 12.5165C205.435 12.4562 205.576 12.3758 205.696 12.2754C205.817 12.175 205.937 12.0745 206.018 11.9741C206.118 11.8736 206.198 11.7732 206.259 11.6727C206.319 11.5723 206.379 11.4919 206.399 11.4316H206.5C206.761 12.1348 207.022 12.8178 207.263 13.4607C207.504 14.1035 207.725 14.7062 207.946 15.3089C208.167 15.8915 208.368 16.4741 208.589 17.0165C208.79 17.5589 209.011 18.1214 209.212 18.6639C209.312 18.925 209.393 19.146 209.473 19.3268C209.553 19.5076 209.654 19.7085 209.754 19.9295C209.754 19.9697 209.815 20.0299 209.875 20.1103C209.935 20.1907 210.015 20.2911 210.116 20.3715C210.216 20.4518 210.337 20.5322 210.477 20.6125C210.618 20.6728 210.799 20.713 211 20.7331V20.8938H207.243H207.263ZM205.576 13.1192C205.515 13.2397 205.455 13.4004 205.355 13.6415C205.254 13.8826 205.134 14.1638 204.993 14.5053C204.852 14.8469 204.692 15.2286 204.511 15.6705C204.33 16.0924 204.149 16.5746 203.928 17.0768H207.123C206.982 16.6951 206.821 16.3134 206.681 15.9116C206.54 15.5299 206.379 15.1482 206.239 14.8067C206.098 14.4451 205.977 14.1236 205.857 13.8223C205.736 13.5209 205.636 13.2799 205.576 13.0991" fill="white"/>
<path d="M88.0724 28.9099C88.0724 28.9099 88.0121 28.9902 87.992 29.0103C87.9719 29.0505 87.9318 29.0706 87.9117 29.0907C87.8916 29.1108 87.8715 29.1309 87.8313 29.151C87.8313 29.151 87.7911 29.1309 87.7509 29.0907C87.6907 29.0505 87.5902 28.9902 87.4496 28.93C87.3291 28.8697 87.1684 28.8295 86.9875 28.7693C86.8067 28.7291 86.5657 28.709 86.3246 28.709C86.0433 28.709 85.8023 28.7291 85.5813 28.7893C85.3603 28.8496 85.1594 28.93 84.9786 29.0304C84.7978 29.1309 84.6371 29.2514 84.5165 29.3719C84.396 29.5126 84.2755 29.6331 84.1951 29.7938C84.1147 29.9144 84.0545 30.0349 84.0143 30.1554C83.9741 30.276 83.9339 30.3965 83.8938 30.497C83.8737 30.6175 83.8536 30.7179 83.8335 30.7983C83.8335 30.8987 83.8335 30.9791 83.8335 31.0595C83.8335 31.401 83.8938 31.7224 84.0143 32.0037C84.1348 32.2849 84.2956 32.526 84.5165 32.747C84.7375 32.9479 84.9987 33.1086 85.3201 33.2291C85.6416 33.3497 85.9831 33.3898 86.3849 33.3898C86.6259 33.3898 86.8268 33.3898 87.0076 33.3296C87.1884 33.2894 87.3492 33.2492 87.4697 33.1889C87.5902 33.1287 87.6907 33.0885 87.7509 33.0483C87.8112 33.0081 87.8313 32.988 87.8514 32.988C87.8514 32.988 87.8916 33.0081 87.9318 33.0684C87.992 33.1287 88.0322 33.1889 88.0925 33.2492H88.2331V31.8429V31.8028H88.0724V31.8429C88.0322 32.0238 87.9719 32.1845 87.8715 32.3452C87.771 32.5059 87.6505 32.6465 87.5099 32.7872C87.3693 32.9077 87.2085 33.0081 87.0277 33.0885C86.8469 33.1689 86.646 33.209 86.4451 33.209C86.184 33.209 85.9429 33.1488 85.7219 33.0483C85.5009 32.9479 85.3201 32.7872 85.1594 32.6063C84.9987 32.4255 84.8781 32.1845 84.7978 31.9434C84.7174 31.6822 84.6773 31.4211 84.6773 31.1197C84.6773 30.8385 84.7174 30.5773 84.7978 30.3161C84.8781 30.055 84.9987 29.8139 85.1393 29.613C85.2799 29.4121 85.4808 29.2514 85.6817 29.1108C85.9027 28.9902 86.1438 28.93 86.425 28.93C86.6259 28.93 86.8067 28.9701 86.9875 29.0304C87.1684 29.1108 87.3291 29.2112 87.4697 29.3318C87.6103 29.4523 87.7309 29.613 87.8514 29.7737C87.9518 29.9545 88.0322 30.1353 88.0925 30.3161V30.3563H88.2532V28.8898H88.1126L88.0724 28.9099Z" fill="white"/>
<path d="M98.5591 33.187C98.5591 33.187 98.4184 33.1066 98.3582 33.0263C98.3582 33.0062 98.318 32.9459 98.318 32.8455C98.318 32.745 98.318 32.6245 98.318 32.5039C98.318 32.3633 98.318 32.2227 98.318 32.1022C98.318 31.9816 98.318 31.8611 98.318 31.7405V29.7115C98.318 29.7115 98.318 29.5709 98.318 29.5106C98.318 29.4503 98.318 29.3901 98.318 29.3499C98.318 29.3097 98.318 29.2695 98.3582 29.2494C98.3983 29.1691 98.4586 29.1088 98.5591 29.0887C98.6394 29.0486 98.7399 29.0285 98.8403 29.0084H98.8805V28.8677H96.9318V29.0084H96.972C96.972 29.0084 97.1528 29.0084 97.2532 29.0486C97.3336 29.0686 97.414 29.1289 97.4742 29.2494C97.4943 29.2896 97.5144 29.37 97.5345 29.4303C97.5345 29.5106 97.5345 29.591 97.5345 29.6713C97.5345 29.812 97.5345 29.9325 97.5345 30.0329V30.9972H95.1639V30.4146C95.1639 30.2539 95.1639 30.0932 95.1639 29.9325C95.1639 29.7718 95.1639 29.6111 95.1639 29.4704C95.1639 29.3901 95.184 29.3097 95.2242 29.2494C95.2644 29.1892 95.3046 29.149 95.3447 29.1088C95.3849 29.0686 95.4452 29.0486 95.5055 29.0285C95.5657 29.0285 95.626 29.0084 95.6863 28.9883H95.7264V28.8477H93.7979V28.9883H93.838C93.9385 28.9883 94.0389 29.0285 94.1193 29.0486C94.1996 29.0686 94.2599 29.1289 94.3202 29.1892C94.3403 29.2093 94.3604 29.2494 94.3604 29.2896C94.3604 29.3298 94.3604 29.3901 94.3804 29.4503C94.3804 29.5106 94.3804 29.5709 94.3804 29.6512V31.4392C94.3804 31.5597 94.3804 31.6803 94.3804 31.8008C94.3804 31.9214 94.3804 32.0218 94.3804 32.1222C94.3804 32.2227 94.3804 32.3031 94.3804 32.3633C94.3804 32.4236 94.3804 32.5039 94.3804 32.5642C94.3804 32.6446 94.3804 32.7048 94.3804 32.7651C94.3804 32.8254 94.3805 32.8856 94.3604 32.9258C94.3604 32.9861 94.3403 33.0062 94.3403 33.0062C94.3001 33.0665 94.2197 33.1066 94.1394 33.1468C94.059 33.187 93.9586 33.2071 93.8581 33.2272H93.8179V33.3678H95.7264V33.2272H95.6863C95.6863 33.2272 95.5256 33.187 95.4251 33.1468C95.3447 33.1066 95.2845 33.0665 95.2242 33.0062C95.2242 32.9861 95.184 32.9258 95.184 32.7852C95.184 32.6647 95.184 32.5642 95.184 32.4437V31.1579H97.5546V32.1022C97.5546 32.2428 97.5546 32.3834 97.5546 32.524C97.5546 32.5642 97.5546 32.6245 97.5546 32.6848C97.5546 32.745 97.5546 32.7852 97.5546 32.8455C97.5546 32.8856 97.5546 32.9258 97.5546 32.966C97.5546 33.0062 97.5546 33.0263 97.5546 33.0263C97.5345 33.0665 97.4541 33.1066 97.3738 33.1468C97.2733 33.187 97.1528 33.2071 97.0122 33.2272H96.972V33.3678H98.9609V33.2272H98.9207C98.8202 33.2272 98.7198 33.187 98.6394 33.1468" fill="white"/>
<path d="M108.825 33.1887C108.825 33.1887 108.704 33.1284 108.664 33.0882C108.624 33.048 108.584 33.0079 108.563 32.9677C108.563 32.9677 108.523 32.9074 108.503 32.8873C108.463 32.7869 108.403 32.6864 108.363 32.6061C108.322 32.5257 108.282 32.4052 108.242 32.2846C108.142 32.0235 108.041 31.7623 107.941 31.5011L107.639 30.6775C107.539 30.3962 107.418 30.0949 107.298 29.7935L107.017 29.0502L106.916 28.7891H106.796C106.796 28.7891 106.755 28.8694 106.715 28.9297C106.695 28.9699 106.655 29.01 106.615 29.0703C106.575 29.1306 106.514 29.1708 106.454 29.2109C106.394 29.2511 106.334 29.2913 106.253 29.3315H106.213L106.293 29.5123C106.193 29.7333 106.092 29.9944 105.992 30.2355C105.871 30.4967 105.771 30.7578 105.65 31.0391L105.329 31.8025C105.229 32.0436 105.128 32.2645 105.028 32.4654C104.927 32.6663 104.847 32.8271 104.787 32.9476C104.726 33.048 104.666 33.1284 104.646 33.1485C104.646 33.1485 104.626 33.1686 104.525 33.2288C104.445 33.269 104.365 33.3092 104.264 33.3092H104.224V33.4699H105.63V33.3293H105.59C105.59 33.3293 105.49 33.3092 105.429 33.2891C105.369 33.2891 105.329 33.269 105.269 33.2489C105.229 33.2288 105.188 33.2088 105.148 33.1686C105.128 33.1485 105.108 33.1083 105.108 33.0681C105.108 33.0079 105.128 32.8873 105.229 32.6061C105.289 32.4654 105.349 32.3248 105.409 32.1842C105.47 32.0436 105.53 31.9029 105.57 31.7623H107.157C107.217 31.923 107.278 32.0637 107.318 32.2043C107.378 32.3449 107.418 32.4855 107.459 32.6061C107.499 32.7266 107.539 32.8271 107.559 32.9074C107.579 32.9878 107.599 33.048 107.599 33.0882C107.599 33.1284 107.599 33.1686 107.559 33.2088C107.519 33.2489 107.479 33.269 107.438 33.2891C107.398 33.3092 107.338 33.3293 107.298 33.3293C107.238 33.3293 107.217 33.3293 107.217 33.3293H107.177V33.4699H109.066V33.3092H109.026C109.026 33.3092 108.865 33.2891 108.784 33.2489M107.077 31.5212H105.65L105.912 30.8985C105.992 30.6976 106.072 30.4967 106.153 30.336C106.233 30.1752 106.293 30.0346 106.334 29.9141C106.354 29.8538 106.374 29.7935 106.394 29.7534C106.434 29.8337 106.454 29.9141 106.494 30.0145C106.554 30.1551 106.615 30.3159 106.675 30.4967C106.735 30.6574 106.816 30.8382 106.896 31.0391C106.956 31.1998 107.017 31.3806 107.097 31.5413" fill="white"/>
<path d="M118.588 32.0444C118.548 32.1649 118.488 32.2855 118.428 32.406C118.367 32.5265 118.307 32.627 118.227 32.7074C118.146 32.8078 118.066 32.8882 117.945 32.9484C117.825 33.0087 117.704 33.0891 117.544 33.1292C117.483 33.1493 117.403 33.1694 117.302 33.1694C117.222 33.1694 117.122 33.1895 117.041 33.1895C116.961 33.1895 116.881 33.1895 116.8 33.1895C116.72 33.1895 116.68 33.1895 116.64 33.1895C116.559 33.1895 116.479 33.1895 116.398 33.1895C116.318 33.1895 116.238 33.1694 116.177 33.1493C116.117 33.1493 116.057 33.1292 115.997 33.089C115.936 33.069 115.916 33.0489 115.916 33.0489C115.876 33.0087 115.876 32.9082 115.856 32.8078C115.856 32.6873 115.856 32.5667 115.856 32.4261C115.856 32.2855 115.856 32.1649 115.856 32.0444C115.856 31.9239 115.856 31.8234 115.856 31.7029V30.5779C115.856 30.4573 115.856 30.3368 115.856 30.2163C115.856 30.0957 115.856 29.9953 115.856 29.8747C115.856 29.7542 115.856 29.6136 115.856 29.4729C115.856 29.3725 115.876 29.2921 115.936 29.2319C115.977 29.1716 116.037 29.1113 116.097 29.0912C116.157 29.0511 116.218 29.031 116.298 29.0109C116.378 29.0109 116.439 28.9908 116.499 28.9707H116.539V28.8301H114.47V28.9707H114.51C114.61 28.9707 114.711 29.0109 114.811 29.0511C114.892 29.0912 114.972 29.1314 115.032 29.1917C115.052 29.2118 115.073 29.252 115.073 29.2921C115.073 29.3323 115.073 29.3926 115.093 29.4529C115.093 29.5131 115.093 29.5935 115.093 29.6537V31.4417C115.093 31.5622 115.093 31.6828 115.093 31.8033C115.093 31.8837 115.093 31.944 115.093 32.0042V32.1248C115.093 32.2252 115.093 32.3056 115.093 32.3658C115.093 32.4261 115.093 32.4864 115.093 32.5667C115.093 32.627 115.093 32.7073 115.073 32.7676C115.073 32.8279 115.073 32.8882 115.032 32.9283C115.032 32.9685 115.012 33.0087 114.992 33.0288C114.932 33.0891 114.872 33.1292 114.771 33.1694C114.671 33.2096 114.57 33.2297 114.47 33.2498H114.43V33.3904H118.488L118.729 32.0444L118.588 32.0042V32.0444Z" fill="white"/>
<path d="M128.091 32.1222C127.99 32.3031 127.89 32.4437 127.789 32.5843C127.689 32.7048 127.588 32.8053 127.488 32.9057C127.388 32.9861 127.287 33.0464 127.187 33.1066C127.086 33.1468 126.966 33.187 126.825 33.2071C126.704 33.2071 126.584 33.2272 126.483 33.2473C126.383 33.2473 126.283 33.2473 126.222 33.2473C126.062 33.2473 125.901 33.2473 125.76 33.2071C125.6 33.187 125.539 33.1267 125.519 33.1066C125.479 33.0665 125.459 32.966 125.459 32.8656C125.459 32.745 125.459 32.6245 125.439 32.4839C125.439 32.4437 125.439 32.4035 125.439 32.3633C125.439 32.3633 125.439 32.2227 125.439 32.1423V31.399C125.439 31.399 125.439 31.2383 125.439 31.178H125.68C125.68 31.178 125.76 31.178 125.8 31.178H125.961C126.082 31.178 126.182 31.2182 126.263 31.2584C126.343 31.2986 126.423 31.3388 126.483 31.399C126.564 31.4593 126.624 31.5597 126.684 31.7004C126.745 31.841 126.805 31.9816 126.825 32.1022V32.1423H126.986V30.0932H126.825V30.1334C126.785 30.2338 126.765 30.3544 126.725 30.4347C126.704 30.5151 126.664 30.5954 126.604 30.6758C126.564 30.7361 126.483 30.7963 126.423 30.8365C126.343 30.8767 126.242 30.9169 126.122 30.9571C126.082 30.9571 126.001 30.9571 125.921 30.9771C125.841 30.9771 125.76 30.9771 125.68 30.9771C125.6 30.9771 125.539 30.9771 125.459 30.9771H125.379C125.379 30.9771 125.379 30.8968 125.379 30.8365V30.7963C125.379 30.7963 125.379 30.6356 125.379 30.5352V30.1334C125.379 29.8722 125.379 29.6311 125.379 29.4102C125.379 29.2294 125.379 29.1088 125.379 29.0285C125.419 29.0285 125.459 29.0285 125.539 29.0285C125.64 29.0285 125.72 29.0285 125.8 29.0285C126.062 29.0285 126.303 29.0285 126.483 29.0686C126.664 29.0887 126.805 29.1289 126.865 29.149C127.146 29.2896 127.468 29.5709 127.789 29.9727H127.809L127.93 29.9325L127.488 28.8677L123.992 28.8477V28.9883H124.033C124.153 28.9883 124.233 29.0285 124.294 29.0486C124.354 29.0486 124.414 29.1088 124.475 29.1691C124.475 29.1691 124.515 29.2294 124.515 29.2695C124.515 29.3298 124.535 29.3901 124.555 29.4503C124.555 29.5106 124.555 29.591 124.555 29.6713C124.555 29.7517 124.555 29.832 124.555 29.8923V31.4593C124.555 31.5798 124.555 31.7004 124.555 31.8209C124.555 31.9013 124.555 31.9615 124.555 32.0218V32.1423C124.555 32.2428 124.555 32.3231 124.555 32.3834C124.555 32.4437 124.555 32.524 124.555 32.5843C124.555 32.6446 124.555 32.7048 124.535 32.7852C124.535 32.8455 124.515 32.8856 124.495 32.9459C124.495 32.9861 124.475 33.0062 124.454 33.0263C124.394 33.0865 124.334 33.1267 124.254 33.1669C124.173 33.2071 124.073 33.2272 123.972 33.2473H123.932V33.3879H127.809L128.131 32.1624V32.1222L127.99 32.0821L128.091 32.1222Z" fill="white"/>
<path d="M138.035 28.8292V28.7891H137.975C137.895 28.8092 137.794 28.8493 137.694 28.8694C137.613 28.8694 137.493 28.8895 137.372 28.9096C137.211 28.9096 137.071 28.9096 136.95 28.9096C136.83 28.9096 136.729 28.9096 136.609 28.9096H136.589C136.468 28.9096 136.348 28.9096 136.227 28.9096H135.042C134.921 28.9096 134.801 28.9096 134.68 28.9096C134.56 28.9096 134.419 28.9096 134.258 28.9096C134.118 28.9096 133.997 28.9096 133.917 28.8895C133.836 28.8895 133.756 28.8694 133.656 28.8292H133.615L133.415 30.0547V30.0949L133.535 30.1351V30.0949C133.535 30.0949 133.615 29.9543 133.656 29.8739C133.696 29.7935 133.736 29.7132 133.796 29.6529C133.836 29.5926 133.897 29.5123 133.937 29.4721C133.977 29.4118 134.017 29.3717 134.037 29.3516C134.118 29.2712 134.218 29.2109 134.298 29.1909C134.399 29.1507 134.519 29.1507 134.68 29.1306C134.761 29.1306 134.841 29.1306 134.881 29.1306C134.941 29.1306 135.002 29.1306 135.042 29.1306H135.403V31.5011C135.403 31.6217 135.403 31.7422 135.403 31.8628V31.9833C135.403 31.9833 135.403 32.1038 135.403 32.1641C135.403 32.2645 135.403 32.3449 135.403 32.4052C135.403 32.4654 135.403 32.5257 135.403 32.6061C135.403 32.6663 135.403 32.7467 135.403 32.807C135.403 32.8672 135.403 32.9074 135.383 32.9677C135.383 33.0079 135.363 33.0279 135.343 33.048C135.243 33.1485 135.162 33.2088 135.062 33.2489C134.961 33.269 134.861 33.2891 134.761 33.3092H134.72V33.4498H136.83V33.3092H136.79C136.79 33.3092 136.589 33.2489 136.488 33.2288C136.388 33.2088 136.307 33.1485 136.247 33.0681C136.227 33.0279 136.207 32.9677 136.207 32.8672C136.207 32.7668 136.207 32.6462 136.207 32.5257V30.0949C136.207 29.894 136.207 29.7132 136.207 29.5324C136.207 29.3717 136.207 29.2511 136.207 29.1507H136.569C136.569 29.1507 136.689 29.1507 136.729 29.1507C136.79 29.1507 136.85 29.1507 136.93 29.1507C137.091 29.1507 137.211 29.1507 137.312 29.1909C137.412 29.2109 137.493 29.2712 137.573 29.3516C137.593 29.3717 137.633 29.4118 137.694 29.4721C137.734 29.5324 137.774 29.5926 137.834 29.673C137.895 29.7534 137.935 29.8136 137.975 29.894C138.015 29.9743 138.055 30.0547 138.095 30.115V30.1551L138.236 30.115L138.035 28.8694V28.8292Z" fill="white"/>
<path d="M32.7057 26.4985C32.5651 26.4784 32.4244 26.4382 32.2637 26.3779C32.103 26.3177 31.9624 26.2574 31.8218 26.177C31.6811 26.0967 31.5807 25.9962 31.5003 25.8757C31.3798 25.7351 31.2994 25.5141 31.2793 25.2127C31.2392 24.9315 31.2191 24.61 31.2191 24.2685C31.2191 23.8868 31.2191 23.4248 31.2191 22.9024V21.1948C31.2191 21.1948 31.2793 21.0341 31.3195 20.9939C31.3396 20.9538 31.3999 20.9337 31.5003 20.9337C31.5807 20.9337 31.6811 20.9738 31.7816 21.0542C31.882 21.1346 32.103 21.3355 32.4043 21.677C33.1276 22.4605 33.8106 23.244 34.4736 24.0074C35.1365 24.7708 37.1656 26.8601 37.8888 27.7239C37.9691 27.8043 38.0294 27.8645 38.0897 27.9047C38.1499 27.9449 38.1901 27.9851 38.2504 28.0052H42.1478V27.8244C41.8263 27.8043 41.525 27.7641 41.2638 27.7038C41.0027 27.6436 40.8018 27.5833 40.641 27.523C40.6009 27.523 40.5406 27.4628 40.4401 27.3824C40.3397 27.302 38.8933 25.9359 38.7526 25.8355C38.612 25.7351 38.4714 25.5944 38.3107 25.4538C38.17 25.3132 38.0294 25.1725 37.9089 25.0319C37.4267 24.4895 36.9245 23.927 36.3821 23.3243C35.8597 22.7417 35.3575 22.1792 34.8954 21.6569C34.4334 21.1346 34.0316 20.6926 33.6901 20.2908C33.3486 19.9091 33.1477 19.6479 33.0472 19.5274C33.2481 19.3265 33.4691 19.1055 33.6901 18.8644C33.9311 18.6234 34.1722 18.3823 34.4133 18.1211C34.6544 17.86 34.9155 17.6189 35.1767 17.3577C35.4379 17.0966 35.6789 16.8756 35.92 16.6546C36.5428 16.072 37.1656 15.5698 37.7682 15.1278C38.3709 14.6858 38.9736 14.4448 39.5562 14.3845V14.2037H34.9155V14.3845C35.2169 14.4247 35.478 14.5251 35.7191 14.6858C35.9401 14.8265 36.0606 15.0876 36.0606 15.4091C36.0606 15.6099 35.9803 15.8309 35.8196 16.072C35.6588 16.3131 35.478 16.5542 35.2972 16.7751C35.016 17.0765 34.6945 17.418 34.3128 17.8399C33.9311 18.2417 33.5494 18.6435 33.1677 19.0252C32.786 19.4069 32.4043 19.7484 32.0628 20.0497C31.7012 20.3511 31.42 20.5721 31.2191 20.6926V18.0006C31.2191 17.6993 31.2191 17.4381 31.2191 17.197C31.2191 16.9559 31.2191 16.7149 31.2392 16.4537C31.2392 15.9716 31.3195 15.5899 31.42 15.3287C31.5204 15.0675 31.661 14.8666 31.8218 14.726C31.9825 14.5854 32.1633 14.505 32.3843 14.4648C32.5852 14.4247 32.8061 14.3845 33.0271 14.3644V14.1836H27.6431V14.3644C27.9445 14.4046 28.2056 14.4648 28.4467 14.5653C28.6677 14.6657 28.8686 14.8064 29.0293 14.9872C29.1498 15.1479 29.2302 15.4091 29.2704 15.7908C29.3106 16.1524 29.3106 16.5742 29.3106 16.9961V22.4002C29.3106 22.7216 29.3106 23.023 29.3106 23.3042C29.3106 23.5855 29.3106 23.8065 29.3106 23.9672C29.3106 24.148 29.3106 24.3489 29.3106 24.5498C29.3106 24.7507 29.3106 24.9516 29.2704 25.1324C29.2704 25.3132 29.2302 25.4739 29.19 25.6145C29.1498 25.7551 29.1097 25.8556 29.0494 25.9159C28.9088 26.0766 28.7079 26.1971 28.4467 26.2976C28.1856 26.398 27.9043 26.4583 27.623 26.4985V26.6793H32.6856C32.6856 26.6793 32.7258 26.5185 32.7459 26.4382" fill="white"/>
<path d="M38.0696 21.517C37.4468 21.6777 36.9044 21.8987 36.4222 22.1599C36.382 22.1599 36.362 22.2001 36.3218 22.2202C36.5829 22.4813 36.8441 22.7425 37.1053 23.0036C37.4267 22.642 37.8084 22.3407 38.2504 22.0996C38.8731 21.738 39.5763 21.5572 40.3799 21.5572C40.9625 21.5572 41.5049 21.6577 42.0272 21.8786C42.5495 22.0795 43.0116 22.3608 43.4134 22.7224C43.8152 23.084 44.1768 23.5059 44.4781 23.988C44.7795 24.4702 45.0004 24.9925 45.1612 25.555H45.3621V21.6576H45.1612C45.1009 21.7581 45.0205 21.8585 44.9402 21.959C44.8598 22.0594 44.7795 22.1398 44.6991 22.2202C44.6187 22.3005 44.5585 22.3608 44.4982 22.421C44.4379 22.4612 44.3978 22.5014 44.3576 22.5014C44.3375 22.5014 44.237 22.4411 44.0562 22.3005C43.8754 22.18 43.6143 22.0394 43.2527 21.8786C42.9111 21.738 42.4692 21.5974 41.9468 21.4568C41.4245 21.3362 40.8218 21.2559 40.1187 21.2559C39.3553 21.2559 38.6723 21.3362 38.0495 21.4969" fill="white"/>
<path d="M44.5584 31.3804C44.2772 31.8424 43.9357 32.2643 43.5138 32.6259C43.112 32.9875 42.6298 33.2688 42.1075 33.4898C41.5852 33.7108 41.0227 33.8112 40.42 33.8112C39.6566 33.8112 38.9535 33.6505 38.3307 33.3491C37.7079 33.0277 37.1655 32.6058 36.7436 32.0634C36.3017 31.521 35.9601 30.8982 35.7191 30.175C35.478 29.4518 35.3574 28.6683 35.3574 27.8245C35.3574 27.3022 35.4177 26.7799 35.5182 26.2776C35.5182 26.2776 35.478 26.2576 35.478 26.2375C34.9958 25.7151 34.5137 25.1727 34.0315 24.6504C33.9311 24.8513 33.8306 25.0522 33.7503 25.233C33.6097 25.5544 33.5092 25.8758 33.4489 26.1772C33.3686 26.4785 33.3284 26.7598 33.2882 27.021C33.2681 27.2821 33.248 27.5232 33.248 27.7241C33.248 28.6683 33.4088 29.512 33.7302 30.2955C34.0516 31.079 34.5137 31.742 35.1365 32.3045C35.7391 32.867 36.4825 33.2889 37.3463 33.6103C38.2102 33.9116 39.1745 34.0724 40.2593 34.0724C40.9021 34.0724 41.4847 34.0121 41.987 33.9116C42.4892 33.7911 42.9111 33.6706 43.2526 33.5299C43.5941 33.3893 43.8553 33.2487 44.0562 33.1282C44.237 33.0076 44.3375 32.9474 44.3575 32.9474C44.4178 32.9474 44.5183 33.0277 44.6589 33.1884C44.7995 33.3491 44.9602 33.5299 45.1009 33.7308H45.3017L45.362 29.9138H45.1611C45.0607 30.4161 44.8598 30.8982 44.5785 31.3603" fill="white"/>
<path d="M22.52 24.2273C22.7611 24.2072 22.9419 23.9862 22.9218 23.7451C22.9017 23.504 22.6807 23.3232 22.4396 23.3433C22.1986 23.3634 21.9977 23.5844 22.0379 23.8255C22.0579 24.0665 22.2588 24.2473 22.4798 24.2473C22.4798 24.2473 22.4999 24.2473 22.52 24.2473" fill="white"/>
<path d="M22.4 20.1906C22.641 20.1906 22.8419 19.9897 22.8419 19.7486C22.8419 19.5075 22.641 19.3066 22.4 19.3066C22.1589 19.3066 21.958 19.5075 21.958 19.7486C21.958 19.9897 22.1589 20.1906 22.4 20.1906Z" fill="white"/>
<path d="M22.4 22.2199C22.641 22.2199 22.8419 22.019 22.8419 21.7779C22.8419 21.5368 22.641 21.3359 22.4 21.3359C22.1589 21.3359 21.958 21.5368 21.958 21.7779C21.958 22.019 22.1589 22.2199 22.4 22.2199Z" fill="white"/>
<path d="M22.4 16.132C22.641 16.132 22.8419 15.9311 22.8419 15.69C22.8419 15.4489 22.641 15.248 22.4 15.248C22.1589 15.248 21.958 15.4489 21.958 15.69C21.958 15.9311 22.1589 16.132 22.4 16.132Z" fill="white"/>
<path d="M22.4 18.1613C22.641 18.1613 22.8419 17.9604 22.8419 17.7193C22.8419 17.4782 22.641 17.2773 22.4 17.2773C22.1589 17.2773 21.958 17.4782 21.958 17.7193C21.958 17.9604 22.1589 18.1613 22.4 18.1613Z" fill="white"/>
<path d="M22.4 14.1027C22.641 14.1027 22.8419 13.9018 22.8419 13.6607C22.8419 13.4196 22.641 13.2188 22.4 13.2188C22.1589 13.2188 21.958 13.4196 21.958 13.6607C21.958 13.9018 22.1589 14.1027 22.4 14.1027Z" fill="white"/>
<path d="M25.7551 33.7318C25.7551 33.7318 25.9158 33.7117 25.9962 33.6514C26.1971 33.5108 26.2574 33.2295 26.1368 33.0286C25.9962 32.8277 25.7149 32.7675 25.514 32.888C25.2931 33.0286 25.2529 33.3099 25.3734 33.5108C25.4538 33.6514 25.6145 33.7117 25.7551 33.7117" fill="white"/>
<path d="M48.6165 31.9013C48.6165 31.9013 48.6969 31.9013 48.7371 31.9013C48.938 31.9013 49.1188 31.7807 49.179 31.5798C49.2594 31.3387 49.1188 31.0977 48.8777 31.0173C48.6366 30.957 48.3955 31.0776 48.3152 31.3187C48.2348 31.5597 48.3755 31.8008 48.6165 31.8812" fill="white"/>
<path d="M23.2036 25.7135C23.1634 25.4724 22.9223 25.3117 22.6812 25.3519C22.4402 25.392 22.2795 25.6331 22.3196 25.8742C22.3598 26.0952 22.5406 26.2358 22.7616 26.2358C22.7817 26.2358 22.8219 26.2358 22.842 26.2358C23.083 26.1956 23.2437 25.9545 23.2036 25.7135Z" fill="white"/>
<path d="M49.179 29.4911C49.0986 29.7322 49.2392 29.9732 49.4803 30.0536C49.5205 30.0536 49.5607 30.0536 49.6008 30.0536C49.8017 30.0536 49.9825 29.9331 50.0428 29.7322C50.1031 29.4911 49.9825 29.25 49.7415 29.1697C49.5004 29.1094 49.2593 29.2299 49.179 29.471" fill="white"/>
<path d="M24.5496 31.0378C24.3086 31.1181 24.1679 31.3592 24.2483 31.6003C24.3086 31.8012 24.4894 31.9217 24.6702 31.9217C24.7103 31.9217 24.7505 31.9217 24.7907 31.9217C25.0318 31.8614 25.1724 31.6003 25.092 31.3592C25.0117 31.1181 24.7706 30.9775 24.5295 31.0579" fill="white"/>
<path d="M23.6654 27.6444C23.585 27.4033 23.3439 27.2627 23.1029 27.343C22.8618 27.4234 22.7212 27.6644 22.8015 27.9055C22.8618 28.1064 23.0426 28.227 23.2435 28.227C23.2837 28.227 23.3238 28.227 23.364 28.227C23.6051 28.1667 23.7457 27.9055 23.6654 27.6644" fill="white"/>
<path d="M23.806 30.0545C23.806 30.0545 23.8863 30.0545 23.9265 30.0545C24.1676 29.9742 24.3082 29.7331 24.2279 29.492C24.1676 29.2509 23.9064 29.1103 23.6654 29.1907C23.4243 29.2509 23.2837 29.5121 23.364 29.7532C23.4243 29.9541 23.6051 30.0746 23.806 30.0746" fill="white"/>
<path d="M21.9983 11.7936C21.9983 11.7936 22.0183 11.8538 22.0384 11.8739C22.0384 11.894 22.0786 11.9141 22.0987 11.9342C22.1188 11.9342 22.1389 11.9744 22.159 11.9945C22.1791 11.9945 22.1992 12.0145 22.2393 12.0346C22.2594 12.0346 22.2996 12.0346 22.3197 12.0547C22.3398 12.0547 22.38 12.0547 22.4 12.0547C22.5206 12.0547 22.6411 12.0145 22.7215 11.9141C22.7215 11.894 22.7617 11.8739 22.7817 11.8538C22.7817 11.8337 22.8219 11.7936 22.8219 11.7735C22.8219 11.7534 22.842 11.7132 22.842 11.6931C22.842 11.673 22.842 11.6328 22.842 11.6128C22.842 11.4922 22.8018 11.3717 22.7014 11.2913C22.6009 11.1909 22.4402 11.1306 22.2996 11.1708C22.2795 11.1708 22.2393 11.1708 22.2192 11.1909C22.1992 11.1909 22.159 11.211 22.1389 11.2311C22.1188 11.2311 22.0987 11.2712 22.0786 11.2913C21.9983 11.3717 21.938 11.4922 21.938 11.6128C21.938 11.6328 21.938 11.673 21.938 11.6931C21.938 11.7132 21.938 11.7534 21.9581 11.7735" fill="white"/>
<path d="M28.2455 12.1342C28.2455 12.1342 28.3058 12.1342 28.3258 12.1342C28.5669 12.0941 28.7276 11.853 28.6875 11.6119C28.6473 11.3708 28.4062 11.2101 28.1651 11.2503C27.9241 11.2905 27.7633 11.5315 27.8035 11.7726C27.8437 11.9936 28.0245 12.1342 28.2455 12.1342Z" fill="white"/>
<path d="M30.1542 11.6523C30.1542 11.6523 30.2546 11.6523 30.2948 11.6322C30.5359 11.5519 30.6564 11.2907 30.5761 11.0697C30.4957 10.8286 30.2345 10.7081 30.0136 10.7885C29.7725 10.8688 29.652 11.13 29.7323 11.351C29.7926 11.5519 29.9734 11.6523 30.1542 11.6523Z" fill="white"/>
<path d="M31.9626 10.9285C31.9626 10.9285 32.1032 10.9285 32.1635 10.8883C32.3844 10.7879 32.4849 10.5066 32.3844 10.2857C32.284 10.0647 32.0027 9.96423 31.7818 10.0848C31.5608 10.1852 31.4603 10.4665 31.5809 10.6875C31.6612 10.8482 31.8219 10.9486 31.9827 10.9486" fill="white"/>
<path d="M33.6702 9.96476C33.6702 9.96476 33.8309 9.94467 33.9113 9.88441C34.1121 9.74378 34.1724 9.46253 34.0318 9.26163C33.8912 9.06074 33.6099 9.00047 33.409 9.14109C33.2081 9.28172 33.1479 9.56297 33.2684 9.76387C33.3487 9.90449 33.4894 9.96476 33.6501 9.96476" fill="white"/>
<path d="M35.2371 8.77986C35.3376 8.77986 35.438 8.73969 35.5184 8.67942C35.7193 8.5187 35.7394 8.23745 35.5786 8.03655C35.4179 7.83566 35.1367 7.81557 34.9358 7.97628C34.755 8.137 34.7349 8.41825 34.8956 8.61915C34.976 8.7196 35.1166 8.77986 35.2371 8.77986Z" fill="white"/>
<path d="M26.2969 12.3761H26.317C26.5581 12.3761 26.759 12.1551 26.7389 11.894C26.7389 11.6529 26.5179 11.452 26.2568 11.4721C26.0157 11.4721 25.8148 11.6931 25.8349 11.9542C25.8349 12.1953 26.0559 12.3761 26.2769 12.3761" fill="white"/>
<path d="M24.3081 12.3552C24.3081 12.3552 24.3282 12.3552 24.3483 12.3552C24.5894 12.3552 24.7702 12.1744 24.7903 11.9333C24.7903 11.6922 24.6295 11.4713 24.3684 11.4512C24.1273 11.4512 23.9063 11.6119 23.8862 11.8731C23.8862 12.1141 24.0469 12.3351 24.3081 12.3552Z" fill="white"/>
<path d="M36.7238 7.51321C36.8443 7.51321 36.9649 7.47303 37.0452 7.37259C37.0452 7.37259 37.0854 7.33241 37.1055 7.31232C37.1055 7.29223 37.1457 7.25205 37.1457 7.23196C37.1457 7.21187 37.1657 7.17169 37.1657 7.1516C37.1657 7.13151 37.1657 7.09133 37.1657 7.07124C37.1657 7.05116 37.1657 7.01098 37.1657 6.99089C37.1657 6.9708 37.1657 6.93062 37.1457 6.91053C37.1457 6.89044 37.1256 6.85026 37.1055 6.83017C37.1055 6.81008 37.0653 6.78999 37.0452 6.7699C37.0251 6.7699 37.005 6.72972 36.9649 6.70963C36.9448 6.70963 36.9247 6.68954 36.8845 6.66945C36.8644 6.66945 36.8242 6.66945 36.8041 6.64937C36.6635 6.62928 36.5028 6.64936 36.4023 6.7699C36.322 6.85026 36.2617 6.9708 36.2617 7.09133C36.2617 7.21187 36.3019 7.33241 36.4023 7.41277C36.4827 7.49312 36.6032 7.55339 36.7238 7.55339" fill="white"/>
<path d="M39.5361 9.88341C39.5361 9.88341 39.6968 9.96377 39.7772 9.96377C39.9178 9.96377 40.0584 9.88341 40.1589 9.76288C40.2995 9.56198 40.2392 9.28073 40.0182 9.1401C39.8174 8.99948 39.5361 9.05974 39.3955 9.28073C39.2548 9.48162 39.3151 9.76288 39.5361 9.9035" fill="white"/>
<path d="M43.1723 11.6322C43.1723 11.6322 43.2727 11.6523 43.3129 11.6523C43.4937 11.6523 43.6745 11.5318 43.7348 11.351C43.8151 11.1099 43.6946 10.8688 43.4535 10.7885C43.2124 10.7081 42.9714 10.8487 42.891 11.0697C42.8106 11.3108 42.9312 11.5519 43.1723 11.6322Z" fill="white"/>
<path d="M41.2839 10.8689C41.2839 10.8689 41.4045 10.9091 41.4848 10.9091C41.6455 10.9091 41.8063 10.8087 41.8866 10.648C41.9871 10.427 41.8866 10.1457 41.6656 10.0453C41.4447 9.94482 41.1634 10.0453 41.063 10.2462C40.9625 10.4671 41.063 10.7484 41.2839 10.8488" fill="white"/>
<path d="M47.13 12.3747H47.15C47.3911 12.3747 47.592 12.1939 47.592 11.9529C47.592 11.7118 47.4112 11.4908 47.1701 11.4707C46.9291 11.4707 46.7081 11.6515 46.688 11.8926C46.688 12.1337 46.8688 12.3546 47.1099 12.3747" fill="white"/>
<path d="M38.2099 8.77986C38.3304 8.77986 38.4711 8.7196 38.5514 8.61915C38.7121 8.41825 38.692 8.137 38.5112 7.97628C38.3103 7.81557 38.0291 7.83566 37.8684 8.03655C37.7077 8.21736 37.7277 8.5187 37.9286 8.67942C38.009 8.75978 38.1095 8.77986 38.23 8.77986" fill="white"/>
<path d="M49.0991 12.3546C49.0991 12.3546 49.1192 12.3546 49.1393 12.3546C49.3804 12.3546 49.5612 12.1136 49.5612 11.8725C49.5411 11.6314 49.3201 11.4305 49.079 11.4506C48.838 11.4506 48.6371 11.6917 48.6571 11.9328C48.6571 12.1738 48.8781 12.3546 49.0991 12.3546Z" fill="white"/>
<path d="M45.1212 12.1342C45.1212 12.1342 45.1814 12.1342 45.2015 12.1342C45.4225 12.1342 45.6033 11.9735 45.6435 11.7726C45.6837 11.5315 45.523 11.2905 45.2819 11.2503C45.0408 11.2101 44.7998 11.3708 44.7596 11.6119C44.7194 11.853 44.8801 12.0941 45.1212 12.1342Z" fill="white"/>
<path d="M50.6256 11.7933C50.6256 11.7933 50.6456 11.8535 50.6657 11.8736C50.6657 11.8937 50.7059 11.9138 50.726 11.9339C50.7461 11.9339 50.7662 11.9741 50.7863 11.9941C50.8064 11.9941 50.8465 12.0142 50.8666 12.0343C50.8867 12.0343 50.9269 12.0343 50.947 12.0544C50.9671 12.0544 51.0073 12.0544 51.0273 12.0544C51.1479 12.0544 51.2684 12.0142 51.3488 11.9138C51.4291 11.8334 51.4894 11.7129 51.4894 11.5924C51.4894 11.4718 51.4492 11.3513 51.3488 11.2709C51.3287 11.2508 51.3086 11.2307 51.2885 11.2107C51.2684 11.2107 51.2483 11.1906 51.2082 11.1705C51.1881 11.1705 51.1479 11.1705 51.1278 11.1504C51.0675 11.1504 51.0073 11.1504 50.947 11.1504C50.9269 11.1504 50.8867 11.1504 50.8666 11.1705C50.8465 11.1705 50.8064 11.1906 50.7863 11.2107C50.7662 11.2107 50.7461 11.2508 50.726 11.2709C50.7059 11.2709 50.6858 11.3111 50.6657 11.3312C50.6657 11.3513 50.6256 11.3915 50.6256 11.4116C50.6256 11.4316 50.6055 11.4718 50.6055 11.4919C50.6055 11.512 50.6055 11.5522 50.6055 11.5723C50.6055 11.5924 50.6055 11.6325 50.6055 11.6526C50.6055 11.6727 50.6055 11.7129 50.6256 11.733" fill="white"/>
<path d="M50.6056 26.2358C50.6056 26.2358 50.6658 26.2358 50.6859 26.2358C50.8868 26.2358 51.0877 26.0751 51.1279 25.8742C51.1681 25.6331 51.0073 25.392 50.7663 25.3519C50.5252 25.3117 50.2841 25.4724 50.2439 25.7135C50.2038 25.9545 50.3645 26.1956 50.6056 26.2358Z" fill="white"/>
<path d="M51.0474 22.1984C51.2885 22.1984 51.4894 21.9975 51.4894 21.7564C51.4894 21.5153 51.2885 21.3145 51.0474 21.3145C50.8064 21.3145 50.6055 21.5153 50.6055 21.7564C50.6055 21.9975 50.8064 22.1984 51.0474 22.1984Z" fill="white"/>
<path d="M51.0474 16.132C51.2885 16.132 51.4894 15.9311 51.4894 15.69C51.4894 15.4489 51.2885 15.248 51.0474 15.248C50.8064 15.248 50.6055 15.4489 50.6055 15.69C50.6055 15.9311 50.8064 16.132 51.0474 16.132Z" fill="white"/>
<path d="M51.0474 18.1613C51.2885 18.1613 51.4894 17.9604 51.4894 17.7193C51.4894 17.4782 51.2885 17.2773 51.0474 17.2773C50.8064 17.2773 50.6055 17.4782 50.6055 17.7193C50.6055 17.9604 50.8064 18.1613 51.0474 18.1613Z" fill="white"/>
<path d="M51.0474 14.1027C51.2885 14.1027 51.4894 13.9018 51.4894 13.6607C51.4894 13.4196 51.2885 13.2188 51.0474 13.2188C50.8064 13.2188 50.6055 13.4196 50.6055 13.6607C50.6055 13.9018 50.8064 14.1027 51.0474 14.1027Z" fill="white"/>
<path d="M50.9268 24.2278C50.9268 24.2278 50.9468 24.2278 50.9669 24.2278C51.1879 24.2278 51.3888 24.047 51.4089 23.8059C51.429 23.5649 51.2482 23.3439 51.0071 23.3238C50.766 23.3037 50.5451 23.4845 50.525 23.7256C50.5049 23.9667 50.6857 24.1876 50.9268 24.2077" fill="white"/>
<path d="M50.1029 28.1864C50.1029 28.1864 50.1833 28.1864 50.2235 28.1864C50.4244 28.1864 50.6052 28.0659 50.6453 27.865C50.7257 27.6239 50.5851 27.3828 50.344 27.3025C50.1029 27.2422 49.8618 27.3627 49.7815 27.6038C49.7011 27.8449 49.8418 28.086 50.0828 28.1663" fill="white"/>
<path d="M51.0474 20.171C51.2885 20.171 51.4894 19.9702 51.4894 19.7291C51.4894 19.488 51.2885 19.2871 51.0474 19.2871C50.8064 19.2871 50.6055 19.488 50.6055 19.7291C50.6055 19.9702 50.8064 20.171 51.0474 20.171Z" fill="white"/>
<path d="M47.3305 33.0282C47.1899 33.2291 47.2502 33.5104 47.4712 33.651C47.5515 33.6912 47.6319 33.7314 47.7122 33.7314C47.8529 33.7314 48.0136 33.651 48.0939 33.5305C48.2346 33.3296 48.1743 33.0483 47.9533 32.9077C47.7524 32.7671 47.4712 32.8273 47.3305 33.0483" fill="white"/>
<path d="M51.6502 30.918V30.8778V29.9939C52.4739 27.4425 52.936 24.63 52.936 21.9781V9.28158L50.6659 9.76373C49.7819 9.94453 48.8779 10.045 47.9538 10.045C44.86 10.045 41.8867 8.94006 39.5363 6.9512L36.7237 4.56055L33.9112 6.9512C31.5607 8.94006 28.5674 10.045 25.4937 10.045C24.5897 10.045 23.6857 9.94453 22.7816 9.76373L20.5115 9.28158V21.9581C20.5115 24.63 20.9736 27.4224 21.7973 29.9738V30.8979H12.5762L15.9512 34.2729L12.6164 37.6078H21.9379C25.5138 42.2083 30.8978 44.84 36.7037 44.84C42.5095 44.84 47.9136 42.2083 51.4694 37.6078H60.7709L57.436 34.2729L60.8111 30.8979H51.6101L51.6502 30.918ZM51.5699 36.9649C51.5699 36.6234 51.5699 36.2618 51.5699 35.8801H52.936C53.0565 35.8801 53.1369 35.7796 53.1369 35.6792C53.1369 35.5787 53.0364 35.4783 52.936 35.4783H51.59C51.59 35.1368 51.59 34.7952 51.59 34.4537H53.4181C53.5387 34.4537 53.619 34.3734 53.619 34.2528C53.619 34.1323 53.5186 34.0519 53.4181 34.0519H51.59C51.59 33.7104 51.59 33.389 51.59 33.0475H52.8757C52.9962 33.0475 53.0766 32.947 53.0766 32.8466C53.0766 32.7461 52.9762 32.6457 52.8757 32.6457H51.59C51.59 32.2841 51.59 31.9224 51.59 31.5809H59.2039L56.4717 34.3131L59.1436 36.985H51.4895L51.5699 36.9649ZM50.9069 37.2863C47.7529 41.3042 43.1524 43.7351 38.13 44.1369C37.7684 44.1569 37.4068 44.177 37.0452 44.1971C36.9447 44.1971 36.8242 44.1971 36.7237 44.1971C36.6233 44.1971 36.5028 44.1971 36.4023 44.1971C36.0407 44.1971 35.6791 44.177 35.3175 44.1369C30.275 43.7552 25.6946 41.3042 22.5406 37.2863C22.5406 36.985 22.5406 36.6837 22.5406 36.3622L23.1834 37.0453C23.1834 37.0453 23.2839 37.1055 23.3241 37.1055C23.3642 37.1055 23.4245 37.1055 23.4647 37.0453C23.545 36.9649 23.545 36.8444 23.4647 36.764L22.5004 35.7595C22.5004 35.4783 22.5004 35.197 22.5004 34.8957L23.8464 36.2819C23.8464 36.2819 23.9468 36.3421 23.987 36.3421C24.0272 36.3421 24.0875 36.322 24.1276 36.2819C24.208 36.2015 24.208 36.081 24.1276 36.0006L22.4803 34.293C22.4803 34.293 22.4803 34.1725 22.4803 34.1122C22.4803 33.8912 22.4803 33.6903 22.4803 33.4693L23.1633 34.2126C23.2035 34.2528 23.2638 34.2729 23.304 34.2729C23.3441 34.2729 23.4044 34.2729 23.4446 34.2126C23.4848 34.1725 23.5249 34.1122 23.5049 34.0519C23.5049 34.0118 23.4848 33.9716 23.4446 33.9314H23.4245L22.4803 32.8867H22.4602C22.4602 32.4849 22.4602 32.1434 22.4602 31.8019C22.4602 31.8019 22.4803 31.822 22.5004 31.8421C22.7816 32.1836 23.0629 32.505 23.3642 32.8064C23.6857 33.1479 24.0071 33.4894 24.3486 33.8109C25.9558 35.3377 27.6835 36.5631 29.5116 37.4471C29.7527 37.5676 29.9737 37.668 30.2148 37.7685C32.3041 38.6725 34.5139 39.1547 36.7438 39.1547C38.9738 39.1547 41.1836 38.6725 43.2729 37.7685C43.514 37.668 43.735 37.5676 43.9761 37.4471C45.8042 36.5631 47.5319 35.3377 49.1391 33.8109C49.4806 33.4894 49.802 33.1479 50.1234 32.8064C50.4047 32.505 50.686 32.1836 50.9471 31.8622C50.9471 31.8421 50.9873 31.822 51.0074 31.8019C51.0074 32.1434 51.0074 32.4849 51.0074 32.8265L50.9672 32.8867L50.0833 33.8109L49.9627 33.9314C49.9627 33.9314 49.9025 34.0519 49.9025 34.1122C49.9025 34.1524 49.9226 34.1926 49.9627 34.2126C50.0029 34.2528 50.0632 34.2729 50.1034 34.2729C50.1636 34.2729 50.2038 34.2528 50.2641 34.2126L50.9471 33.4894L50.9873 33.4492C50.9873 33.6702 50.9873 33.9113 50.9873 34.1323C50.9873 34.1725 50.9873 34.2126 50.9873 34.2729H50.9672L49.2998 36.0207C49.2194 36.1011 49.2194 36.2216 49.2998 36.302C49.34 36.3421 49.4002 36.3622 49.4404 36.3622C49.4806 36.3622 49.5408 36.3421 49.581 36.302L50.9471 34.8957H50.9672C50.9672 35.1569 50.9672 35.4582 50.9672 35.7394L49.9828 36.7841C49.9025 36.8645 49.9025 37.0051 49.9828 37.0654C50.023 37.1055 50.0833 37.1256 50.1234 37.1256C50.1837 37.1256 50.2239 37.1055 50.2842 37.0654L50.9672 36.3421C50.9672 36.6837 50.9672 37.0051 50.9672 37.3064M16.9356 34.3131L14.2034 31.5809H21.8575C21.8575 31.9224 21.8575 32.2841 21.8575 32.6457H20.5316C20.4111 32.6457 20.3307 32.7461 20.3307 32.8466C20.3307 32.947 20.4111 33.0475 20.5316 33.0475H21.8575C21.8575 33.389 21.8575 33.7104 21.8575 34.0519H19.9892C19.8687 34.0519 19.7883 34.1524 19.7883 34.2528C19.7883 34.3533 19.8887 34.4537 19.9892 34.4537H21.8575C21.8575 34.4537 21.8575 34.6345 21.8575 34.735V35.4783H20.4713C20.3508 35.4783 20.2704 35.5586 20.2704 35.6792C20.2704 35.7997 20.3709 35.8801 20.4713 35.8801H21.8575V36.9649H14.2235L16.8954 34.293L16.9356 34.3131ZM21.3955 10.3262L22.6812 10.6075C23.6254 10.8084 24.5897 10.9088 25.554 10.9088C28.8286 10.9088 32.0027 9.74364 34.5139 7.61415L36.784 5.68556L39.0541 7.61415C41.5452 9.74364 44.7395 10.9088 48.014 10.9088C48.9783 10.9088 49.9426 10.8084 50.8868 10.6075L52.1726 10.3262V21.9781C52.1726 25.3331 51.4293 28.8889 50.1435 31.8622C49.1591 32.9872 48.1145 33.9716 47.0096 34.8354C46.9895 34.735 46.9292 34.6546 46.8489 34.5943C46.648 34.4336 46.3667 34.4738 46.206 34.6747C46.0453 34.8756 46.0855 35.1569 46.2864 35.3176C46.2864 35.3176 46.3265 35.3377 46.3466 35.3577C43.4135 37.4471 40.139 38.552 36.784 38.552C33.4291 38.552 30.1545 37.4471 27.2214 35.3577C27.2214 35.3577 27.2616 35.3377 27.2817 35.3176C27.4826 35.1569 27.5027 34.8756 27.362 34.6747C27.2013 34.4738 26.9201 34.4537 26.7192 34.5943C26.6388 34.6546 26.5786 34.7551 26.5585 34.8354C25.4535 33.9917 24.4089 32.9872 23.4245 31.8622C22.1589 28.8889 21.3955 25.3331 21.3955 21.9781V10.3061V10.3262Z" fill="white"/>
<path d="M48.0138 36.9459L47.9334 36.9861L46.9089 37.5486L46.7281 37.649L46.4468 37.4481L45.5428 36.7852L45.8039 38.1312V38.2316L45.4021 38.5329L44.6187 39.0954H44.7794L45.3218 39.1758L45.8441 39.2361H46.0651L46.5071 40.6624L47.1298 39.3365H48.5964L47.5115 38.3521L47.9736 36.966L48.0138 36.9459ZM47.7928 38.995H46.949L46.6075 39.7383L46.3664 38.9347H46.1856L45.6633 38.8544H45.5227L46.0651 38.4526L46.2057 38.3521V38.312L46.1053 37.8298L46.045 37.5285L46.2459 37.6691L46.5673 37.9102L46.708 38.0106L47.3508 37.649L47.4513 37.5887L47.1901 38.3722L47.8129 38.9347L47.7928 38.995Z" fill="white"/>
<path d="M43.8757 39.6967L42.4493 40.0382L42.0475 39.5159L41.6457 38.9936L41.5453 38.873L41.4248 40.3396L40.0386 40.8217L41.3846 41.4043V41.6052V42.0673V42.5293L41.4047 42.8709L42.0073 42.1677L42.369 41.7458L42.5699 41.8061L43.7752 42.1677L43.273 41.324L43.052 40.9824L43.0118 40.9021L43.5743 40.0784L43.8355 39.6967H43.8757ZM42.8109 41.1632L43.0118 41.5249L43.0721 41.6052L42.9515 41.565L42.4493 41.4043L42.2886 41.3641L42.0073 41.6856L41.7462 41.9869V41.8463V41.3641V41.1432L40.9627 40.8217L41.7462 40.5405L41.8265 39.7168L42.3288 40.3798L43.1324 40.199L42.8109 40.6811L42.6703 40.9021L42.831 41.1833L42.8109 41.1632Z" fill="white"/>
<path d="M37.2661 41.0829L36.7438 39.7168L36.2014 41.0829L35.3375 41.1231H34.7349L35.0965 41.4445L35.88 42.0874L35.5384 43.3329L35.4983 43.5137L35.6791 43.3932L36.7438 42.7101L37.7885 43.4133L37.9693 43.5338L37.9291 43.353L37.6077 42.1074L38.4112 41.4646L38.7528 41.1833L38.1501 41.1431L37.2862 41.0829H37.2661ZM37.226 41.9668L37.4269 42.7704L36.7639 42.3284H36.7237H36.7036L36.0206 42.7503L36.2416 41.9467L35.5987 41.4244L36.4425 41.3842L36.7438 40.6007L37.0452 41.3842L37.8688 41.4445L37.226 41.9668Z" fill="white"/>
<path d="M31.9222 38.873L31.8016 39.0137L31.4199 39.5159L31.0182 40.0382L29.5918 39.6766L29.8931 40.1387L30.3954 40.9021L30.3351 40.9824L30.1141 41.324L29.6119 42.1275L30.8173 41.786L31.0182 41.7258L31.3597 42.1275L31.9624 42.8508V42.4892L32.0025 42.0271V41.565L32.0226 41.3842L33.3887 40.8418L32.0025 40.3396L31.9021 38.873H31.9222ZM31.7213 41.1833V41.4043L31.7012 41.8664V42.007L31.4199 41.6856L31.1588 41.3641L30.9981 41.4043L30.4757 41.545L30.3552 41.5851L30.4155 41.5048L30.6365 41.1632L30.8173 40.882L30.6967 40.7012L30.3552 40.199L31.1588 40.3998L31.6811 39.7369L31.7414 40.5606L32.5249 40.8418L31.7615 41.1432L31.7213 41.1833Z" fill="white"/>
<path d="M27.6231 38.231V38.1507L27.9245 36.8047L26.9803 37.4676L26.7191 37.6484L26.458 37.4877L25.4535 36.9051V36.9453L25.8955 38.3114L24.7905 39.2958H26.2571L26.8597 40.6619L27.3218 39.2757H27.5629L28.1053 39.1953L28.6477 39.1351H28.7883L28.0249 38.5525L27.6031 38.231H27.6231ZM27.2615 38.9342H27.1008L26.8397 39.7378L26.4981 38.9744H25.6544L26.2771 38.4118L26.0361 37.6083L26.7593 38.0301L26.8798 37.9498L27.2214 37.7087L27.4423 37.548L27.3821 37.8493L27.2816 38.3315L27.3821 38.4319L27.9647 38.8538H27.8441L27.3218 38.9141L27.2615 38.9342Z" fill="white"/>
<path d="M13.9015 29.9948H19.7676L19.0846 28.1868C18.8234 27.5037 18.06 27.0417 17.1962 27.0417C16.8145 27.0417 16.5734 26.8408 16.4931 26.6801C16.4529 26.5796 16.4127 26.439 16.5332 26.2582L17.0556 25.5551C17.598 24.8118 17.819 23.9479 17.6583 23.0841C17.4774 22.1398 16.8948 21.2961 15.9707 20.7336L13.5801 19.1465V17.8407L15.9306 18.5438H15.9506C16.1917 18.6041 16.4328 18.6242 16.6739 18.6242C17.3971 18.6242 18.0801 18.3831 18.6627 17.9211C19.4261 17.3184 19.8681 16.3943 19.8681 15.43V15.1889L15.2274 13.8228C15.6895 13.5616 16.1917 13.3406 16.714 13.1799C18.3413 12.6777 19.4261 11.171 19.4261 9.46337V9.14194H19.1047C16.2922 9.06158 13.7609 10.2469 13.4796 10.3875C13.339 10.4277 13.1984 10.508 13.0778 10.5884C12.8368 10.046 12.5153 9.54373 12.1336 9.10176L12.214 8.82051C12.3948 8.13747 13.0176 7.65532 13.7207 7.65532H14.0622C15.7297 7.65532 17.0757 6.30932 17.0757 4.64189C17.0757 4.07939 16.6337 3.63742 16.0712 3.63742H14.5243L13.5399 2.65303C12.6961 1.80927 11.5912 1.34722 10.426 1.32713L9.60236 0.503457C9.1403 0.00121922 8.47735 -0.119318 7.85458 0.121756C7.25189 0.36283 6.87019 0.925336 6.87019 1.58829V2.45214L5.64473 4.48118C3.89694 7.39416 2.97283 10.7089 2.97283 14.104V17.4389C2.97283 23.2247 2.0688 27.3832 0.0598502 30.919L-0.0205078 31.0797L2.53086 35.7003C3.13354 36.8052 4.31882 37.5083 5.58446 37.5083H9.96397L9.42156 35.7404C9.10012 34.6958 8.15592 33.9927 7.051 33.9927C6.70947 33.9927 6.42822 33.8118 6.2675 33.5105C6.10679 33.2092 6.12688 32.8676 6.32777 32.6065L11.2095 26.3586C11.993 27.0015 12.4551 27.8654 12.4551 28.8096C12.4551 29.4524 13.0778 29.9948 13.8412 29.9948M10.6671 25.9769L5.78536 32.2047C5.44384 32.6868 5.40366 33.2895 5.68491 33.8118C5.94607 34.3342 6.4684 34.6355 7.051 34.6355C7.85458 34.6355 8.55771 35.1578 8.79878 35.9212L8.89923 36.2628C8.61798 36.0619 8.27645 35.8811 7.83449 35.7404C7.73404 35.7003 7.6135 35.7605 7.57332 35.8811C7.53314 36.0016 7.59341 36.102 7.71395 36.1422C8.29654 36.323 8.69833 36.6244 8.97959 36.8655H5.58446C4.5599 36.8655 3.61569 36.3029 3.11345 35.3989L0.742893 31.0797C2.75184 27.4837 3.63578 23.2649 3.63578 17.4389V14.104C3.63578 10.8295 4.51972 7.63523 6.20724 4.8227L7.51305 2.63294V1.58829C7.51305 1.12623 7.8144 0.844978 8.09565 0.724441C8.3769 0.603904 8.79878 0.603904 9.12021 0.925336L10.1448 1.9499H10.3457C11.3702 1.9499 12.3546 2.35169 13.0778 3.07491L14.243 4.2401H16.0712C16.2721 4.2401 16.4127 4.40082 16.4127 4.58163C16.4127 5.88744 15.348 6.9321 14.0622 6.9321H13.7207C12.7162 6.9321 11.8323 7.61514 11.5711 8.57944L11.4104 9.2223L11.531 9.36293C11.9729 9.84507 12.3144 10.4076 12.5555 10.9902C12.5957 11.1107 12.6359 11.2312 12.6761 11.3518C12.7162 11.4924 12.7564 11.633 12.7966 11.7737C12.877 12.1554 12.9372 12.5572 12.9372 12.9589V13.0996L12.3144 12.9188L11.993 12.8183L11.6716 12.7179L11.1693 12.5772C10.1046 12.296 9.36129 11.3317 9.36129 10.2268H8.69833C8.69833 10.5683 8.7586 10.8897 8.85905 11.1911C9.18048 12.1554 9.96397 12.9389 11.0086 13.2L11.5711 13.3607L11.8926 13.4612L12.214 13.5616L12.9372 13.7826L13.2587 13.8831L13.5801 13.9835L13.7207 14.0237L14.1024 14.1442L14.4841 14.2648L19.1851 15.6509C19.165 15.8518 19.1248 16.0728 19.0444 16.2536L17.1962 15.7514C17.0957 15.7313 16.9752 15.7916 16.9551 15.892C16.935 15.9925 16.9953 16.113 17.0957 16.1532L18.8837 16.6353C18.7833 16.796 18.6828 16.9568 18.5422 17.0974L16.7944 16.6152C16.694 16.5951 16.5734 16.6554 16.5332 16.7559C16.4931 16.8563 16.5734 16.9768 16.6739 17.017L18.1806 17.4389C17.5779 17.8809 16.8346 18.0617 16.0913 17.8809L13.5801 17.1376L13.2587 17.0371L12.9372 16.9367L8.11574 15.5103L8.01529 15.8317V15.9322C8.01529 15.9322 7.95502 16.0126 7.95502 16.0728V16.1532H7.97511L8.55771 17.5996C8.55771 17.5996 8.65816 17.7202 8.7586 17.7202C8.77869 17.7202 8.79878 17.7202 8.83896 17.7202C8.93941 17.68 8.99968 17.5594 8.9595 17.459L8.49744 16.3139L9.48182 16.6152L10.0242 17.9411C10.0242 17.9411 10.1448 18.0617 10.2251 18.0617C10.2452 18.0617 10.2854 18.0617 10.3055 18.0617C10.4059 18.0215 10.4662 17.901 10.426 17.8005L10.0042 16.776L12.9573 17.6398V20.0104C12.9573 21.9791 12.3144 23.9077 11.1292 25.4747C11.089 25.5149 11.0689 25.5551 11.0287 25.5952L10.9283 25.7359L10.7274 25.997L10.6671 25.9769ZM13.7207 10.95C13.7207 10.95 16.0913 9.78481 18.7029 9.76472C18.7029 9.84507 18.6828 9.92543 18.6627 10.0058C18.3413 10.0058 17.7386 10.0661 16.9953 10.3875C16.8948 10.4277 16.8547 10.5482 16.8948 10.6687C16.935 10.7491 17.0154 10.7893 17.0757 10.7893C17.0957 10.7893 17.1359 10.7893 17.156 10.7893C17.7587 10.5281 18.2609 10.4478 18.5623 10.4478C18.5221 10.5884 18.4618 10.7491 18.3815 10.8897C18.0399 10.8897 17.4975 10.9701 16.8547 11.2714C16.7542 11.3116 16.714 11.4321 16.7542 11.5326C16.7944 11.613 16.8547 11.6531 16.935 11.6531C16.9551 11.6531 16.9953 11.6531 17.0154 11.6531C17.4574 11.4522 17.8391 11.3719 18.1203 11.3317C17.7185 11.8942 17.1359 12.3362 16.4328 12.5572C15.6493 12.7982 14.9462 13.1398 14.3033 13.5817L13.5198 13.3406V12.9991C13.5198 12.3964 13.4194 11.7938 13.2386 11.2312C13.3591 11.1308 13.4997 11.0504 13.6404 11.0103H13.6805L13.7207 10.95ZM12.5756 24.2091L13.7609 24.9926C13.7609 24.9926 13.8412 25.0327 13.8814 25.0327C13.9417 25.0327 14.0221 24.9926 14.0421 24.9524C14.1024 24.8519 14.0823 24.7314 13.9819 24.6711L12.7363 23.8475C12.7966 23.7068 12.8569 23.5461 12.9171 23.3854L14.1426 24.2091C14.1426 24.2091 14.2229 24.2492 14.2631 24.2492C14.3234 24.2492 14.4038 24.2091 14.4238 24.1689C14.4841 24.0684 14.464 23.9479 14.3636 23.8876L13.0377 23.0037C13.0979 22.8229 13.1381 22.6622 13.1984 22.4814L14.464 23.3251C14.464 23.3251 14.5444 23.3653 14.5846 23.3653C14.6448 23.3653 14.7252 23.3251 14.7453 23.2649C14.8055 23.1644 14.7855 23.0439 14.685 22.9836L13.2988 22.0595C13.339 21.8787 13.3591 21.718 13.3993 21.5372L14.6046 22.3407C14.6046 22.3407 14.685 22.3809 14.7252 22.3809C14.7855 22.3809 14.8658 22.3407 14.906 22.3006C14.9663 22.2001 14.9462 22.0796 14.8457 22.0193L13.4796 21.0952C13.5198 20.7336 13.5399 20.372 13.5399 20.0104V19.93L15.589 21.2961C16.3524 21.7782 16.8547 22.4613 16.9953 23.2247C17.1158 23.9077 16.9551 24.5908 16.5131 25.1935L15.9908 25.8966C15.7497 26.218 15.7096 26.6399 15.8904 27.0015C16.1114 27.4435 16.6136 27.7247 17.1761 27.7247C17.7386 27.7247 18.281 28.0261 18.4417 28.448L18.5824 28.8096C18.0801 28.468 17.377 28.1466 16.5131 28.1466C16.3926 28.1466 16.3123 28.227 16.3123 28.3475C16.3123 28.468 16.4127 28.5484 16.5131 28.5484C17.4373 28.5484 18.1806 28.9904 18.6225 29.352H13.8613C13.4595 29.352 13.118 29.1109 13.118 28.8297C13.118 27.6645 12.5354 26.6198 11.6113 25.8564C11.993 25.3542 12.3144 24.8118 12.5957 24.2492" fill="white"/>
<path d="M11.632 3.93809C11.632 3.93809 11.6521 3.99836 11.6722 4.01845C11.6722 4.03854 11.7124 4.05863 11.7325 4.07872C11.7526 4.07872 11.7727 4.1189 11.7928 4.13899C11.8129 4.13899 11.8329 4.15908 11.8731 4.17917C11.8932 4.17917 11.9334 4.17917 11.9535 4.19926C11.9736 4.19926 12.0137 4.19926 12.0338 4.19926C12.1544 4.19926 12.2749 4.15908 12.3553 4.05863C12.3553 4.03854 12.3954 4.01845 12.4155 3.99836C12.4155 3.97827 12.4557 3.93809 12.4557 3.918C12.4557 3.89792 12.4758 3.85774 12.4758 3.83765C12.4758 3.81756 12.4758 3.77738 12.4758 3.75729C12.4758 3.63675 12.4356 3.51621 12.3352 3.43586C12.2347 3.33541 12.074 3.27514 11.9334 3.31532C11.9133 3.31532 11.8731 3.31532 11.853 3.33541C11.8329 3.33541 11.7928 3.3555 11.7727 3.37559C11.7526 3.37559 11.7325 3.41577 11.7124 3.43586C11.632 3.51621 11.5718 3.63675 11.5718 3.75729C11.5718 3.77738 11.5718 3.81756 11.5718 3.83765C11.5718 3.85774 11.5718 3.89792 11.5919 3.918" fill="white"/>
<path d="M8.25694 3.05248C8.25694 3.05248 8.29712 3.05248 8.31721 3.05248C8.41765 3.0123 8.49801 2.91185 8.45783 2.79131C8.11631 1.64621 8.45783 1.38505 8.45783 1.38505L8.25694 1.02344C8.25694 1.02344 8.05604 1.14397 7.97569 1.44532C7.87524 1.78684 7.91542 2.28908 8.09622 2.89176C8.11631 2.97212 8.19667 3.03239 8.29712 3.03239" fill="white"/>
<path d="M5.36399 9.58389C5.24345 9.5638 5.143 9.62406 5.12291 9.7446C4.78139 11.171 4.60059 12.6375 4.60059 14.104C4.60059 14.2246 4.70103 14.3049 4.80148 14.3049C4.90193 14.3049 5.00238 14.2045 5.00238 14.104C5.00238 12.6777 5.16309 11.2312 5.50461 9.84505C5.5247 9.7446 5.46443 9.62406 5.36399 9.60398" fill="white"/>
<path d="M3.53559 27.6627C3.43515 27.6225 3.31461 27.6627 3.27443 27.7832C2.87264 28.9082 2.39049 29.973 1.82799 30.9573C1.78781 31.0176 1.78781 31.098 1.82799 31.1582L3.05345 33.3882C3.05345 33.3882 3.15389 33.4886 3.23425 33.4886C3.27443 33.4886 3.29452 33.4886 3.3347 33.4685C3.43515 33.4083 3.47532 33.2877 3.41506 33.1873L2.24987 31.0578C2.79228 30.0734 3.27443 29.0087 3.65613 27.9037C3.69631 27.8033 3.65613 27.6828 3.53559 27.6426" fill="white"/>
<path d="M73.1461 30.9185C71.1371 27.3827 70.2331 23.2242 70.2331 17.4384V14.1036C70.2331 10.7085 69.309 7.39369 67.5612 4.48071L66.3357 2.45167V1.58782C66.3357 0.924872 65.954 0.362366 65.3513 0.121292C64.7487 -0.119782 64.0857 0.000754589 63.6236 0.462813L62.8 1.28648C61.6147 1.28648 60.5098 1.76863 59.6861 2.61239L58.7017 3.59677H57.1548C56.6124 3.59677 56.1504 4.03874 56.1504 4.60125C56.1504 6.26868 57.4963 7.61467 59.1638 7.61467H59.5053C60.2084 7.61467 60.8312 8.09682 61.012 8.77987L61.0924 9.06112C60.6906 9.52318 60.3892 10.0254 60.1482 10.5477C60.0075 10.4674 59.887 10.4071 59.7263 10.3468C59.445 10.2062 56.9138 9.02094 54.1213 9.1013H53.7999V9.42273C53.7999 11.1303 54.8847 12.637 56.512 13.1393C57.0343 13.3 57.5365 13.521 57.9986 13.7822L53.3579 15.1482V15.3893C53.3579 16.3737 53.7999 17.2777 54.5633 17.8804C55.1459 18.3425 55.8289 18.5835 56.5521 18.5835C56.7932 18.5835 57.0343 18.5634 57.2754 18.5032L59.6459 17.8V19.1059L57.2553 20.6929C56.3312 21.2755 55.7285 22.1193 55.5678 23.0635C55.407 23.9273 55.628 24.7912 56.1704 25.5345L56.6928 26.2376C56.8133 26.3984 56.7932 26.5591 56.7329 26.6595C56.6526 26.8202 56.4115 27.0211 56.0298 27.0211C55.166 27.0211 54.4026 27.4832 54.1414 28.1662L53.4584 29.9743H59.3446C60.108 29.9743 60.7308 29.452 60.7308 28.789C60.7308 27.8448 61.2129 26.9809 61.9763 26.3381L66.8581 32.5859C67.0589 32.8672 67.079 33.1886 66.9183 33.4899C66.7576 33.7913 66.4763 33.9721 66.1348 33.9721C65.0299 33.9721 64.0857 34.6752 63.7643 35.7199L63.2219 37.4878H67.6014C68.867 37.4878 70.0322 36.8047 70.655 35.6797L73.2063 31.0591L73.1059 30.8984L73.1461 30.9185ZM64.2464 36.8449C64.5076 36.6038 64.9295 36.3025 65.5121 36.1217C65.6125 36.0815 65.6728 35.981 65.6527 35.8605C65.6326 35.74 65.5121 35.6998 65.3915 35.7199C64.9495 35.8605 64.5879 36.0413 64.3268 36.2422L64.4272 35.9208C64.6683 35.1574 65.3513 34.635 66.175 34.635C66.7576 34.635 67.2799 34.3136 67.5411 33.8114C67.8023 33.2891 67.7621 32.6864 67.4406 32.2243L62.5589 25.9966L62.358 25.7354L62.2576 25.5948C62.2576 25.5948 62.1973 25.5144 62.1571 25.4742C60.9718 23.9073 60.329 21.9787 60.329 20.0099V17.6393L63.2821 16.7755L62.8602 17.8C62.8201 17.9005 62.8602 18.021 62.9808 18.0612C63.0009 18.0612 63.021 18.0612 63.0611 18.0612C63.1415 18.0612 63.2219 18.021 63.262 17.9407L63.8045 16.6148L64.7888 16.3134L64.3268 17.4384C64.2866 17.5389 64.3268 17.6594 64.4473 17.6996C64.4674 17.6996 64.5076 17.6996 64.5277 17.6996C64.608 17.6996 64.6884 17.6594 64.7085 17.5791L65.2911 16.1326H65.3513L65.3313 16.0322C65.3313 15.992 65.3313 15.9317 65.2911 15.8915V15.7911L65.1705 15.4697L60.3491 16.896L60.0276 16.9965L59.7062 17.0969L57.195 17.8402C56.4718 18.0009 55.7084 17.8402 55.1057 17.3782L56.6124 16.9563C56.7129 16.9362 56.7932 16.8157 56.753 16.7152C56.7129 16.5947 56.6124 16.5344 56.4919 16.5746L54.7441 17.0567C54.6035 16.9161 54.503 16.7554 54.4026 16.5947L56.1905 16.1125C56.291 16.0924 56.3713 15.9719 56.3312 15.8514C56.3111 15.7509 56.1905 15.6706 56.0901 15.7107L54.2418 16.213C54.1816 16.0121 54.1213 15.8112 54.1012 15.5902L58.7821 14.204L59.1638 14.0835L59.5455 13.983L59.6861 13.9429L60.0075 13.8424L60.329 13.742L61.0522 13.521L61.3736 13.4205L61.6951 13.3201L62.2576 13.1594C63.2821 12.8982 64.0857 12.1147 64.4071 11.1504C64.5076 10.8491 64.5679 10.5277 64.5679 10.1861H63.9049C63.9049 11.2911 63.1616 12.2553 62.0968 12.5366L61.5745 12.6973L61.2531 12.7978L60.9317 12.8982L60.3089 13.079V12.9384C60.3089 12.5366 60.3491 12.1348 60.4495 11.7531C60.4897 11.6125 60.5098 11.4719 60.57 11.3312C60.6102 11.2107 60.6504 11.0902 60.6906 10.9696C60.9317 10.3669 61.2732 9.82452 61.7151 9.34237L61.8357 9.20175L61.675 8.55888C61.4138 7.59459 60.5299 6.91154 59.5254 6.91154H59.1839C57.878 6.91154 56.8334 5.8468 56.8334 4.56107C56.8334 4.38026 56.9941 4.21955 57.1749 4.21955H59.0031L60.1683 3.05436C60.8915 2.33114 61.8558 1.92935 62.9004 1.92935H63.1013L64.1259 0.904782C64.4473 0.58335 64.8692 0.58335 65.1504 0.703887C65.4317 0.824424 65.733 1.10568 65.733 1.56774V2.61239L67.0389 4.80214C68.7264 7.61467 69.6103 10.8089 69.6103 14.0835V17.4184C69.6103 23.2443 70.5143 27.4631 72.5032 31.0591L70.1326 35.3583C69.6304 36.2623 68.6862 36.8248 67.6616 36.8248H64.2665L64.2464 36.8449ZM59.3446 29.3314H54.5834C55.0253 28.9698 55.7686 28.5278 56.6928 28.5278C56.8133 28.5278 56.8937 28.4274 56.8937 28.3269C56.8937 28.2265 56.7932 28.1261 56.6928 28.1261C55.8289 28.1261 55.1258 28.4475 54.6236 28.789L54.7642 28.4274C54.9249 28.0055 55.4472 27.7042 56.0298 27.7042C56.6124 27.7042 57.0946 27.4229 57.3155 26.981C57.4963 26.6193 57.4562 26.2176 57.2151 25.876L56.6928 25.1729C56.2508 24.5702 56.07 23.8872 56.2106 23.2041C56.3512 22.4407 56.8535 21.7577 57.6169 21.2755L59.6459 19.9295V20.0099C59.6459 20.3715 59.666 20.7331 59.7062 21.0947L58.3401 22.0188C58.3401 22.0188 58.2196 22.2197 58.2798 22.3001C58.32 22.3604 58.3803 22.4005 58.4406 22.4005C58.4807 22.4005 58.5209 22.4005 58.5611 22.3604L59.7665 21.5568C59.7866 21.7376 59.8267 21.8983 59.8669 22.0791L58.4807 23.0032C58.4807 23.0032 58.3602 23.184 58.4205 23.2845C58.4606 23.3448 58.5209 23.3849 58.5812 23.3849C58.6214 23.3849 58.6615 23.3849 58.7017 23.3448L59.9674 22.501C60.0075 22.6818 60.0678 22.8626 60.1281 23.0233L58.8022 23.9073C58.8022 23.9073 58.6816 24.1082 58.7419 24.1885C58.7821 24.2488 58.8423 24.2689 58.9227 24.2689C58.9629 24.2689 59.0031 24.2689 59.0432 24.2287L60.2687 23.405C60.329 23.5456 60.3892 23.7064 60.4495 23.847L59.204 24.6707C59.204 24.6707 59.0834 24.8716 59.1437 24.9519C59.1839 25.0122 59.2441 25.0323 59.3044 25.0323C59.3446 25.0323 59.3848 25.0323 59.4249 24.9921L60.6102 24.2086C60.8915 24.7711 61.2129 25.3135 61.5946 25.8158C60.6705 26.5792 60.0879 27.6238 60.0879 28.789C60.0879 29.0703 59.7464 29.3113 59.3446 29.3113M56.3111 11.2107C55.6682 10.9294 55.1258 10.8491 54.7843 10.829C54.724 10.6884 54.6637 10.5477 54.6035 10.387C54.9048 10.387 55.407 10.4674 56.0097 10.7285C56.0298 10.7285 56.07 10.7285 56.0901 10.7285C56.1704 10.7285 56.2508 10.6884 56.2709 10.608C56.3111 10.5076 56.2709 10.387 56.1704 10.3468C55.4271 10.0254 54.8244 9.96515 54.503 9.96515C54.503 9.88479 54.4829 9.80443 54.4628 9.72407C57.0745 9.74416 59.4249 10.9094 59.445 10.9294H59.4852C59.6258 10.9897 59.7665 11.0701 59.887 11.1705C59.7062 11.733 59.6258 12.3357 59.6258 12.9585V13.3L58.8223 13.5411C58.1794 13.0991 57.4763 12.7576 56.6928 12.5165C55.9896 12.2955 55.407 11.8536 55.0052 11.271C55.3066 11.3111 55.6883 11.3915 56.1102 11.5924C56.1303 11.5924 56.1704 11.5924 56.1905 11.5924C56.2709 11.5924 56.3512 11.5522 56.3713 11.4719C56.4115 11.3714 56.3713 11.2509 56.2709 11.1906" fill="white"/>
<path d="M61.4336 3.39518C61.4336 3.39518 61.3733 3.37509 61.3532 3.355C61.3332 3.355 61.293 3.355 61.2729 3.33491C61.1323 3.31482 60.9715 3.33491 60.8711 3.45545C60.7907 3.53581 60.7305 3.65634 60.7305 3.77688C60.7305 3.79697 60.7305 3.83715 60.7305 3.85724C60.7305 3.87733 60.7305 3.91751 60.7506 3.9376C60.7506 3.95769 60.7706 3.99787 60.7907 4.01795C60.7907 4.03804 60.8309 4.05813 60.851 4.07822C60.9314 4.15858 61.0519 4.21885 61.1724 4.21885C61.1925 4.21885 61.2327 4.21885 61.2528 4.21885C61.2729 4.21885 61.3131 4.21885 61.3332 4.19876C61.3532 4.19876 61.3934 4.17867 61.4135 4.15858C61.4336 4.15858 61.4537 4.1184 61.4738 4.09831C61.4738 4.09831 61.514 4.05813 61.534 4.03804C61.534 4.01795 61.5742 3.99787 61.5742 3.95769C61.5742 3.9376 61.5943 3.89742 61.5943 3.87733C61.5943 3.85724 61.5943 3.81706 61.5943 3.79697C61.5943 3.67643 61.5541 3.5559 61.4537 3.47554C61.4336 3.45545 61.4135 3.43536 61.3934 3.41527" fill="white"/>
<path d="M64.9893 1.04492L64.7884 1.40653C64.7884 1.40653 65.1098 1.64761 64.7884 2.8128C64.7482 2.91325 64.8286 3.03378 64.929 3.07396C64.9491 3.07396 64.9692 3.07396 64.9893 3.07396C65.0696 3.07396 65.1701 3.01369 65.1902 2.93334C65.371 2.33065 65.4112 1.82841 65.3107 1.48689C65.2304 1.18555 65.0496 1.0851 65.0295 1.06501" fill="white"/>
<path d="M67.8623 9.58444C67.7417 9.60453 67.6815 9.72507 67.7016 9.82552C68.0431 11.2318 68.2038 12.6581 68.2038 14.0845C68.2038 14.205 68.3042 14.2854 68.4047 14.2854C68.5051 14.2854 68.6056 14.1849 68.6056 14.0845C68.6056 12.618 68.4248 11.1514 68.0833 9.72507C68.0632 9.60453 67.9426 9.54426 67.8422 9.56435" fill="white"/>
<path d="M69.8113 33.2091C69.8113 33.2091 69.8113 33.4301 69.8916 33.4903C69.9318 33.4903 69.9519 33.5104 69.9921 33.5104C70.0724 33.5104 70.1327 33.4702 70.1729 33.41L71.3983 31.18C71.3983 31.18 71.4385 31.0394 71.3983 30.9791C70.8358 29.9948 70.3537 28.93 69.9519 27.805C69.9117 27.7046 69.7912 27.6443 69.6907 27.6845C69.5903 27.7246 69.53 27.8452 69.5702 27.9456C69.9519 29.0505 70.434 30.1153 70.9966 31.0997L69.8314 33.2292L69.8113 33.2091Z" fill="white"/>
</g>
<defs>
<clipPath id="clip0_1_460">
<rect width="211" height="44.8398" fill="white"/>
</clipPath>
</defs>
</svg>
