<svg width="121" height="14" viewBox="0 0 121 14" fill="none" xmlns="http://www.w3.org/2000/svg">
<path d="M55.7358 3.23145L53.1207 10.4267L50.5056 3.23145H47.8032L51.7114 13.9849H54.5301L58.4404 3.23145H55.7358Z" fill="white"/>
<path d="M2.15381 4.76829C1.63064 5.25473 1.21668 5.84817 0.939666 6.50885C0.662655 7.16953 0.528992 7.8822 0.547607 8.59915C0.530503 9.32088 0.664712 10.0381 0.941482 10.7041C1.21825 11.37 1.63136 11.9696 2.15381 12.4638C3.22537 13.4689 4.75327 13.9781 6.69281 13.9781H8.01938V11.4588H6.69281C4.44232 11.4588 3.15377 10.4199 3.15377 8.60817C3.15377 6.7964 4.44232 5.75755 6.69281 5.75755H8.01938V3.23145H6.69281C4.74209 3.23145 3.21418 3.74973 2.15381 4.76829Z" fill="white"/>
<path d="M31.8125 3.22656C30.3968 3.22835 29.0397 3.79564 28.0386 4.804C27.0376 5.81237 26.4744 7.1795 26.4727 8.60554C26.4738 10.032 27.0367 11.3997 28.0378 12.4085C29.0389 13.4174 30.3965 13.985 31.8125 13.9868H37.139V8.30357C37.0624 6.93229 36.4681 5.64245 35.4777 4.69846C34.4873 3.75447 33.176 3.22785 31.8125 3.22656ZM34.7207 8.60554V11.535H31.8125C31.0412 11.535 30.3015 11.2264 29.7561 10.677C29.2107 10.1276 28.9043 9.38249 28.9043 8.60554C28.9043 7.82859 29.2107 7.08347 29.7561 6.53409C30.3015 5.9847 31.0412 5.67606 31.8125 5.67606C32.5838 5.67606 33.3235 5.9847 33.8689 6.53409C34.4143 7.08347 34.7207 7.82859 34.7207 8.60554Z" fill="white"/>
<path d="M119.107 10.165C118.604 10.165 118.122 10.3665 117.766 10.7251C117.41 11.0837 117.21 11.57 117.21 12.0771C117.21 12.5842 117.41 13.0706 117.766 13.4291C118.122 13.7877 118.604 13.9892 119.107 13.9892H121V11.9599C120.971 11.4739 120.759 11.0175 120.407 10.6839C120.055 10.3503 119.59 10.1647 119.107 10.165Z" fill="white"/>
<path d="M12.2656 3.86189L12.1291 4.0399L11.7175 3.21289H9.48047V13.9866H12.0218V6.75982C12.0004 6.48357 12.0862 6.20973 12.2611 5.99589C12.4244 5.82463 12.7085 5.74125 13.1045 5.74125H14.5787V3.21289H13.751C13.0754 3.22641 12.5922 3.43824 12.2656 3.86189Z" fill="white"/>
<path d="M43.1706 5.73052V3.20665H41.1259V0L38.5645 0V10.9427C38.5656 11.748 38.8837 12.52 39.449 13.0894C40.0143 13.6588 40.7806 13.9792 41.58 13.9804H43.1706V11.4272H42.0341C41.793 11.4266 41.562 11.3298 41.3918 11.1578C41.2215 10.9859 41.1259 10.7529 41.1259 10.5101V5.73052H43.1706Z" fill="white"/>
<path d="M47.1079 3.25H44.5815V13.9854H47.1079V3.25Z" fill="white"/>
<path d="M114.434 4.45216C113.594 3.65735 112.482 3.21984 111.329 3.2308C110.173 3.2167 109.056 3.65541 108.215 4.45442L108.175 4.49498L108.132 4.45216C107.293 3.65615 106.18 3.21843 105.027 3.2308C104.383 3.22775 103.745 3.36374 103.157 3.62965V3.24882H100.631V13.9865H103.157V8.04642C103.184 6.51858 103.842 5.67578 105.027 5.67578C106.213 5.67578 106.92 6.5659 106.926 8.11627V13.9865H109.448V8.11176C109.448 6.53435 110.119 5.67353 111.322 5.67353C112.526 5.67353 113.222 6.57492 113.222 8.13205V13.991H115.743V8.13205C115.749 6.4983 115.306 5.2589 114.434 4.45216Z" fill="white"/>
<path d="M76.5448 5.73052V3.20665H74.5001V0L71.9409 0V10.9427C71.9415 11.7478 72.2591 12.5198 72.824 13.0892C73.3889 13.6587 74.155 13.9792 74.9542 13.9804H76.5448V11.4272H75.4106C75.1693 11.4266 74.9381 11.3298 74.7674 11.158C74.5968 10.9861 74.5007 10.7531 74.5001 10.5101V5.73052H76.5448Z" fill="white"/>
<path d="M65.3773 10.9157C64.9313 11.2701 64.3911 11.4833 63.8248 11.5287H63.5854C63.0722 11.5269 62.5684 11.3892 62.1247 11.1293C61.681 10.8694 61.313 10.4966 61.0576 10.0482H68.7262L68.7508 9.95124C68.8564 9.53429 68.912 9.10608 68.9163 8.67579V8.60819V8.04032L68.8984 8.0561C68.8279 7.37442 68.6282 6.7127 68.3101 6.10686L68.2989 6.08433C68.2833 6.05278 68.2654 6.02124 68.2475 5.99194L68.2161 5.93785C68.2 5.90535 68.182 5.87376 68.1625 5.84321L68.1311 5.79138C67.6576 5.00748 66.9911 4.35997 66.1964 3.9115C65.4016 3.46304 64.5054 3.22881 63.5944 3.23147C63.4781 3.23147 63.3572 3.23146 63.2141 3.24723C61.8829 3.35124 60.638 3.95113 59.7222 4.92985C58.8065 5.90856 58.2856 7.19589 58.2612 8.54059V8.60368V9.17605L58.2814 9.16029C58.3508 9.84361 58.5506 10.507 58.8697 11.114V11.1321L58.9234 11.2267L58.9547 11.283C58.9704 11.3146 58.9883 11.3439 59.0062 11.3732L59.0375 11.4273C59.5118 12.211 60.1786 12.8584 60.9737 13.3068C61.7688 13.7552 62.6653 13.9896 63.5765 13.9872C63.6906 13.9872 63.8114 13.9872 63.9568 13.9714C65.1255 13.8807 66.2321 13.4056 67.1066 12.6193L65.3885 10.8887L65.3773 10.9157ZM63.3438 5.68772H63.5854C64.1784 5.68518 64.7578 5.86656 65.2448 6.20723C65.7319 6.5479 66.1031 7.03135 66.3079 7.59189H60.8585C61.0501 7.06928 61.3857 6.61255 61.8259 6.27529C62.2661 5.93802 62.7927 5.7342 63.3438 5.68772Z" fill="white"/>
<path d="M22.0238 10.9157C21.5778 11.2701 21.0376 11.4833 20.4713 11.5287H20.232C19.7187 11.5269 19.215 11.3892 18.7713 11.1293C18.3276 10.8694 17.9595 10.4966 17.7041 10.0482H25.3727L25.3973 9.95124C25.503 9.53429 25.5585 9.10608 25.5629 8.67579V8.60819V8.04032L25.545 8.0561C25.4745 7.37442 25.2747 6.7127 24.9566 6.10686V6.08433C24.941 6.05278 24.9231 6.02124 24.9052 5.99194L24.8761 5.93785C24.8582 5.9063 24.8403 5.87476 24.8202 5.84321L24.7888 5.79138C24.3153 5.00748 23.6489 4.35997 22.8541 3.9115C22.0593 3.46304 21.1631 3.22881 20.2521 3.23147C20.1358 3.23147 20.015 3.23146 19.8718 3.24723C18.5406 3.35124 17.2957 3.95113 16.38 4.92985C15.4642 5.90856 14.9433 7.19589 14.9189 8.54059V8.60368V9.17605L14.9391 9.16029C15.0085 9.84361 15.2083 10.507 15.5274 11.114V11.1321L15.5811 11.2267L15.6124 11.283C15.6281 11.3146 15.646 11.3439 15.6639 11.3732L15.6952 11.4273C16.1695 12.211 16.8363 12.8584 17.6314 13.3068C18.4265 13.7552 19.323 13.9896 20.2342 13.9872C20.3483 13.9872 20.4579 13.9872 20.6145 13.9714C21.7832 13.8807 22.8899 13.4056 23.7643 12.6193L22.0462 10.8887L22.0238 10.9157ZM19.9904 5.68772H20.232C20.8249 5.68518 21.4043 5.86656 21.8914 6.20723C22.3784 6.5479 22.7496 7.03135 22.9545 7.59189H17.505C17.698 7.07018 18.034 6.61434 18.4739 6.27728C18.9139 5.94023 19.4397 5.73579 19.9904 5.68772Z" fill="white"/>
<path d="M93.862 3.22656C92.4475 3.23014 91.092 3.79821 90.0924 4.80638C89.0928 5.81456 88.5306 7.18066 88.5288 8.60554C88.53 10.032 89.0929 11.3997 90.094 12.4085C91.0951 13.4174 92.4526 13.985 93.8687 13.9868H99.1951V8.30357C99.1185 6.93112 98.5232 5.6403 97.5314 4.69613C96.5396 3.75197 95.2266 3.22612 93.862 3.22656ZM96.7701 8.60554V11.535H93.862C93.0907 11.535 92.351 11.2264 91.8056 10.677C91.2602 10.1276 90.9538 9.38249 90.9538 8.60554C90.9538 7.82859 91.2602 7.08347 91.8056 6.53409C92.351 5.9847 93.0907 5.67606 93.862 5.67606C94.2441 5.67576 94.6225 5.75132 94.9756 5.89841C95.3287 6.04549 95.6495 6.26123 95.9198 6.53329C96.1901 6.80534 96.4045 7.12839 96.5508 7.48396C96.6971 7.83953 96.7724 8.22065 96.7724 8.60554H96.7701Z" fill="white"/>
<path d="M84.0727 10.9157C83.6275 11.27 83.088 11.4833 82.5224 11.5286H82.2808C81.7678 11.5272 81.2642 11.3895 80.8208 11.1296C80.3775 10.8697 80.0099 10.4967 79.7551 10.0481H87.4215L87.4462 9.95123C87.5518 9.53428 87.6074 9.10608 87.6117 8.67579V8.60819V8.04031L87.5916 8.05609C87.5221 7.3742 87.3223 6.71229 87.0032 6.10685V6.08432C86.9876 6.05277 86.9697 6.02123 86.9518 5.99194L86.9227 5.93784L86.869 5.8432L86.8377 5.79138C86.3634 5.0076 85.6965 4.36023 84.9014 3.91182C84.1064 3.4634 83.2099 3.22908 82.2987 3.23146C82.1846 3.23146 82.0638 3.23145 81.9184 3.24723C80.5865 3.34878 79.3404 3.948 78.4245 4.9273C77.5086 5.9066 76.9891 7.19531 76.9678 8.54059V8.60367V9.17604L76.9879 9.16028C77.0574 9.8436 77.2571 10.507 77.5763 11.114L77.5874 11.132C77.6028 11.1646 77.62 11.1962 77.6389 11.2267L77.6702 11.283L77.7217 11.3732L77.7552 11.4273C78.2288 12.2112 78.8952 12.8587 79.69 13.3071C80.4848 13.7556 81.381 13.9898 82.292 13.9872C82.4083 13.9872 82.5291 13.9872 82.6723 13.9714C83.8411 13.8812 84.9479 13.406 85.8221 12.6193L84.104 10.8887L84.0727 10.9157ZM82.0392 5.68771H82.2808C82.8738 5.68485 83.4533 5.86612 83.9405 6.20683C84.4276 6.54754 84.7987 7.03115 85.0033 7.59188H79.5538C79.747 7.06985 80.0833 6.61378 80.5237 6.2767C80.9641 5.93962 81.4904 5.73537 82.0414 5.68771H82.0392Z" fill="white"/>
</svg>
