<svg width="101" height="100" viewBox="0 0 101 100" fill="none" xmlns="http://www.w3.org/2000/svg">
<path d="M92.8762 75.7627C87.2441 84.9596 78.7688 92.0941 68.7194 96.0978C58.67 100.102 47.5873 100.759 37.1307 97.9723C26.6742 95.1853 17.4065 89.1036 10.7153 80.638C4.02419 72.1724 0.269675 61.7783 0.0139765 51.0121C-0.241722 40.246 3.01516 29.6871 9.29693 20.9165C15.5787 12.146 24.5474 5.63571 34.8599 2.36055C45.1725 -0.914599 56.2741 -0.7784 66.5023 2.74876C76.7306 6.27592 85.5351 13.0042 91.5975 21.9262L78.2721 30.8871C74.1561 24.8297 68.1785 20.2617 61.2343 17.867C54.2901 15.4723 46.753 15.3799 39.7515 17.6034C32.7501 19.827 26.6611 24.247 22.3962 30.2015C18.1314 36.1561 15.9202 43.3248 16.0938 50.6342C16.2674 57.9436 18.8164 65.0004 23.3592 70.7479C27.902 76.4954 34.194 80.6244 41.2932 82.5165C48.3924 84.4087 55.9168 83.9622 62.7395 81.244C69.5623 78.5257 75.3164 73.6819 79.1402 67.438L92.8762 75.7627Z" fill="#FF0000" fill-opacity="0.79"/>
<g filter="url(#filter0_d_112_51)">
<rect x="66.274" y="25.0161" width="10.5148" height="59.3738" transform="rotate(42.712 66.274 25.0161)" fill="#E20202"/>
</g>
<g filter="url(#filter1_d_112_51)">
<rect x="26.0181" y="32.1248" width="10.5148" height="59.3738" transform="rotate(-42.6558 26.0181 32.1248)" fill="#E20202"/>
</g>
<defs>
<filter id="filter0_d_112_51" x="22" y="25.0161" width="56" height="58.7585" filterUnits="userSpaceOnUse" color-interpolation-filters="sRGB">
<feFlood flood-opacity="0" result="BackgroundImageFix"/>
<feColorMatrix in="SourceAlpha" type="matrix" values="0 0 0 0 0 0 0 0 0 0 0 0 0 0 0 0 0 0 127 0" result="hardAlpha"/>
<feOffset dy="4"/>
<feGaussianBlur stdDeviation="2"/>
<feComposite in2="hardAlpha" operator="out"/>
<feColorMatrix type="matrix" values="0 0 0 0 0 0 0 0 0 0 0 0 0 0 0 0 0 0 0.54 0"/>
<feBlend mode="normal" in2="BackgroundImageFix" result="effect1_dropShadow_112_51"/>
<feBlend mode="normal" in="SourceGraphic" in2="effect1_dropShadow_112_51" result="shape"/>
</filter>
<filter id="filter1_d_112_51" x="22.0181" y="25" width="55.9642" height="58.7904" filterUnits="userSpaceOnUse" color-interpolation-filters="sRGB">
<feFlood flood-opacity="0" result="BackgroundImageFix"/>
<feColorMatrix in="SourceAlpha" type="matrix" values="0 0 0 0 0 0 0 0 0 0 0 0 0 0 0 0 0 0 127 0" result="hardAlpha"/>
<feOffset dy="4"/>
<feGaussianBlur stdDeviation="2"/>
<feComposite in2="hardAlpha" operator="out"/>
<feColorMatrix type="matrix" values="0 0 0 0 0 0 0 0 0 0 0 0 0 0 0 0 0 0 0.54 0"/>
<feBlend mode="normal" in2="BackgroundImageFix" result="effect1_dropShadow_112_51"/>
<feBlend mode="normal" in="SourceGraphic" in2="effect1_dropShadow_112_51" result="shape"/>
</filter>
</defs>
</svg>
