<svg width="40" height="40" viewBox="0 0 40 40" fill="none" xmlns="http://www.w3.org/2000/svg">
<path d="M21.425 18.8875C21.425 19.625 20.2 20.75 17.4875 21.45C16 21.8625 14.25 22.075 12.425 22.075C10.6125 22.075 8.8625 21.8625 7.3875 21.4625C4.65 20.75 3.4375 19.65 3.4375 18.8875C3.4375 17.5875 6.9375 15.7 12.425 15.7C17.925 15.7 21.425 17.5875 21.425 18.8875ZM36.5625 7.1875C36.5625 7.9375 35.325 9.0625 32.6 9.75C31.1 10.15 29.35 10.35 27.5625 10.35C25.775 10.35 24.0375 10.15 22.5375 9.75C19.8125 9.0625 18.575 7.9375 18.575 7.1875C18.575 5.8875 22.075 4 27.5625 4C33.1375 4 36.5625 5.85 36.5625 7.1875ZM18.205 31.1537C16.4738 31.6087 14.4762 31.85 12.4263 31.85C10.385 31.85 8.3925 31.61 6.6625 31.155C4.90875 30.6912 3.51625 30.0287 2.5 29.2287V32.8187C2.5 35.0937 6.94625 36.9425 12.4275 36.9425C17.9213 36.9425 22.3675 35.0937 22.3675 32.8187V29.2287C21.3512 30.0287 19.9587 30.6912 18.205 31.1537Z" fill="white"/>
<path d="M17.9562 23.2663C16.3525 23.71 14.4287 23.95 12.425 23.95C10.4425 23.95 8.53125 23.715 6.89625 23.2725C4.88125 22.7475 3.38875 21.9638 2.5 21.0175V25.8513C2.5 27.325 4.34875 28.605 7.14 29.3413C8.665 29.7425 10.4875 29.975 12.4263 29.975C14.3775 29.975 16.2 29.7425 17.7262 29.3413C20.5187 28.605 22.3662 27.3113 22.3662 25.8513V20.99C21.47 21.9488 19.9625 22.7488 17.9562 23.2663ZM33.0588 11.5675C31.4563 11.995 29.5462 12.225 27.5625 12.225C25.5862 12.225 23.6812 11.995 22.055 11.5613C20.0475 11.055 18.5338 10.2588 17.6338 9.29626V14.1488C17.6338 14.2388 17.6613 14.325 17.675 14.4125C20.4438 15.0913 22.4263 16.3088 23.0713 17.8088C24.4213 18.1025 25.945 18.2713 27.56 18.2713C29.5112 18.2713 31.3213 18.0388 32.86 17.625C35.6512 16.9025 37.5 15.6225 37.5 14.1488V9.30001C36.5975 10.2613 35.0788 11.0588 33.0588 11.5675ZM33.33 19.4413C31.615 19.9013 29.615 20.1475 27.56 20.1475C26.4163 20.1475 25.3112 20.0475 24.2425 19.9V24.9938C25.2837 25.1475 26.395 25.24 27.56 25.24C29.5112 25.24 31.3213 25.0075 32.86 24.6063C35.6512 23.87 37.5 22.59 37.5 21.1163V17.5288C36.4825 18.3275 35.0875 18.9863 33.33 19.4413ZM33.3375 26.4188C31.59 26.875 29.5938 27.115 27.5588 27.115C26.4225 27.115 25.31 27.0275 24.2412 26.8825V31.97C25.2787 32.1225 26.3938 32.2075 27.5588 32.2075C33.0525 32.2075 37.4987 30.3725 37.4987 28.0838V24.4938C36.4837 25.2938 35.0925 25.9563 33.3375 26.4188Z" fill="white"/>
</svg>
