<svg width="40" height="40" viewBox="0 0 40 40" fill="none" xmlns="http://www.w3.org/2000/svg">
<path d="M31.25 4.27747H8.75C7.0924 4.27747 5.50269 4.93595 4.33058 6.10805C3.15848 7.28015 2.5 8.86986 2.5 10.5275V23.6262C2.5 25.2838 3.15848 26.8735 4.33058 28.0456C5.50269 29.2177 7.0924 29.8762 8.75 29.8762H14.9525L18.5613 34.9775C18.7241 35.2076 18.9397 35.3953 19.19 35.5248C19.4404 35.6543 19.7181 35.7219 20 35.7219C20.2819 35.7219 20.5596 35.6543 20.81 35.5248C21.0603 35.3953 21.2759 35.2076 21.4387 34.9775L25.0475 29.8762H31.25C32.9076 29.8762 34.4973 29.2177 35.6694 28.0456C36.8415 26.8735 37.5 25.2838 37.5 23.6262V10.5275C37.5 8.86986 36.8415 7.28015 35.6694 6.10805C34.4973 4.93595 32.9076 4.27747 31.25 4.27747ZM11.78 19.2125C11.2136 19.2125 10.6704 18.9875 10.2699 18.587C9.86938 18.1864 9.64437 17.6432 9.64437 17.0768C9.64437 16.5104 9.86938 15.9672 10.2699 15.5667C10.6704 15.1662 11.2136 14.9412 11.78 14.9412C12.3464 14.9412 12.8896 15.1662 13.2901 15.5667C13.6906 15.9672 13.9156 16.5104 13.9156 17.0768C13.9156 17.6432 13.6906 18.1864 13.2901 18.587C12.8896 18.9875 12.3464 19.2125 11.78 19.2125ZM20 19.2125C19.4336 19.2125 18.8904 18.9875 18.4899 18.587C18.0894 18.1864 17.8644 17.6432 17.8644 17.0768C17.8644 16.5104 18.0894 15.9672 18.4899 15.5667C18.8904 15.1662 19.4336 14.9412 20 14.9412C20.5664 14.9412 21.1096 15.1662 21.5101 15.5667C21.9106 15.9672 22.1356 16.5104 22.1356 17.0768C22.1356 17.6432 21.9106 18.1864 21.5101 18.587C21.1096 18.9875 20.5664 19.2125 20 19.2125ZM28.22 19.2125C27.6536 19.2125 27.1104 18.9875 26.7099 18.587C26.3094 18.1864 26.0844 17.6432 26.0844 17.0768C26.0844 16.5104 26.3094 15.9672 26.7099 15.5667C27.1104 15.1662 27.6536 14.9412 28.22 14.9412C28.7864 14.9412 29.3296 15.1662 29.7301 15.5667C30.1306 15.9672 30.3556 16.5104 30.3556 17.0768C30.3556 17.6432 30.1306 18.1864 29.7301 18.587C29.3296 18.9875 28.7864 19.2125 28.22 19.2125Z" fill="white"/>
</svg>
