<svg width="40" height="40" viewBox="0 0 40 40" fill="none" xmlns="http://www.w3.org/2000/svg">
<path d="M27.5625 2.50003H12.5C11.5054 2.50003 10.5516 2.89512 9.84835 3.59838C9.14509 4.30164 8.75 5.25547 8.75 6.25003V33.75C8.75 34.7446 9.14509 35.6984 9.84835 36.4017C10.5516 37.1049 11.5054 37.5 12.5 37.5H27.625C28.6196 37.5 29.5734 37.1049 30.2767 36.4017C30.9799 35.6984 31.375 34.7446 31.375 33.75V6.25003C31.3751 5.75227 31.276 5.25948 31.0837 4.80039C30.8913 4.34129 30.6095 3.92509 30.2546 3.57604C29.8998 3.22699 29.479 2.95208 29.0168 2.76734C28.5546 2.58261 28.0602 2.49174 27.5625 2.50003ZM20 34.625C19.6564 34.625 19.3204 34.5231 19.0347 34.3322C18.749 34.1413 18.5263 33.8699 18.3948 33.5524C18.2633 33.235 18.2288 32.8856 18.2959 32.5486C18.3629 32.2115 18.5284 31.9019 18.7714 31.6589C19.0144 31.4159 19.324 31.2505 19.661 31.1834C19.9981 31.1164 20.3474 31.1508 20.6649 31.2823C20.9824 31.4138 21.2538 31.6365 21.4447 31.9222C21.6356 32.208 21.7375 32.5439 21.7375 32.8875C21.7375 33.3483 21.5544 33.7903 21.2286 34.1161C20.9028 34.442 20.4608 34.625 20 34.625ZM22.7625 6.56253H17.2375C16.9889 6.56253 16.7504 6.46376 16.5746 6.28795C16.3988 6.11213 16.3 5.87367 16.3 5.62503C16.3 5.37639 16.3988 5.13794 16.5746 4.96212C16.7504 4.7863 16.9889 4.68753 17.2375 4.68753H22.7625C23.0111 4.68753 23.2496 4.7863 23.4254 4.96212C23.6012 5.13794 23.7 5.37639 23.7 5.62503C23.7 5.87367 23.6012 6.11213 23.4254 6.28795C23.2496 6.46376 23.0111 6.56253 22.7625 6.56253Z" fill="white"/>
</svg>
