<svg width="40" height="40" viewBox="0 0 40 40" fill="none" xmlns="http://www.w3.org/2000/svg">
<path d="M27.5 32.5H12.5L10.25 35.5C10.1107 35.6857 10.0259 35.9066 10.0051 36.1378C9.98421 36.369 10.0282 36.6014 10.132 36.809C10.2358 37.0167 10.3954 37.1913 10.5928 37.3133C10.7903 37.4354 11.0179 37.5 11.25 37.5H28.75C28.9821 37.5 29.2097 37.4354 29.4072 37.3133C29.6046 37.1913 29.7642 37.0167 29.868 36.809C29.9719 36.6014 30.0158 36.369 29.995 36.1378C29.9741 35.9066 29.8893 35.6857 29.75 35.5L27.5 32.5ZM32.1338 14.1163L24.6338 6.61627C24.3994 6.38183 24.0815 6.25009 23.75 6.25002H20.4838L21.1863 4.14502C21.2637 3.91229 21.271 3.66193 21.2071 3.42512C21.1433 3.1883 21.0112 2.97549 20.8274 2.81319C20.6435 2.65089 20.4159 2.54627 20.173 2.51237C19.9301 2.47846 19.6826 2.51677 19.4613 2.62252L15.0563 4.72502C15.0026 4.75046 14.9508 4.7797 14.9013 4.81252C13.3918 5.81654 12.1543 7.17854 11.2991 8.77705C10.4439 10.3756 9.99757 12.1609 10 13.9738V27.5C10.0001 27.8315 10.1318 28.1494 10.3663 28.3838L11.9825 30H15V17.5C15 17.1685 15.1317 16.8506 15.3661 16.6161C15.6005 16.3817 15.9185 16.25 16.25 16.25C16.5815 16.25 16.8995 16.3817 17.1339 16.6161C17.3683 16.8506 17.5 17.1685 17.5 17.5V30H28.0175L29.6338 28.3838C29.8193 28.1984 29.9419 27.9593 29.984 27.7004C30.0262 27.4416 29.9859 27.176 29.8688 26.9413L25.6138 18.4338C26.82 18.6213 27.855 19.6225 27.8663 19.6338C27.996 19.7661 28.1541 19.8672 28.3286 19.9296C28.5031 19.9919 28.6895 20.0139 28.8738 19.9938C29.0577 19.9756 29.2352 19.9168 29.3937 19.8217C29.5521 19.7266 29.6875 19.5975 29.79 19.4438L32.29 15.6938C32.4504 15.4533 32.5224 15.1647 32.4939 14.8771C32.4654 14.5895 32.3382 14.3206 32.1338 14.1163Z" fill="white"/>
</svg>
