<svg width="40" height="40" viewBox="0 0 40 40" fill="none" xmlns="http://www.w3.org/2000/svg">
<path d="M19.7001 27.9375L12.2001 19.1875C11.7251 18.6325 10.7751 18.6325 10.3001 19.1875L2.80008 27.9375C2.64476 28.1191 2.54474 28.3414 2.51188 28.5781C2.47901 28.8148 2.51468 29.0559 2.61465 29.2729C2.71462 29.49 2.8747 29.6738 3.07594 29.8027C3.27717 29.9315 3.51113 30 3.75008 30H6.25008V36.25C6.25008 36.5815 6.38178 36.8995 6.6162 37.1339C6.85062 37.3683 7.16856 37.5 7.50008 37.5H15.0001C15.3316 37.5 15.6495 37.3683 15.884 37.1339C16.1184 36.8995 16.2501 36.5815 16.2501 36.25V30H18.7501C18.9888 29.9995 19.2224 29.9307 19.4233 29.8017C19.6242 29.6728 19.7841 29.4891 19.8839 29.2722C19.9838 29.0554 20.0196 28.8145 19.987 28.578C19.9544 28.3415 19.8549 28.1192 19.7001 27.9375Z" fill="white"/>
<path d="M37.2263 15.4688L27.2263 2.96875C26.7513 2.375 25.7501 2.375 25.2738 2.96875L15.2738 15.4688C15.1271 15.6528 15.0353 15.8744 15.0089 16.1083C14.9825 16.3421 15.0225 16.5787 15.1245 16.7908C15.2264 17.0029 15.3861 17.1819 15.5852 17.3074C15.7843 17.4328 16.0148 17.4996 16.2501 17.5H18.7501V22.9875L21.5963 26.31C22.5476 27.4175 22.7676 28.99 22.1576 30.3175C21.8566 30.9681 21.3759 31.5192 20.7722 31.9058C20.1686 32.2925 19.467 32.4986 18.7501 32.5V36.25C18.7501 36.5815 18.8818 36.8995 19.1162 37.1339C19.3506 37.3683 19.6686 37.5 20.0001 37.5H32.5001C32.8316 37.5 33.1496 37.3683 33.384 37.1339C33.6184 36.8995 33.7501 36.5815 33.7501 36.25V17.5H36.2501C36.4854 17.4996 36.7159 17.4328 36.915 17.3074C37.1141 17.1819 37.2738 17.0029 37.3757 16.7908C37.4777 16.5787 37.5177 16.3421 37.4913 16.1083C37.4649 15.8744 37.3731 15.6528 37.2263 15.4688ZM27.5001 27.34V27.5C27.5001 27.8315 27.3684 28.1495 27.134 28.3839C26.8996 28.6183 26.5816 28.75 26.2501 28.75C25.9186 28.75 25.6006 28.6183 25.3662 28.3839C25.1318 28.1495 25.0001 27.8315 25.0001 27.5H24.6876C24.3561 27.5 24.0381 27.3683 23.8037 27.1339C23.5693 26.8995 23.4376 26.5815 23.4376 26.25C23.4376 25.9185 23.5693 25.6005 23.8037 25.3661C24.0381 25.1317 24.3561 25 24.6876 25H26.5626C26.7215 24.9899 26.8707 24.9197 26.9796 24.8036C27.0886 24.6875 27.1493 24.5342 27.1493 24.375C27.1493 24.2158 27.0886 24.0625 26.9796 23.9464C26.8707 23.8303 26.7215 23.7601 26.5626 23.75H25.9376C25.109 23.7493 24.3145 23.4199 23.7286 22.834C23.1427 22.2481 22.8133 21.4536 22.8126 20.625C22.8126 19.23 23.7376 18.06 25.0001 17.66V17.5C25.0001 17.1685 25.1318 16.8505 25.3662 16.6161C25.6006 16.3817 25.9186 16.25 26.2501 16.25C26.5816 16.25 26.8996 16.3817 27.134 16.6161C27.3684 16.8505 27.5001 17.1685 27.5001 17.5C27.8316 17.5 28.1496 17.6317 28.384 17.8661C28.6184 18.1005 28.7501 18.4185 28.7501 18.75C28.7501 19.0815 28.6184 19.3995 28.384 19.6339C28.1496 19.8683 27.8316 20 27.5001 20H25.9376C25.7787 20.0101 25.6295 20.0803 25.5206 20.1964C25.4116 20.3125 25.3509 20.4658 25.3509 20.625C25.3509 20.7842 25.4116 20.9375 25.5206 21.0536C25.6295 21.1697 25.7787 21.2399 25.9376 21.25H26.5626C28.2863 21.25 29.6876 22.6513 29.6876 24.375C29.6876 25.77 28.7626 26.94 27.5001 27.34Z" fill="white"/>
</svg>
