<svg width="40" height="40" viewBox="0 0 40 40" fill="none" xmlns="http://www.w3.org/2000/svg">
<path d="M36.2498 2.5H31.5373C27.7998 2.5 24.2998 4.15 21.9248 7.0375L7.78731 24.2C7.37481 24.7 7.41231 25.425 7.86231 25.8875L10.0998 28.125L13.4873 24.7375C13.9748 24.25 14.7748 24.25 15.2623 24.7375C15.7498 25.225 15.7498 26.025 15.2623 26.5125L11.8748 29.9L14.1123 32.1375C14.3623 32.375 14.6748 32.5 14.9998 32.5C15.2873 32.5 15.5623 32.4 15.7998 32.2125L32.9623 18.075C35.8498 15.7 37.4998 12.2 37.4998 8.4625V3.75C37.4998 3.0625 36.9373 2.5 36.2498 2.5ZM22.4998 20C21.1248 20 19.9998 18.875 19.9998 17.5C19.9998 16.125 21.1248 15 22.4998 15C23.8748 15 24.9998 16.125 24.9998 17.5C24.9998 18.875 23.8748 20 22.4998 20ZM28.7498 15C26.6873 15 24.9998 13.3125 24.9998 11.25C24.9998 9.1875 26.6873 7.5 28.7498 7.5C30.8123 7.5 32.4998 9.1875 32.4998 11.25C32.4998 13.3125 30.8123 15 28.7498 15Z" fill="white"/>
<path d="M28.75 12.5C29.4404 12.5 30 11.9404 30 11.25C30 10.5596 29.4404 10 28.75 10C28.0596 10 27.5 10.5596 27.5 11.25C27.5 11.9404 28.0596 12.5 28.75 12.5Z" fill="white"/>
<path d="M9.99981 31.775L7.76231 34.0125C7.51231 34.25 7.19981 34.375 6.87481 34.375C6.54981 34.375 6.23731 34.25 5.98731 34.0125C5.49981 33.525 5.49981 32.725 5.98731 32.2375L8.22481 30L9.99981 31.775ZM5.85481 22.6163L11.0973 16.25H7.49981C7.26752 16.2499 7.0398 16.3145 6.84219 16.4366C6.64458 16.5587 6.4849 16.7335 6.38106 16.9413L2.63106 24.4412C2.53618 24.6319 2.49152 24.8436 2.50133 25.0564C2.51113 25.2691 2.57508 25.4758 2.68711 25.6569C2.79913 25.8381 2.95553 25.9876 3.1415 26.0914C3.32747 26.1952 3.53685 26.2498 3.74981 26.25H5.22606C5.00623 25.6419 4.94859 24.987 5.05884 24.3498C5.1691 23.7126 5.44343 23.1152 5.85481 22.6163ZM17.3836 34.145C16.7117 34.6971 15.8694 34.9992 14.9998 35C14.5732 34.9961 14.1504 34.9191 13.7498 34.7725V36.25C13.7497 36.4631 13.8041 36.6727 13.9078 36.8588C14.0115 37.045 14.161 37.2016 14.3423 37.3137C14.5235 37.4258 14.7304 37.4897 14.9433 37.4993C15.1561 37.5089 15.3679 37.464 15.5586 37.3688L23.0586 33.6188C23.2664 33.5149 23.4411 33.3552 23.5632 33.1576C23.6853 32.96 23.7499 32.7323 23.7498 32.5V28.9025L17.3836 34.145Z" fill="white"/>
</svg>
