<svg width="40" height="40" viewBox="0 0 40 40" fill="none" xmlns="http://www.w3.org/2000/svg">
<path d="M28.5051 16.1925V9.88128C28.508 8.76359 28.2894 7.6564 27.8618 6.62374C27.4342 5.59108 26.8061 4.65344 26.0138 3.86503C25.2251 3.07329 24.2874 2.44562 23.2548 2.01825C22.2222 1.59087 21.1151 1.37226 19.9976 1.37503C17.7424 1.37767 15.5803 2.27471 13.9857 3.86937C12.391 5.46403 11.494 7.62609 11.4913 9.88128V16.1963C10.2751 17.3473 9.30648 18.7344 8.64472 20.2726C7.98295 21.8109 7.64195 23.468 7.64258 25.1425C7.64258 31.9675 13.1751 37.5 20.0001 37.5C26.8251 37.5 32.3576 31.9675 32.3576 25.1425C32.358 23.4671 32.0166 21.8092 31.3542 20.2703C30.6917 18.7314 29.7223 17.3438 28.5051 16.1925ZM21.1251 26.2475V28.5838C21.1251 28.8821 21.0066 29.1683 20.7956 29.3793C20.5846 29.5903 20.2984 29.7088 20.0001 29.7088C19.7017 29.7088 19.4156 29.5903 19.2046 29.3793C18.9936 29.1683 18.8751 28.8821 18.8751 28.5838V26.2475C18.396 25.9979 18.0146 25.5945 17.7924 25.1021C17.5702 24.6097 17.5199 24.0569 17.6497 23.5325C17.7795 23.0081 18.0818 22.5425 18.5081 22.2106C18.9344 21.8787 19.4599 21.6998 20.0001 21.7025C20.5403 21.6998 21.0658 21.8787 21.492 22.2106C21.9183 22.5425 22.2206 23.0081 22.3504 23.5325C22.4802 24.0569 22.43 24.6097 22.2078 25.1021C21.9855 25.5945 21.6042 25.9979 21.1251 26.2475ZM26.2538 14.4975C24.3594 13.3766 22.1985 12.7854 19.9972 12.7858C17.796 12.7862 15.6353 13.3783 13.7413 14.5V9.88128C13.7433 8.22262 14.4031 6.63248 15.5759 5.45963C16.7488 4.28679 18.3389 3.62701 19.9976 3.62503C21.6688 3.62503 23.2413 4.27628 24.4226 5.45628C25.0052 6.03618 25.467 6.72585 25.7813 7.48539C26.0957 8.24493 26.2563 9.05927 26.2538 9.88128V14.4975Z" fill="white"/>
</svg>
