<svg width="40" height="40" viewBox="0 0 40 40" fill="none" xmlns="http://www.w3.org/2000/svg">
<path d="M34.4487 9.36004L21.5074 2.85754C21.0394 2.62267 20.523 2.50037 19.9993 2.50037C19.4757 2.50037 18.9592 2.62267 18.4912 2.85754L5.55119 9.36004C4.98234 9.64597 4.50644 10.0876 4.17892 10.6336C3.85139 11.1795 3.68571 11.8073 3.70119 12.4438C3.81869 17.8113 5.35494 31.6638 17.6912 37.0213C18.4203 37.3373 19.2065 37.5004 20.0012 37.5004C20.7959 37.5004 21.5821 37.3373 22.3112 37.0213C34.6462 31.6638 36.1824 17.8113 36.3012 12.4438C36.3287 11.1425 35.6112 9.94379 34.4487 9.36004ZM21.1199 25.52V26.25C21.1199 26.5484 21.0014 26.8346 20.7904 27.0455C20.5795 27.2565 20.2933 27.375 19.9949 27.375C19.6966 27.375 19.4104 27.2565 19.1994 27.0455C18.9885 26.8346 18.8699 26.5484 18.8699 26.25V25.8325L18.7862 25.8338C18.1587 25.8338 17.5462 25.5888 17.0949 25.1525C16.8605 24.9281 16.6741 24.6583 16.5471 24.3597C16.4201 24.061 16.3552 23.7396 16.3562 23.415C16.356 23.1167 16.4744 22.8305 16.6853 22.6194C16.8961 22.4083 17.1822 22.2896 17.4806 22.2894C17.7789 22.2893 18.0651 22.4076 18.2762 22.6185C18.4873 22.8293 18.606 23.1154 18.6062 23.4138C18.6062 23.46 18.6237 23.5 18.6562 23.5338C18.6824 23.5588 18.7312 23.5875 18.7887 23.5838C19.5012 23.5575 21.8337 23.3888 21.8637 22.2538C21.8749 21.8338 21.0812 21.4025 19.7412 21.0988C17.0687 20.49 15.7737 19.3063 15.8912 17.5825C15.9562 16.6225 16.4749 15.1338 18.8687 14.4838V13.75C18.8687 13.4517 18.9872 13.1655 19.1982 12.9545C19.4092 12.7436 19.6953 12.625 19.9937 12.625C20.2921 12.625 20.5782 12.7436 20.7892 12.9545C21.0002 13.1655 21.1187 13.4517 21.1187 13.75V14.17H21.1287C21.8049 14.1275 22.4087 14.3875 22.8837 14.8438C23.3537 15.2975 23.6237 15.9338 23.6237 16.5875C23.6237 16.8859 23.5052 17.1721 23.2942 17.383C23.0832 17.594 22.7971 17.7125 22.4987 17.7125C22.2003 17.7125 21.9142 17.594 21.7032 17.383C21.4922 17.1721 21.3737 16.8859 21.3737 16.5875C21.3741 16.5642 21.3697 16.541 21.3606 16.5195C21.3516 16.498 21.3382 16.4786 21.3212 16.4625H21.2749C20.0449 16.4625 18.2062 16.6938 18.1349 17.735C18.1062 18.1788 18.8337 18.585 20.2412 18.905C22.8537 19.4988 24.1574 20.645 24.1137 22.3138C24.0924 23.1238 23.7187 24.8138 21.1199 25.52Z" fill="white"/>
</svg>
