<svg width="20" height="20" viewBox="0 0 20 20" fill="none" xmlns="http://www.w3.org/2000/svg">
<path fill-rule="evenodd" clip-rule="evenodd" d="M9.99996 16.6675C13.6819 16.6675 16.6666 13.6827 16.6666 10.0008C16.6666 6.31891 13.6819 3.33415 9.99996 3.33415C6.31806 3.33415 3.33329 6.31891 3.33329 10.0008C3.33329 13.6827 6.31806 16.6675 9.99996 16.6675ZM9.99996 18.3341C14.6023 18.3341 18.3333 14.6031 18.3333 10.0008C18.3333 5.39844 14.6023 1.66748 9.99996 1.66748C5.39758 1.66748 1.66663 5.39844 1.66663 10.0008C1.66663 14.6031 5.39758 18.3341 9.99996 18.3341Z" fill="#777E91"/>
<path d="M9.99996 8.33447C9.99996 7.87424 10.373 7.50114 10.8333 7.50114H11.6666C12.1269 7.50114 12.5 7.12805 12.5 6.66781C12.5 6.20757 12.1269 5.83447 11.6666 5.83447H10.8333C9.45254 5.83447 8.33329 6.95376 8.33329 8.33447V10.0011H7.49996C7.03973 10.0011 6.66663 10.3742 6.66663 10.8345C6.66663 11.2947 7.03972 11.6678 7.49996 11.6678H8.33329V16.6678C8.33329 17.1281 8.70638 17.5011 9.16663 17.5011C9.62688 17.5011 9.99996 17.1281 9.99996 16.6678V11.6678H11.6666C12.1269 11.6678 12.5 11.2947 12.5 10.8345C12.5 10.3742 12.1269 10.0011 11.6666 10.0011H9.99996V8.33447Z" fill="#777E91"/>
</svg>
