<svg width="27" height="27" viewBox="0 0 27 27" fill="none" xmlns="http://www.w3.org/2000/svg">
<path d="M22.0735 12.1395H24.2809C24.2809 6.47765 20.0063 2.20752 14.3367 2.20752V4.41488C18.8199 4.41488 22.0735 7.663 22.0735 12.1395Z" fill="white"/>
<path d="M14.3479 8.82999C16.6689 8.82999 17.6589 9.81999 17.6589 12.141H19.8663C19.8663 8.58166 17.9073 6.62263 14.3479 6.62263V8.82999ZM18.1247 14.8373C17.9126 14.6446 17.6339 14.5418 17.3475 14.5506C17.061 14.5595 16.7892 14.6793 16.5895 14.8848L13.9484 17.6009C13.3126 17.4795 12.0346 17.0811 10.719 15.7688C9.40341 14.4521 9.00498 13.1708 8.88689 12.5395L11.6008 9.89724C11.8066 9.69762 11.9266 9.42578 11.9354 9.13925C11.9443 8.85271 11.8413 8.57398 11.6483 8.36203L7.5702 3.87778C7.3771 3.66516 7.10873 3.5362 6.82207 3.51827C6.53542 3.50034 6.25307 3.59486 6.03498 3.78176L3.64 5.83571C3.44918 6.02721 3.33529 6.28209 3.31993 6.55199C3.30338 6.82791 2.98772 13.3639 8.05582 18.4342C12.4772 22.8544 18.0154 23.1778 19.5407 23.1778C19.7636 23.1778 19.9005 23.1712 19.9369 23.169C20.2068 23.1539 20.4615 23.0395 20.6521 22.8478L22.705 20.4517C22.892 20.2338 22.9867 19.9515 22.969 19.6649C22.9513 19.3782 22.8225 19.1098 22.61 18.9165L18.1247 14.8373Z" fill="white"/>
</svg>
