<svg width="27" height="27" viewBox="0 0 27 27" fill="none" xmlns="http://www.w3.org/2000/svg">
<path d="M13.2442 2.14355C10.8301 2.1464 8.51581 3.10663 6.80884 4.8136C5.10188 6.52056 4.14165 8.83489 4.1388 11.2489C4.13591 13.2216 4.7803 15.1408 5.97312 16.7121C5.97312 16.7121 6.22145 17.0391 6.26201 17.0863L13.2442 25.3208L20.2296 17.0821C20.266 17.0383 20.5152 16.7121 20.5152 16.7121L20.516 16.7096C21.7082 15.1391 22.3523 13.2207 22.3495 11.2489C22.3467 8.83489 21.3864 6.52056 19.6795 4.8136C17.9725 3.10663 15.6582 2.1464 13.2442 2.14355ZM13.2442 14.5599C12.5893 14.5599 11.9491 14.3658 11.4046 14.0019C10.8601 13.6381 10.4358 13.121 10.1852 12.516C9.93455 11.911 9.86898 11.2452 9.99674 10.603C10.1245 9.96068 10.4398 9.37071 10.9029 8.90765C11.366 8.44459 11.9559 8.12925 12.5982 8.00149C13.2405 7.87373 13.9062 7.9393 14.5112 8.18991C15.1162 8.44051 15.6334 8.8649 15.9972 9.40939C16.361 9.95389 16.5552 10.594 16.5552 11.2489C16.5541 12.1267 16.2049 12.9683 15.5842 13.589C14.9635 14.2097 14.122 14.5588 13.2442 14.5599Z" fill="white"/>
</svg>
