<svg width="576" height="134" viewBox="0 0 576 134" fill="none" xmlns="http://www.w3.org/2000/svg">
<path d="M61 36.9788V25L0 66.9505H33.1973L50.3893 55.7901C53.6674 53.66 56.3415 50.8405 58.1876 47.5676C60.0336 44.2947 60.998 40.6638 61 36.9788ZM50.2109 77.9358L33.1973 66.9505H0L61 109V96.9984C60.9993 93.2603 60.0188 89.5772 58.1411 86.2596C56.2634 82.942 53.5435 80.0871 50.2109 77.9358Z" fill="white"/>
<path d="M515 36.9788V25L576 66.9505H542.803L525.611 55.7901C522.333 53.66 519.659 50.8405 517.812 47.5676C515.966 44.2947 515.002 40.6638 515 36.9788ZM525.789 77.9358L542.803 66.9505H576L515 109V96.9984C515.001 93.2603 515.981 89.5772 517.859 86.2596C519.737 82.942 522.456 80.0871 525.789 77.9358Z" fill="white"/>
<path d="M131.53 107.32C125.443 107.32 119.797 106.33 114.59 104.35C109.457 102.37 104.983 99.5833 101.17 95.99C97.43 92.3967 94.4967 88.18 92.37 83.34C90.3167 78.5 89.29 73.22 89.29 67.5C89.29 61.78 90.3167 56.5 92.37 51.66C94.4967 46.82 97.4667 42.6033 101.28 39.01C105.093 35.4167 109.567 32.63 114.7 30.65C119.833 28.67 125.407 27.68 131.42 27.68C137.507 27.68 143.08 28.67 148.14 30.65C153.273 32.63 157.71 35.4167 161.45 39.01C165.263 42.6033 168.233 46.82 170.36 51.66C172.487 56.4267 173.55 61.7067 173.55 67.5C173.55 73.22 172.487 78.5367 170.36 83.45C168.233 88.29 165.263 92.5067 161.45 96.1C157.71 99.62 153.273 102.37 148.14 104.35C143.08 106.33 137.543 107.32 131.53 107.32ZM131.42 92.14C134.867 92.14 138.02 91.5533 140.88 90.38C143.813 89.2067 146.38 87.52 148.58 85.32C150.78 83.12 152.467 80.5167 153.64 77.51C154.887 74.5033 155.51 71.1667 155.51 67.5C155.51 63.8333 154.887 60.4967 153.64 57.49C152.467 54.4833 150.78 51.88 148.58 49.68C146.453 47.48 143.923 45.7933 140.99 44.62C138.057 43.4467 134.867 42.86 131.42 42.86C127.973 42.86 124.783 43.4467 121.85 44.62C118.99 45.7933 116.46 47.48 114.26 49.68C112.06 51.88 110.337 54.4833 109.09 57.49C107.917 60.4967 107.33 63.8333 107.33 67.5C107.33 71.0933 107.917 74.43 109.09 77.51C110.337 80.5167 112.023 83.12 114.15 85.32C116.35 87.52 118.917 89.2067 121.85 90.38C124.783 91.5533 127.973 92.14 131.42 92.14ZM186.943 106V29H220.273C227.166 29 233.106 30.1367 238.093 32.41C243.079 34.61 246.929 37.8 249.643 41.98C252.356 46.16 253.713 51.1467 253.713 56.94C253.713 62.66 252.356 67.61 249.643 71.79C246.929 75.8967 243.079 79.05 238.093 81.25C233.106 83.45 227.166 84.55 220.273 84.55H196.843L204.763 76.74V106H186.943ZM235.892 106L216.643 78.06H235.673L255.143 106H235.892ZM204.763 78.72L196.843 70.36H219.283C224.783 70.36 228.889 69.1867 231.603 66.84C234.316 64.42 235.673 61.12 235.673 56.94C235.673 52.6867 234.316 49.3867 231.603 47.04C228.889 44.6933 224.783 43.52 219.283 43.52H196.843L204.763 35.05V78.72ZM304.681 107.32C298.741 107.32 293.205 106.367 288.071 104.46C283.011 102.48 278.611 99.6933 274.871 96.1C271.131 92.5067 268.198 88.29 266.071 83.45C264.018 78.61 262.991 73.2933 262.991 67.5C262.991 61.7067 264.018 56.39 266.071 51.55C268.198 46.71 271.131 42.4933 274.871 38.9C278.685 35.3067 283.121 32.5567 288.181 30.65C293.241 28.67 298.778 27.68 304.791 27.68C311.465 27.68 317.478 28.8533 322.831 31.2C328.258 33.4733 332.805 36.8467 336.471 41.32L325.031 51.88C322.391 48.8733 319.458 46.6367 316.231 45.17C313.005 43.63 309.485 42.86 305.671 42.86C302.078 42.86 298.778 43.4467 295.771 44.62C292.765 45.7933 290.161 47.48 287.961 49.68C285.761 51.88 284.038 54.4833 282.791 57.49C281.618 60.4967 281.031 63.8333 281.031 67.5C281.031 71.1667 281.618 74.5033 282.791 77.51C284.038 80.5167 285.761 83.12 287.961 85.32C290.161 87.52 292.765 89.2067 295.771 90.38C298.778 91.5533 302.078 92.14 305.671 92.14C309.485 92.14 313.005 91.4067 316.231 89.94C319.458 88.4 322.391 86.09 325.031 83.01L336.471 93.57C332.805 98.0433 328.258 101.453 322.831 103.8C317.478 106.147 311.428 107.32 304.681 107.32ZM382.285 107.32C371.359 107.32 362.815 104.277 356.655 98.19C350.495 92.1033 347.415 83.4133 347.415 72.12V29H365.235V71.46C365.235 78.7933 366.739 84.0733 369.745 87.3C372.752 90.5267 376.969 92.14 382.395 92.14C387.822 92.14 392.039 90.5267 395.045 87.3C398.052 84.0733 399.555 78.7933 399.555 71.46V29H417.155V72.12C417.155 83.4133 414.075 92.1033 407.915 98.19C401.755 104.277 393.212 107.32 382.285 107.32ZM460.065 107.32C453.905 107.32 448.001 106.513 442.355 104.9C436.708 103.213 432.161 101.05 428.715 98.41L434.765 84.99C438.065 87.3367 441.951 89.28 446.425 90.82C450.971 92.2867 455.555 93.02 460.175 93.02C463.695 93.02 466.518 92.69 468.645 92.03C470.845 91.2967 472.458 90.3067 473.485 89.06C474.511 87.8133 475.025 86.3833 475.025 84.77C475.025 82.7167 474.218 81.1033 472.605 79.93C470.991 78.6833 468.865 77.6933 466.225 76.96C463.585 76.1533 460.651 75.42 457.425 74.76C454.271 74.0267 451.081 73.1467 447.855 72.12C444.701 71.0933 441.805 69.7733 439.165 68.16C436.525 66.5467 434.361 64.42 432.675 61.78C431.061 59.14 430.255 55.7667 430.255 51.66C430.255 47.26 431.428 43.2633 433.775 39.67C436.195 36.0033 439.788 33.1067 444.555 30.98C449.395 28.78 455.445 27.68 462.705 27.68C467.545 27.68 472.311 28.2667 477.005 29.44C481.698 30.54 485.841 32.2267 489.435 34.5L483.935 48.03C480.341 45.9767 476.748 44.4733 473.155 43.52C469.561 42.4933 466.041 41.98 462.595 41.98C459.148 41.98 456.325 42.3833 454.125 43.19C451.925 43.9967 450.348 45.06 449.395 46.38C448.441 47.6267 447.965 49.0933 447.965 50.78C447.965 52.76 448.771 54.3733 450.385 55.62C451.998 56.7933 454.125 57.7467 456.765 58.48C459.405 59.2133 462.301 59.9467 465.455 60.68C468.681 61.4133 471.871 62.2567 475.025 63.21C478.251 64.1633 481.185 65.4467 483.825 67.06C486.465 68.6733 488.591 70.8 490.205 73.44C491.891 76.08 492.735 79.4167 492.735 83.45C492.735 87.7767 491.525 91.7367 489.105 95.33C486.685 98.9233 483.055 101.82 478.215 104.02C473.448 106.22 467.398 107.32 460.065 107.32Z" fill="white"/>
</svg>
